<svg xmlns="http://www.w3.org/2000/svg" xmlns:xlink="http://www.w3.org/1999/xlink" id="Capa_1" x="0px" y="0px" viewBox="0 0 244.9 565.9" style="enable-background:new 0 0 244.9 565.9;" xml:space="preserve">
<style type="text/css">
	.st0{fill:#FFFFFF;}
	.st1{fill:none;stroke:#FFFFFF;stroke-miterlimit:10;}
	.st2{fill:#FFAA32;}
	.st3{fill:#FFB27D;}
	.st4{fill:#2B478B;}
	.st5{fill:#233862;}
	.st6{fill:#C42776;}
	.st7{fill:#0B0B35;}
	.st8{fill:#0E6EB7;}
	.st9{fill:#0F6193;}
	.st10{fill:#ED975D;}
	.st11{fill:#E63888;}
</style>
<g transform="translate(-4130.041 -498.644)">
	<g transform="translate(4269.469 499.194)">
		<g transform="translate(17.276 191.014)">
			<circle class="st0" cx="18" cy="13.3" r="15.3"></circle>
			<circle class="st1" cx="18" cy="13.3" r="18"></circle>
			<g transform="translate(11.382 6.966)">
				<path class="st2" d="M8.4,10c0-0.3,0-0.6-0.1-0.8C8.2,8.9,8.1,8.7,7.9,8.5C7.6,8.3,7.4,8.1,7.1,8C6.7,7.8,6.3,7.6,5.9,7.5      C5.2,7.2,4.5,6.9,3.8,6.6C3.2,6.3,2.7,5.9,2.2,5.5c-0.4-0.4-0.8-0.9-1-1.4C0.9,3.5,0.7,2.9,0.8,2.2c0-0.6,0.1-1.2,0.4-1.7      c0.2-0.5,0.6-1,1-1.4c0.4-0.4,1-0.7,1.5-0.9c0.6-0.2,1.3-0.4,2-0.4l0-2.4l1.9,0l0,2.4c0.7,0.1,1.3,0.3,1.9,0.6      c1.1,0.5,1.9,1.5,2.3,2.7c0.2,0.7,0.3,1.3,0.3,2l-3.5,0c0.1-0.7-0.1-1.4-0.6-2C7.5,0.6,7,0.3,6.4,0.3c-0.3,0-0.6,0-0.9,0.1      C5.2,0.6,5,0.7,4.8,0.9C4.6,1.1,4.5,1.3,4.4,1.5C4.3,1.7,4.3,2,4.3,2.3c0,0.3,0,0.5,0.1,0.8c0.1,0.2,0.2,0.5,0.4,0.6      C5,3.9,5.3,4.1,5.5,4.2c0.4,0.2,0.8,0.4,1.2,0.5C7.5,5,8.2,5.3,8.9,5.7c0.6,0.3,1.1,0.6,1.6,1.1c0.4,0.4,0.8,0.9,1,1.4      c0.5,1.2,0.5,2.5,0,3.7c-0.2,0.5-0.6,1-1,1.3c-0.4,0.4-1,0.7-1.5,0.9c-0.6,0.2-1.3,0.4-2,0.4l0,2.2l-1.9,0l0-2.2      c-0.7-0.1-1.3-0.2-1.9-0.5c-0.6-0.2-1.2-0.6-1.6-1c-0.5-0.4-0.9-1-1.1-1.6C0.1,10.6,0,9.9,0,9.1l3.5,0.1c0,0.5,0,0.9,0.2,1.3      c0.1,0.3,0.3,0.6,0.6,0.9c0.2,0.2,0.5,0.4,0.8,0.5c0.3,0.1,0.6,0.1,1,0.1c0.3,0,0.7,0,1-0.1c0.3-0.1,0.5-0.2,0.7-0.4      C8,11.2,8.2,11,8.3,10.8C8.4,10.5,8.4,10.3,8.4,10z"></path>
			</g>
		</g>
		<g transform="translate(44.218 108.211)">
			<circle class="st0" cx="35.6" cy="31" r="22.2"></circle>
			<circle class="st1" cx="35.6" cy="31" r="25.2"></circle>
			<g transform="translate(26.049 19.656)">
				<path class="st2" d="M12.2,16.6c0-0.4,0-0.8-0.2-1.2c-0.1-0.4-0.3-0.7-0.6-1c-0.3-0.3-0.7-0.6-1.1-0.8c-0.5-0.3-1.1-0.5-1.7-0.7      c-1.1-0.4-2.1-0.8-3.1-1.3c-0.9-0.4-1.7-0.9-2.4-1.6C2.5,9.5,2,8.8,1.6,8c-0.7-1.7-0.7-3.6,0-5.3C2,2,2.5,1.4,3.1,0.8      c0.6-0.6,1.4-1,2.2-1.3c0.9-0.4,1.9-0.6,2.8-0.6l0.1-3.5l2.8,0l-0.1,3.5c0.9,0.1,1.9,0.4,2.7,0.8c1.6,0.8,2.8,2.2,3.3,3.9      c0.3,0.9,0.4,1.9,0.4,2.9l-5-0.1c0.1-1-0.2-2.1-0.8-2.9c-0.6-0.7-1.4-1-2.3-1c-0.5,0-0.9,0.1-1.4,0.2C7.5,2.9,7.2,3.1,6.9,3.4      C6.6,3.6,6.5,3.9,6.3,4.2C6.2,4.6,6.2,5,6.2,5.4c0,0.4,0,0.7,0.2,1.1c0.1,0.3,0.3,0.7,0.6,0.9C7.2,7.7,7.6,7.9,8,8.2      c0.6,0.3,1.1,0.6,1.7,0.8c1.1,0.4,2.1,0.9,3.1,1.3c0.9,0.4,1.6,0.9,2.4,1.6c1.4,1.2,2.1,3,2,4.8c0,0.9-0.2,1.7-0.5,2.6      c-0.3,0.7-0.8,1.4-1.4,1.9c-0.7,0.6-1.4,1-2.2,1.3c-0.9,0.3-1.9,0.5-2.9,0.6l0,3.2l-2.8,0l0-3.2c-1-0.1-1.9-0.3-2.8-0.7      c-0.9-0.3-1.7-0.8-2.4-1.4c-0.7-0.7-1.3-1.4-1.6-2.3C0.2,17.5,0,16.4,0,15.2l5,0.1c0,0.7,0.1,1.3,0.3,1.9      c0.2,0.5,0.5,0.9,0.8,1.2C6.5,18.8,7,19,7.4,19.1c0.5,0.1,0.9,0.2,1.4,0.2c0.5,0,1,0,1.4-0.2c0.4-0.1,0.7-0.3,1-0.6      c0.3-0.2,0.5-0.5,0.6-0.9C12.1,17.3,12.2,17,12.2,16.6z"></path>
			</g>
		</g>
		<g transform="translate(0 0)">
			<circle class="st0" cx="50.6" cy="46" r="41.3"></circle>
			<circle class="st1" cx="50.6" cy="46" r="46"></circle>
			<g transform="translate(32.849 20.965)">
				<path class="st2" d="M22.6,34.8c0-0.8-0.1-1.5-0.3-2.2c-0.2-0.7-0.6-1.3-1.1-1.8c-0.6-0.6-1.3-1.1-2.1-1.5c-1-0.5-2-1-3.1-1.3      c-2-0.7-3.9-1.5-5.7-2.4c-1.6-0.8-3.1-1.7-4.4-2.9c-1.2-1-2.2-2.3-2.8-3.8c-1.3-3.1-1.3-6.6,0-9.8c0.6-1.4,1.5-2.6,2.6-3.6      C6.9,4.4,8.3,3.6,9.8,3c1.7-0.7,3.5-1.1,5.3-1.2l0.1-6.5l5.2,0.1L20.2,2c1.8,0.2,3.5,0.8,5,1.6c3,1.5,5.2,4.1,6.2,7.2      c0.6,1.8,0.8,3.6,0.8,5.5L22.9,16c0.2-1.9-0.4-3.9-1.5-5.4c-1.1-1.2-2.6-1.9-4.3-1.9c-0.9,0-1.7,0.1-2.5,0.4      c-0.7,0.2-1.3,0.6-1.8,1.1c-0.5,0.5-0.8,1-1,1.7c-0.2,0.7-0.4,1.4-0.4,2.1c0,0.7,0.1,1.4,0.3,2c0.2,0.6,0.6,1.2,1.1,1.7      c0.6,0.6,1.3,1.1,2.1,1.5c1.1,0.5,2.1,1,3.2,1.5c2.1,0.8,4,1.6,5.7,2.5c1.6,0.8,3.1,1.7,4.4,2.9c2.6,2.2,3.9,5.5,3.8,8.9      c0,1.6-0.3,3.3-1,4.8c-0.6,1.4-1.5,2.6-2.7,3.6c-1.2,1.1-2.6,1.9-4.1,2.4c-1.7,0.6-3.5,1-5.3,1.1l-0.1,6l-5.2-0.1l0.1-6      c-1.8-0.2-3.5-0.6-5.2-1.3c-1.6-0.6-3.1-1.5-4.4-2.7c-1.3-1.2-2.4-2.7-3.1-4.3c-0.8-2-1.2-4.1-1.1-6.2l9.4,0.1      c-0.1,1.2,0.1,2.4,0.5,3.6c0.3,0.9,0.9,1.7,1.6,2.3c0.7,0.6,1.4,1,2.3,1.2c0.8,0.2,1.7,0.4,2.6,0.4c0.9,0,1.8-0.1,2.7-0.4      c0.7-0.2,1.4-0.6,1.9-1.1c0.5-0.4,0.9-1,1.2-1.6C22.5,36.2,22.6,35.5,22.6,34.8z"></path>
			</g>
		</g>
	</g>
	<g transform="translate(4130.041 663.402)">
		<path class="st3" d="M189.2,86.4c-1.7,4.6-4.7,9.9-7.8,11.3c-2,0.8-3.7,2-5,3.6l-2.9-1.7l-3.4-2c0,0,0.1-0.4,0.2-1    s0.4-1.5,0.8-2.4c0.6-0.9,0.8-2,0.4-3c-0.7-1.9-0.5-4.1,0.6-5.9c1.1-1.6,2.1-5.5,2.8-5.4c1.6,0.3-0.8,5.6-0.1,6.6    c0.3,0.6,1,0.8,1.5,0.5c0,0,0,0,0,0c4.5-2,9.9-12.5,12.3-11.1C189.6,76.5,190,84.4,189.2,86.4z"></path>
		<g transform="translate(173.414 75.447)">
			<path class="st4" d="M0.4,17.3L6,21.3c0.4,0.3,0.9,0.2,1.2-0.2L21.5,0.7c0.3-0.4,0.2-0.9-0.2-1.2l-5.6-3.9     c-0.4-0.3-0.9-0.2-1.2,0.2L0.2,16.1C-0.1,16.5,0,17.1,0.4,17.3z"></path>
			<path class="st5" d="M5.5,20.9l3.3,2.3c0.3,0.2,0.7,0.1,0.9-0.2L24.3,2.4c0.2-0.3,0.1-0.7-0.2-0.9l-3.3-2.3     c-0.3-0.2-0.7-0.1-0.9,0.2L5.3,20C5.1,20.3,5.2,20.7,5.5,20.9z"></path>
		</g>
		<path class="st6" d="M93.5,63.5c0,0,28.5,49.6,38.8,58.8l37.9-28.2c3.5,1.2,6.3,3.8,7.9,7.2c0,0-23,46.8-45.6,48.8    S78.1,94,78.1,94L93.5,63.5z"></path>
		<g transform="translate(0 182.894)">
			<path class="st7" d="M29.1,218.3H12.7c-2.1-1.1-3.9-3.7-4.5-7.5c-0.8-5.3-6.7-8.2-8-12.5s5.3-10.4,5.3-10.4l1.1-1.4l1.1-1.5     l10.9,2.6c0,0,0.3,2.6,0.4,5.9c0.1,2.5,0.2,5,0,7.6c-0.3,5.8,1.6,12,6.8,13.1C29.7,214.9,29.5,217.2,29.1,218.3z"></path>
			<path class="st7" d="M124.6,218.3H87c-1.8-2.2-1.1-10.4-0.9-13c0.1-0.5,0.1-0.8,0.1-0.8s12.8-10.3,14.6-2.4     c0.1,0.2,0.1,0.5,0.2,0.7c2.2,7.4,12.2,10.7,17.9,11.6C122.7,215,124.1,216.9,124.6,218.3z"></path>
			<path class="st8" d="M117.4,8.4c0,0-2,24.3-4.2,53.6c-3.1,39.7-6.9,88.5-7.2,97.8c-0.6,16.1-3.2,41.7-3.2,41.7s-6.1,6.1-18.3,3.5     c0,0-10.9-36.7-14-75.4c0-0.6-0.1-1.3-0.1-1.9C67.4,88.1,62.9,5,62.9,5L117.4,8.4z"></path>
			<path class="st9" d="M117.4,8.4c0,0-2,24.3-4.2,53.6l-42.7,67.6c0-0.6-0.1-1.3-0.1-1.9C67.4,88.1,62.9,5,62.9,5L117.4,8.4z"></path>
			<path class="st8" d="M108.5,11.3c0,0-35.1,88.1-58.3,129.5s-30.3,53-30.3,53s-13.2-5.3-14.4-8.9c0,0,8.8-79.9,24.3-99.4     c8.7-11,19-44.1,19.5-55.6s3.1-34.4,3.1-34.4L108.5,11.3z"></path>
		</g>
		<path class="st3" d="M99.8,65.7C86,70,62.3,58.3,62.3,58.3s12.7-9.5,12-29.3l10.6,8.6l7.2,5.8c-0.1,3.2-0.4,6.3-0.8,9.4    c-0.2,1.6-0.5,3.3-0.8,5.3C94,60.1,97.2,62.6,99.8,65.7z"></path>
		<path class="st10" d="M92.1,43.4c-0.1,3.2-0.4,6.3-0.8,9.4c-8-1.4-17.1-14.3-17.1-14.3c3.4-1.1,7.1-1.4,10.7-1L92.1,43.4z"></path>
		<path class="st3" d="M96.3,43.1c0,0-22.7,3.8-24.8-10.4S65,9.5,79.4,6.5s18,2,19.9,6.5S102.1,41.8,96.3,43.1z"></path>
		<path class="st11" d="M118.9,193.3c-0.4,0.4-0.9,0.5-1.4,0.6c-5.2-0.1-20.2,2.8-32.9,1.5c-10.7-1-20.2-4.2-30.4-8.8    c-1.4-0.6-4.5-2.3-4.4-3.8c0-1.7,0.2-4.1,0.4-7.1c1.3-16.5,1.6-33,0.8-49.5c-0.2-3.9-0.3-7.7-0.4-11.5    C50.5,86.3,56.1,61.4,67.3,53c1-0.7,6.9,2.2,12.3,4.9c4.6,2.3,9.8,2.9,14.8,1.8l4.7,4.2c5.8,5.4,12.1,12.7,14.9,23.7    c2.3,9.4,3.7,26.4,4.5,44c0.3,8,0.6,16,0.7,23.7v0.3c0.1,0.8,0.1,1.6,0.1,2.3C119.5,177.5,119.3,193,118.9,193.3z"></path>
		<path class="st6" d="M50.1,175.7c1.3-16.5,1.6-33,0.8-49.5c-0.2-3.9-0.3-7.7-0.4-11.5c4.7-11.4,8.5-19.7,8.5-19.7h11.8    C70.9,94.9,79.6,154.3,50.1,175.7z"></path>
		<path class="st3" d="M27.9,177.7c0,0-2.7,3.5-2.8,4.9c-0.7,9.6,3.7,10.9-7.7,16.2c0,0-4.8,1.8-4.9-1.9s3.4-3.8,2.7-9.1    c-0.7-6.1-0.7-6.1,3.3-9.3l2.6-4.4L27.9,177.7z"></path>
		<path class="st11" d="M21.1,180.4c2.9,0.5,5.9,0.7,8.9,0.5c0,0,12.7-39.1,14.3-42.7s37.6-45.9,37.6-45.9l-15-37.5    c0,0-38.9,65-42.9,74.1c-6.5,15.1-8.8,48.9-8.8,48.9C17.1,179.1,19,180,21.1,180.4z"></path>
		<path class="st7" d="M71.5,31.4c0,0,2.3-0.4,2-3.6s-0.4-7.4,2.2-6.6s2.7,2.9,3.8,1.7s1.1-6.4,8.8-6.7c7.8-0.4,10.9,2.3,14.5,0.8    s3.8-7,3.8-7c-0.6,1.1-1.5,2-2.6,2.6c0,0,6-8.2-0.9-13.9S89-3.5,85-3.2c-8.9,0.5-14.6,1.1-17.5,6.9S65.8,25.7,71.5,31.4z"></path>
		<path class="st3" d="M23.7,181.9c0,0,2.6,2.7,2.7,3.8c0.5,3.6,1.7,5.1,1.1,5.5c-1.2,0.8-2.9-1.8-3.7-4.2    C23.4,185.3,23.4,183.6,23.7,181.9z"></path>
	</g>
</g>
</svg>