<svg xmlns="http://www.w3.org/2000/svg" width="194.287" height="561.406" viewBox="0 0 194.287 561.406"><defs><style>.a{fill:#f6bb9b;}.b{fill:#0b0b35;}.c{fill:#d3a18c;}.d{fill:#4e1356;}.e{fill:#72217b;}.f{fill:#9bff00;}.g{fill:#f1a34f;}.h{fill:#d86713;}.i{fill:#233862;}.j{fill:#466aa5;}.k{fill:#86d300;}.l{fill:#fff;}.m{fill:#e5e5e5;}.n{fill:#ffaa32;}</style></defs><g transform="translate(-5296.826 -913.162)"><g transform="translate(5327.497 1074.49)"><g transform="translate(0)"><path class="a" d="M5397.724,1540.183c0-.238,3.488-7.449,2.378-8s-3.1-.47-3.329.792S5397.724,1540.183,5397.724,1540.183Z" transform="translate(-5385.071 -1430.989)"></path><path class="b" d="M5521.9,1320.842s20.45-24.574,31.276-8.85c0,0,8.076,3.351,11,17.1,2.98,14.026-6.348,24.688-11.17,22.053-3.093-1.69-5.435,3.723-5.435,3.723Z" transform="translate(-5457.188 -1301.273)"></path><path class="a" d="M5418.656,1548.094c-16.259-5.99-31.917-33.811-31.917-33.811l5.128-3.589c4.27,6.247,23.482,18.242,23.482,18.242.438-5.264,1.075-10.041,1.86-14.367,5.335-29.4,17.536-38.113,20.812-39.961a7.28,7.28,0,0,1,.827-.418s-.012.216-.037.626c-.047.885-.151,2.668-.322,5.112C5437.219,1498.131,5432.239,1553.1,5418.656,1548.094Z" transform="translate(-5379.306 -1397.762)"></path><path class="b" d="M5590.428,1302.071s2.75-11,18.9-7.561c0,0-7.733-.974-9.853,2,0,0,6.129-2.807,9.966-.458s4.469,10.253,3.9,12.659-4.812,9.566-7.619,9.566-6.129-2.463-6.129-2.463Z" transform="translate(-5496.674 -1293.845)"></path><path class="a" d="M5558.168,1542.752c-8.032-18.012-11.875-23.106-12.008-28.773-.106-4.482,2.1-9.318,6.4-21.175a44.246,44.246,0,0,0,2.138-8.572c3.395-22.858-9.824-47.57-18.039-49.253-2.288-.6-6.162-8.86-6.115-22.164l-1.029.2-17.3,3.425s.394,5.444.4,10.573c.013,4.275-.246,8.325-1.214,8.835-1.245.113-1.98.187-1.98.187s-14.424,20.032-15.638,38.664,11.552,26.725-.1,63.956C5481.8,1576.684,5562.6,1552.706,5558.168,1542.752Z" transform="translate(-5440.244 -1362.397)"></path><path class="c" d="M5539.025,1416.719s.395,5.444.405,10.573c9.681-.273,14.8-9.1,16.894-14Z" transform="translate(-5467.055 -1362.673)"></path><path class="b" d="M5543.3,1360.519s5.073-8.016,6.291-14.87c.87-4.893-1.624-23.032-19.851-20.42a24.762,24.762,0,0,0-10.271,3.883c-3.958,2.673-9.668,8.443-3.283,24.271l1.659,5.347Z" transform="translate(-5452.241 -1311.782)"></path><path class="a" d="M5521.023,1380.288s22.9.377,22.92-13.89,2.983-23.827-11.64-24.672-17.47,4.6-18.634,9.358S5515.066,1379.821,5521.023,1380.288Z" transform="translate(-5452.287 -1321.385)"></path><path class="b" d="M5533.4,1337.078s6.271,16.738,15.9,19.213,13.8-.1,13.8-.1a27.257,27.257,0,0,1-8.915-16.1S5538.127,1329.111,5533.4,1337.078Z" transform="translate(-5463.812 -1317.086)"></path><path class="b" d="M5521.3,1340.516s-4.684,3.737-5.825,7.37-1.655,11.112-3.835,10.858c0,0-4.724-11.377.585-17.813C5517.851,1334.107,5521.3,1340.516,5521.3,1340.516Z" transform="translate(-5450.156 -1319.165)"></path><path class="d" d="M5536.454,1898.756a226.329,226.329,0,0,1-14.436,40.5l-7.554-.523a213.527,213.527,0,0,0,3.492-41.429c-.149-16.645-2.208-36.316-8.785-55.1-22.6-64.544-18.947-111.519-18.947-111.519l42.5,4.971,1.979.232c.178,19.519.681,46.019,1.122,66.741.39,18.636.732,32.6.732,32.6C5544.728,1852.82,5541.76,1877.659,5536.454,1898.756Z" transform="translate(-5438.81 -1545.557)"></path><path class="a" d="M5646.431,1591.438l-6.876,2.062s-22.683-37.635-24.745-47.427c-.673-3.189-2.322-9.568-4.246-16.716-3.984-14.8-9.124-32.916-9.124-32.916l-1.692-7.332-5.773-25s11.056,1.13,17.521,3.834c2.142.893,3.775,1.96,4.346,3.211,4.75,10.445,9.493,36.808,12.828,55.614,1.857,10.482,3.274,18.617,4.014,20.34C5634.745,1551.914,5641.047,1578.378,5646.431,1591.438Z" transform="translate(-5498.718 -1391.951)"></path><path class="e" d="M5589.01,1882.926c-2.444,26.079-13.2,42.944-13.2,42.944l-3.609,2.623s-3.415-18.374-5.832-40.234c-2.3-20.778-5.458-42.764-9.029-49.474-14.174-26.615-18.439-127.086-18.439-127.086l43.09-2.137c4.333,7.285,6.223,19.234,6.671,32.821,1.134,34.29-6.927,79-8.131,85.468a.024.024,0,0,1,0,.016,2.248,2.248,0,0,0,.284,1.444C5589.379,1846.283,5590.619,1865.7,5589.01,1882.926Z" transform="translate(-5466.982 -1533.387)"></path><path class="b" d="M5535.011,1339.365s4.468,17.528,16.612,23.142c0,0-12.144-10.769-13.174-22.34S5535.011,1339.365,5535.011,1339.365Z" transform="translate(-5464.742 -1317.448)"></path><path class="f" d="M5552.864,1586.188a10.2,10.2,0,0,1-.268,3.444c-.918,2.885-4.066,4.2-11.677,3.412-4.652-.484-6.727-8.281-7.651-14.933q-4.192,14.276-11.764,15.98c-7.381,1.641-44.606,6.168-47.042-11.528-2.682-19.463,5.344-53.926,5.785-72.507a91.986,91.986,0,0,1-1.35-17.22c.311-13.236,4.2-20.655,7.183-23.643.846-.649,1.693-1.055,5.089-1.637,1.737-.3,4.14-.638,7.549-1.086a12.688,12.688,0,0,1,1.358-.105c-.629,1.126-9.061,13.893-8.4,17.175.688,3.436,30.589.342,32.652-1.547s5.325-16.365,5.325-16.365,10.588,1.157,15.768,4.924l-.055.067a4.359,4.359,0,0,1,1.36,1.432c5.526,10.521,11.045,37.072,14.925,56.012a27.576,27.576,0,0,1-20.175,2.956C5544.808,1552.831,5552.368,1576.249,5552.864,1586.188Z" transform="translate(-5429.538 -1392.828)"></path><path class="a" d="M5381.76,1535.581c0-.707.593-10.938-1.228-13.087s-5.539-5.206-6.709-5.112-5.743,6.172-4.368,10.829,7.178,10.959,7.178,10.959Z" transform="translate(-5369.199 -1422.649)"></path><g transform="translate(1.259 78.898)"><path class="g" d="M5394.727,1501.539l-10.6,3.177a.665.665,0,0,1-.828-.446l-6.059-20.216a.664.664,0,0,1,.446-.827l10.6-3.178a.665.665,0,0,1,.828.446l6.059,20.216A.664.664,0,0,1,5394.727,1501.539Z" transform="translate(-5375.073 -1480.02)"></path><path class="h" d="M5389.068,1503.458l-9.617,2.883a1.18,1.18,0,0,1-1.469-.792l-5.763-19.23a1.179,1.179,0,0,1,.791-1.468l9.616-2.882a1.18,1.18,0,0,1,1.469.792l5.765,19.23A1.182,1.182,0,0,1,5389.068,1503.458Z" transform="translate(-5372.169 -1481.114)"></path></g><path class="a" d="M5626.358,2118.646c-2.443,26.079-13.2,42.943-13.2,42.943l-3.674,3.345s-3.349-19.1-5.766-40.955C5606.262,2124.164,5617.487,2124.573,5626.358,2118.646Z" transform="translate(-5504.331 -1769.107)"></path><path class="a" d="M5569.711,2125.3a226.372,226.372,0,0,1-14.437,40.5l-7.553-.523a213.53,213.53,0,0,0,3.491-41.429C5553.775,2125.138,5559.065,2126.449,5569.711,2125.3Z" transform="translate(-5472.067 -1772.104)"></path><g transform="translate(53.62 382.549)"><path class="i" d="M5529.663,2214.02h-4.821c-1.616-.254-2.809-.722-4.465-.938-2.516-.33-3.673.7-3.9.938a.611.611,0,0,0-.044.048h-20.484c-.515-.736-.021-2.44.464-3.7a2.914,2.914,0,0,1,1.917-1.752c2.172-.629,6.456-1.189,10.376-4.74,2.207-1.994,10.655-7.331,10.655-7.331l.044-.01c.186,0,1.07.275,4.911,3.519,1.987,1.674,5.372-2.364,5.372-2.364a4.812,4.812,0,0,1,1.11,1.505,5.081,5.081,0,0,1,.441,3.145c-.307,1.846.681,5.275,1.467,7.6.478,1.405.88,2.4.88,2.4S5533.811,2213.5,5529.663,2214.02Z" transform="translate(-5495.725 -2196.54)"></path><path class="j" d="M5562.923,2199.2c-1.151.812-3.581,2.409-5.193,2.619-2.175.286-6.244-5.269-6.244-5.269l.045-.01c.186,0,1.069.275,4.911,3.519,1.986,1.674,5.371-2.364,5.371-2.364A4.826,4.826,0,0,1,5562.923,2199.2Z" transform="translate(-5527.854 -2196.54)"></path><path class="j" d="M5529.663,2232.24h-4.821c-1.616-.254-2.809-.722-4.465-.938-2.516-.33-3.673.7-3.9.938a.517.517,0,0,0-.044.048h-20.484c-.515-.736-.021-2.44.464-3.695.623-.553.8,2.4,1.142,2.873s16.709.172,17.654-.516a9.886,9.886,0,0,1,7.733-.945c3.44.821,8.51-1.285,9.764-1.846.478,1.406.88,2.4.88,2.4S5533.811,2231.721,5529.663,2232.24Z" transform="translate(-5495.725 -2214.76)"></path></g><g transform="translate(79.352 382.549)"><path class="i" d="M5590.383,2214.02h-4.823c-1.615-.254-2.809-.722-4.464-.938-2.517-.33-3.674.7-3.9.938-.03.031-.044.048-.044.048h-20.483c-.516-.736-.022-2.44.463-3.7a2.914,2.914,0,0,1,1.918-1.752c2.172-.629,6.455-1.189,10.376-4.74,2.206-1.994,10.655-7.331,10.655-7.331l.044-.01c.186,0,1.069.275,4.911,3.519,1.987,1.674,5.372-2.364,5.372-2.364a4.812,4.812,0,0,1,1.11,1.505,5.085,5.085,0,0,1,.44,3.145c-.307,1.846.68,5.275,1.468,7.6.478,1.405.879,2.4.879,2.4S5594.531,2213.5,5590.383,2214.02Z" transform="translate(-5556.445 -2196.54)"></path><path class="j" d="M5623.644,2199.2c-1.152.812-3.582,2.409-5.194,2.619-2.175.286-6.244-5.269-6.244-5.269l.044-.01c.186,0,1.069.275,4.911,3.519,1.987,1.674,5.372-2.364,5.372-2.364A4.822,4.822,0,0,1,5623.644,2199.2Z" transform="translate(-5588.575 -2196.54)"></path><path class="j" d="M5590.383,2232.24h-4.823c-1.615-.254-2.809-.722-4.464-.938-2.517-.33-3.674.7-3.9.938-.03.031-.044.048-.044.048h-20.483c-.516-.736-.022-2.44.463-3.695.623-.553.8,2.4,1.141,2.873s16.71.172,17.655-.516a9.884,9.884,0,0,1,7.732-.945c3.441.821,8.51-1.285,9.765-1.846.478,1.406.879,2.4.879,2.4S5594.531,2231.721,5590.383,2232.24Z" transform="translate(-5556.445 -2214.76)"></path></g><path class="k" d="M5620.51,1647.211c-5.113-1.709-11.673-6.25-19.554-16.433-20.86-26.961-1.772-58.645.787-59.235s7.377,20.5,7.377,20.5C5612.454,1613.854,5620.014,1637.273,5620.51,1647.211Z" transform="translate(-5497.183 -1453.852)"></path><path class="f" d="M5479.749,1472.614s-14.285,7.187-19.042,36.2c0,0,4.678,6.413,11.269,8.305a13.136,13.136,0,0,0,2.934.5C5483,1518.049,5479.749,1472.614,5479.749,1472.614Z" transform="translate(-5421.927 -1396.854)"></path><path class="a" d="M5377.528,1510.5s4.415-6.793,5.493-6.415c1.541.539-4,9.159-4,9.159s4.107-6.441,4.749-5.957c1.461,1.1-.865,5.152-3.172,8.254,0,0,4.13-3.782,4.264-3.1.471,2.386-4.534,8.167-4.534,8.167l-2.8-6.39Z" transform="translate(-5373.999 -1414.977)"></path><path class="a" d="M5369.714,1512.887c.213-.831,1.291-17.052,1.751-15.513s1.56,10.044,1.56,10.044Z" transform="translate(-5369.496 -1411.062)"></path></g><path class="l" d="M5531.1,1411.391s-.4,1.681-4.579,1.422c0,0-3.512-.217-3.4-2.065A11.3,11.3,0,0,1,5531.1,1411.391Z" transform="translate(-5457.886 -1360.957)"></path></g><g transform="translate(5311.627 1102.722)"><circle class="m" cx="15.428" cy="15.428" r="15.428" transform="translate(0 0)"></circle><g transform="translate(8.797 4.354)"><path class="n" d="M5360.967,1385.483a2.416,2.416,0,0,0-.121-.836,1.769,1.769,0,0,0-.427-.66,3.354,3.354,0,0,0-.776-.552,8.773,8.773,0,0,0-1.164-.5,23.029,23.029,0,0,1-2.147-.905,7.224,7.224,0,0,1-1.646-1.078,4.267,4.267,0,0,1-1.054-1.413,4.807,4.807,0,0,1,.01-3.653,4.053,4.053,0,0,1,.991-1.361,5.067,5.067,0,0,1,1.525-.93,6.728,6.728,0,0,1,1.979-.439l.034-2.412,1.941.028-.034,2.446a6.023,6.023,0,0,1,1.884.58,4.562,4.562,0,0,1,2.323,2.689,6.07,6.07,0,0,1,.292,2.039l-3.507-.051a2.949,2.949,0,0,0-.571-2.032,2.051,2.051,0,0,0-1.6-.694,2.605,2.605,0,0,0-.943.139,1.769,1.769,0,0,0-.655.407,1.646,1.646,0,0,0-.385.62,2.407,2.407,0,0,0-.132.776,2.214,2.214,0,0,0,.11.757,1.638,1.638,0,0,0,.41.632,3.312,3.312,0,0,0,.781.553,11.183,11.183,0,0,0,1.211.542q1.172.457,2.129.933a7.349,7.349,0,0,1,1.641,1.09,4.312,4.312,0,0,1,1.054,1.419,4.362,4.362,0,0,1,.354,1.9,4.41,4.41,0,0,1-.372,1.776,4,4,0,0,1-1,1.35,4.883,4.883,0,0,1-1.537.9,7.273,7.273,0,0,1-1.991.422l-.033,2.243-1.93-.028.034-2.232a8.148,8.148,0,0,1-1.942-.468,5.173,5.173,0,0,1-1.655-1,4.622,4.622,0,0,1-1.14-1.623,5.6,5.6,0,0,1-.4-2.328l3.507.051a3.445,3.445,0,0,0,.205,1.339,2.231,2.231,0,0,0,.588.866,2.168,2.168,0,0,0,.849.463,3.722,3.722,0,0,0,.975.144,3.139,3.139,0,0,0,1-.132,2.09,2.09,0,0,0,.728-.4,1.656,1.656,0,0,0,.445-.608A1.993,1.993,0,0,0,5360.967,1385.483Z" transform="translate(-5352.509 -1370.74)"></path></g></g><g transform="translate(5340.296 1021.001)"><circle class="m" cx="22.329" cy="22.329" r="22.329" transform="translate(0 31.578) rotate(-45)"></circle><g transform="translate(21.981 15.551)"><path class="n" d="M5463.513,1225.661a3.49,3.49,0,0,0-.176-1.21,2.527,2.527,0,0,0-.619-.955,4.8,4.8,0,0,0-1.122-.8,12.6,12.6,0,0,0-1.685-.726,33.2,33.2,0,0,1-3.107-1.31,10.471,10.471,0,0,1-2.384-1.561,6.162,6.162,0,0,1-1.526-2.046,6.962,6.962,0,0,1,.016-5.287,5.839,5.839,0,0,1,1.435-1.97,7.285,7.285,0,0,1,2.207-1.347,9.734,9.734,0,0,1,2.864-.635l.05-3.492,2.811.041-.051,3.54a8.714,8.714,0,0,1,2.728.839,6.591,6.591,0,0,1,3.36,3.892,8.76,8.76,0,0,1,.423,2.952l-5.076-.073a4.276,4.276,0,0,0-.827-2.942,2.97,2.97,0,0,0-2.313-1,3.771,3.771,0,0,0-1.363.2,2.564,2.564,0,0,0-.949.59,2.392,2.392,0,0,0-.558.9,3.514,3.514,0,0,0-.192,1.123,3.193,3.193,0,0,0,.16,1.1,2.375,2.375,0,0,0,.593.914,4.811,4.811,0,0,0,1.13.8,16.259,16.259,0,0,0,1.754.785q1.695.661,3.082,1.35a10.624,10.624,0,0,1,2.375,1.577,5.95,5.95,0,0,1,2.037,4.8,6.346,6.346,0,0,1-.539,2.57,5.753,5.753,0,0,1-1.442,1.954,7.032,7.032,0,0,1-2.223,1.306,10.519,10.519,0,0,1-2.881.611l-.047,3.246-2.793-.041.047-3.23a11.78,11.78,0,0,1-2.81-.677,7.47,7.47,0,0,1-2.395-1.447,6.692,6.692,0,0,1-1.653-2.35,8.154,8.154,0,0,1-.584-3.37l5.077.074a4.993,4.993,0,0,0,.3,1.938,3.241,3.241,0,0,0,.851,1.253,3.15,3.15,0,0,0,1.228.67,5.406,5.406,0,0,0,1.412.208,4.494,4.494,0,0,0,1.452-.191,3,3,0,0,0,1.054-.572,2.414,2.414,0,0,0,.646-.88A2.948,2.948,0,0,0,5463.513,1225.661Z" transform="translate(-5451.269 -1204.323)"></path></g></g><g transform="translate(5296.826 913.162)"><circle class="m" cx="41.513" cy="41.513" r="41.513" transform="translate(0 82.564) rotate(-83.953)"></circle><g transform="translate(27.814 15.859)"><path class="n" d="M5385.22,990.254a6.466,6.466,0,0,0-.328-2.25,4.718,4.718,0,0,0-1.149-1.776,8.92,8.92,0,0,0-2.085-1.487,23.613,23.613,0,0,0-3.131-1.35,61.585,61.585,0,0,1-5.779-2.435,19.475,19.475,0,0,1-4.432-2.9,11.437,11.437,0,0,1-2.834-3.8,12.917,12.917,0,0,1,.027-9.83,10.883,10.883,0,0,1,2.667-3.662,13.58,13.58,0,0,1,4.1-2.5,18.12,18.12,0,0,1,5.325-1.181l.095-6.492,5.225.076-.1,6.582a16.216,16.216,0,0,1,5.072,1.56,12.254,12.254,0,0,1,6.247,7.236,16.28,16.28,0,0,1,.786,5.487l-9.437-.137a7.947,7.947,0,0,0-1.537-5.468,5.522,5.522,0,0,0-4.3-1.868,7.019,7.019,0,0,0-2.537.373,4.765,4.765,0,0,0-1.763,1.1,4.424,4.424,0,0,0-1.037,1.669,6.514,6.514,0,0,0-.357,2.089,5.971,5.971,0,0,0,.3,2.036,4.423,4.423,0,0,0,1.1,1.7,8.926,8.926,0,0,0,2.1,1.487,30.122,30.122,0,0,0,3.261,1.458q3.149,1.229,5.729,2.51a19.739,19.739,0,0,1,4.415,2.931,11.056,11.056,0,0,1,3.789,8.93,11.826,11.826,0,0,1-1,4.779,10.748,10.748,0,0,1-2.683,3.632,13.1,13.1,0,0,1-4.134,2.428,19.551,19.551,0,0,1-5.356,1.135l-.088,6.036-5.191-.075.086-6.006a21.924,21.924,0,0,1-5.223-1.259,13.885,13.885,0,0,1-4.452-2.689,12.438,12.438,0,0,1-3.072-4.368,15.143,15.143,0,0,1-1.084-6.266l9.438.138a9.3,9.3,0,0,0,.551,3.6,6.026,6.026,0,0,0,1.583,2.329,5.851,5.851,0,0,0,2.284,1.247,10.036,10.036,0,0,0,2.624.386,8.365,8.365,0,0,0,2.7-.355,5.575,5.575,0,0,0,1.958-1.064,4.457,4.457,0,0,0,1.2-1.636A5.456,5.456,0,0,0,5385.22,990.254Z" transform="translate(-5362.457 -950.583)"></path></g></g><path class="a" d="M5708.407,1764.572s8.3,5.514,9.565,7.839,4.225,10.883,4.225,10.883-2.113.317-4.225-3.381-9.088-3.381-11.413-5.389-5.028-7.89-5.028-7.89Z" transform="translate(-233.197 -490.595)"></path><path class="a" d="M5703.659,1773.731s1.378,6.494,3.069,8.4,4.015,5.072,4.966,4.226-1.057-7.924-1.057-7.924Z" transform="translate(-234.423 -495.872)"></path><path class="a" d="M5737.581,1784.815c.211.317,7.5,8.065,7.5,8.065s-2.641,1.2-3.381,0S5737.581,1784.815,5737.581,1784.815Z" transform="translate(-253.969 -502.259)"></path></g></svg>