<svg xmlns="http://www.w3.org/2000/svg" width="362.644" height="475.576" viewBox="0 0 362.644 475.576"><defs><style>.a,.c{fill:#67b375;}.b{fill:#94d29d;}.c{opacity:0.5;}.d{fill:#ffb92c;}.e{fill:#ffa400;}.f{fill:#fc8100;}.g{fill:#af6a45;}.h{fill:#99583c;}.i{fill:#0c3563;}.j{fill:#0d458d;}.k{fill:#0b0b35;}.l{fill:#e5f2fd;}.m{fill:#003e7d;}.n{fill:#fff;}.o{fill:#d2e9f9;}.p{fill:#e63888;}.q{fill:#d13784;}</style></defs><g transform="translate(-5406.563 3530.684)"><g transform="translate(5435.26 -3346.637)"><g transform="translate(0 0)"><path class="a" d="M5528.926-2765.174l-25.023-2.153s1.446-15.427-2.956-36c-3.248-15.2-9.688-33.208-22.254-49.888-21.431-28.443-85.087-44.355-85.087-44.355v-3.682l2.289-.248a9.118,9.118,0,0,0-2.289-1.087v-8.7a30.751,30.751,0,0,1,7.234.708,49.436,49.436,0,0,0-7.234-1.3v-4.577c92.212,2.466,122.285,58.165,131.709,101.271A172.6,172.6,0,0,1,5528.926-2765.174Z" transform="translate(-5393.605 2955.078)"></path><path class="b" d="M5638.443-2902.381l-109.518,8.1c-.567-16.868-4.969-34.313-9.227-47.538a224.2,224.2,0,0,0-8.377-22.234c-32.762-71.788-117.717-81.517-117.717-81.517l94.291-38.615c45.551,3.428,77.507,25.3,99.859,52.773C5631.532-2977.618,5638.443-2902.381,5638.443-2902.381Z" transform="translate(-5393.605 3084.189)"></path></g><path class="c" d="M5997.349-2725.932l-109.518,8.1-25.024-2.153s1.447-15.427-2.955-36a148.493,148.493,0,0,1,18.752-9.381q2.888-1.222,5.616-2.48c69.73-32.184,63.235-82.317,62.44-87.113C5990.437-2801.169,5997.349-2725.932,5997.349-2725.932Z" transform="translate(-5752.51 2907.74)"></path><g transform="translate(18.75 5.581)"><path class="a" d="M5692.521-2875.288l-97.6-1.888.344-1.879c.052-.285,5.064-28.9-6.638-61.437a122.49,122.49,0,0,0-33.218-49.562c-19.025-17.321-44.451-30.213-75.571-38.319l-4.794-1.249,76.178-30.316.292-.007c.824-.019,20.444-.315,45.665,11.613a141.6,141.6,0,0,1,40.451,29.036c15.045,15.314,27.7,34.593,37.617,57.3.783,1.744,19.322,43.365,18.342,68.356v.03Zm-93.774-5.062,90.713,1.755.884-15.187c.388-9.983-2.6-24.7-8.654-42.559-4.6-13.568-9.366-24.235-9.413-24.341-9.744-22.312-22.149-41.232-36.877-56.249a138.459,138.459,0,0,0-39.449-28.388,119.447,119.447,0,0,0-37.159-10.9,25.29,25.29,0,0,0-12.211,1.628l-52.795,21.011a3.158,3.158,0,0,0,.208,5.941c25.674,8.267,47.048,20.094,63.676,35.255a125.7,125.7,0,0,1,34.065,50.939,138.755,138.755,0,0,1,7.9,44.083A116.979,116.979,0,0,1,5598.747-2880.351Z" transform="translate(-5475.045 3059.948)"></path></g><path class="a" d="M5996.881-2830.881c0,16.079-9.419,25.794-25.5,25.794s-32.728-9.716-32.728-25.794,8.9-25.694,24.983-25.694S5996.881-2846.959,5996.881-2830.881Z" transform="translate(-5813.171 2908.978)"></path></g><g transform="translate(5588.359 -3276.73)"><g transform="translate(16.362 168.693)"><path class="d" d="M6290.109-2044.11v9.607a3.67,3.67,0,0,1-.634,2.067,3.728,3.728,0,0,1-1.738,1.385,3.452,3.452,0,0,1-.678.19,3.6,3.6,0,0,1-.653.06H6133.376a3.715,3.715,0,0,1-3.7-3.512c0-.063,0-.126,0-.19v-9.607c0-.063,0-.126,0-.19a3.715,3.715,0,0,1,3.7-3.512h153.031a3.625,3.625,0,0,1,.653.059,3.469,3.469,0,0,1,.678.19,3.728,3.728,0,0,1,1.738,1.385A3.67,3.67,0,0,1,6290.109-2044.11Z" transform="translate(-6129.674 2047.812)"></path><path class="e" d="M6214.963-2030.8h-81.984a3.51,3.51,0,0,1-3.3-3.512c0-.063,0-.126,0-.19v-9.607c0-.063,0-.126,0-.19a3.51,3.51,0,0,1,3.3-3.512H6204.9C6206.043-2042.8,6208.721-2035.878,6214.963-2030.8Z" transform="translate(-6129.674 2047.812)"></path><g transform="translate(56.226)"><rect class="e" width="1.739" height="17.013" transform="translate(83.85 0)"></rect><rect class="e" width="1.74" height="17.013" transform="translate(77.962 0)"></rect><rect class="e" width="1.739" height="17.013" transform="translate(70.902 0)"></rect><rect class="e" width="1.739" height="17.013" transform="translate(60.08 0)"></rect><rect class="e" width="1.739" height="17.013" transform="translate(48.637 0)"></rect><rect class="e" width="1.739" height="17.013" transform="translate(31.093 0)"></rect><rect class="e" width="1.74" height="17.013" transform="translate(14.667 0)"></rect><rect class="e" width="1.739" height="17.013" transform="translate(0 0)"></rect><rect class="e" width="1.739" height="17.013" transform="translate(89.454 0)"></rect><rect class="e" width="1.739" height="17.013" transform="translate(93.156 0)"></rect><rect class="e" width="1.739" height="17.013" transform="translate(96.731 0)"></rect><path class="e" d="M6807.475-2047.753v16.894a3.6,3.6,0,0,1-.652.06h-1.087v-17.012h1.087A3.62,3.62,0,0,1,6807.475-2047.753Z" transform="translate(-6706.315 2047.812)"></path><path class="e" d="M6817.973-2045.342v13.742a3.727,3.727,0,0,1-1.737,1.385v-16.513A3.727,3.727,0,0,1,6817.973-2045.342Z" transform="translate(-6714.398 2046.978)"></path></g></g><g transform="translate(0 151.68)"><path class="d" d="M6219.04-2118.006v9.608a3.664,3.664,0,0,1-.634,2.067,3.731,3.731,0,0,1-1.738,1.386,3.469,3.469,0,0,1-.678.19,3.608,3.608,0,0,1-.653.06h-153.03a3.715,3.715,0,0,1-3.7-3.513c0-.063,0-.127,0-.19v-9.608c0-.063,0-.127,0-.19a3.715,3.715,0,0,1,3.7-3.512h153.03c.1,0,.2,0,.293.012.041,0,.083.006.125.013s.092.01.137.018l.1.016a3.4,3.4,0,0,1,.678.191c.033.012.063.025.1.039s.063.026.094.041l.187.09.106.059c.032.019.063.035.094.055.06.035.117.072.174.111s.129.092.19.141.1.075.144.116c0,0,.006,0,.008.008.031.027.063.055.094.084a3.366,3.366,0,0,1,.268.276c.027.029.051.057.074.086s.046.059.071.09c.047.062.094.125.137.189A3.664,3.664,0,0,1,6219.04-2118.006Z" transform="translate(-6058.604 2121.708)"></path><path class="e" d="M6143.894-2104.7H6061.91a3.508,3.508,0,0,1-3.3-3.513c0-.063,0-.127,0-.19v-9.608c0-.063,0-.127,0-.19a3.508,3.508,0,0,1,3.3-3.512h71.915c.032.139.065.278.1.419C6135.126-2116.319,6137.821-2109.632,6143.894-2104.7Z" transform="translate(-6058.604 2121.708)"></path><g transform="translate(56.226)"><rect class="e" width="1.739" height="17.013" transform="translate(83.85 0)"></rect><rect class="e" width="1.739" height="17.013" transform="translate(77.963 0)"></rect><rect class="e" width="1.739" height="17.013" transform="translate(70.903 0)"></rect><rect class="e" width="1.739" height="17.013" transform="translate(60.081 0)"></rect><rect class="e" width="1.739" height="17.013" transform="translate(48.637 0)"></rect><rect class="e" width="1.739" height="17.013" transform="translate(31.094 0)"></rect><rect class="e" width="1.739" height="17.013" transform="translate(14.668 0)"></rect><rect class="e" width="1.739" height="17.013" transform="translate(0 0)"></rect><rect class="e" width="1.74" height="17.013" transform="translate(89.454 0)"></rect><rect class="e" width="1.739" height="17.013" transform="translate(93.156 0)"></rect><rect class="e" width="1.739" height="17.013" transform="translate(96.731 0)"></rect><path class="e" d="M6736.407-2121.65v16.894a3.666,3.666,0,0,1-.653.059h-1.087v-17.012h1.087A3.643,3.643,0,0,1,6736.407-2121.65Z" transform="translate(-6635.246 2121.709)"></path><path class="e" d="M6746.9-2119.24v13.742a3.728,3.728,0,0,1-1.738,1.385v-16.513A3.728,3.728,0,0,1,6746.9-2119.24Z" transform="translate(-6643.328 2120.875)"></path></g></g><g transform="translate(7.907 135.087)"><path class="d" d="M6253.384-2190.079v9.607a3.67,3.67,0,0,1-.634,2.067,3.729,3.729,0,0,1-1.737,1.385,3.45,3.45,0,0,1-.678.191,3.648,3.648,0,0,1-.653.059H6096.65a3.667,3.667,0,0,1-1.707-.419,3.72,3.72,0,0,1-1.979-2.927c-.006-.055-.01-.11-.012-.166s0-.127,0-.19v-9.607c0-.063,0-.127,0-.19a3.716,3.716,0,0,1,3.7-3.513h153.031a3.6,3.6,0,0,1,.653.06,3.465,3.465,0,0,1,.678.19,3.733,3.733,0,0,1,1.737,1.386A3.668,3.668,0,0,1,6253.384-2190.079Z" transform="translate(-6092.948 2193.782)"></path><path class="e" d="M6178.237-2176.769h-81.984a2.994,2.994,0,0,1-1.523-.419,3.745,3.745,0,0,1-1.766-2.927c-.006-.055-.01-.11-.012-.166s0-.127,0-.19v-9.607c0-.063,0-.127,0-.19a3.51,3.51,0,0,1,3.3-3.513h71.917a30.681,30.681,0,0,0,9.564,16.593Q6177.983-2176.977,6178.237-2176.769Z" transform="translate(-6092.948 2193.782)"></path><g transform="translate(56.226)"><rect class="e" width="1.739" height="17.013" transform="translate(83.85 0)"></rect><rect class="e" width="1.739" height="17.013" transform="translate(77.962 0)"></rect><rect class="e" width="1.739" height="17.013" transform="translate(70.902 0)"></rect><rect class="e" width="1.739" height="17.013" transform="translate(60.08 0)"></rect><rect class="e" width="1.739" height="17.013" transform="translate(48.637 0)"></rect><rect class="e" width="1.739" height="17.013" transform="translate(31.093 0)"></rect><rect class="e" width="1.739" height="17.013" transform="translate(14.668 0)"></rect><rect class="e" width="1.739" height="17.013" transform="translate(0 0)"></rect><rect class="e" width="1.739" height="17.013" transform="translate(89.454 0)"></rect><rect class="e" width="1.739" height="17.013" transform="translate(93.156 0)"></rect><rect class="e" width="1.739" height="17.013" transform="translate(96.731 0)"></rect><path class="e" d="M6770.751-2193.723v16.894a3.657,3.657,0,0,1-.653.059h-1.087v-17.012h1.087A3.635,3.635,0,0,1,6770.751-2193.723Z" transform="translate(-6669.59 2193.782)"></path><path class="e" d="M6781.248-2191.312v13.742a3.727,3.727,0,0,1-1.737,1.386V-2192.7A3.721,3.721,0,0,1,6781.248-2191.312Z" transform="translate(-6677.673 2192.948)"></path></g></g><g transform="translate(11.572 118.074)"><path class="d" d="M6269.305-2263.974v9.607a3.67,3.67,0,0,1-.635,2.067,3.727,3.727,0,0,1-1.737,1.385,3.47,3.47,0,0,1-.678.191,3.652,3.652,0,0,1-.653.059H6112.572a3.716,3.716,0,0,1-3.7-3.512c0-.064,0-.127,0-.191v-9.607c0-.063,0-.127,0-.19a3.715,3.715,0,0,1,3.26-3.485,3.367,3.367,0,0,1,.438-.027H6265.6a3.608,3.608,0,0,1,.653.06,3.468,3.468,0,0,1,.678.19,3.73,3.73,0,0,1,1.737,1.386A3.67,3.67,0,0,1,6269.305-2263.974Z" transform="translate(-6108.869 2267.677)"></path><path class="e" d="M6194.159-2250.665h-81.983a3.51,3.51,0,0,1-3.3-3.512c0-.064,0-.127,0-.191v-9.607c0-.063,0-.127,0-.19a3.57,3.57,0,0,1,2.911-3.485,2.675,2.675,0,0,1,.392-.027h71.916c0,.009,0,.019.006.027C6185.249-2262.646,6187.927-2255.734,6194.159-2250.665Z" transform="translate(-6108.869 2267.677)"></path><g transform="translate(56.226)"><rect class="e" width="1.74" height="17.013" transform="translate(83.85 0)"></rect><rect class="e" width="1.739" height="17.013" transform="translate(77.963 0)"></rect><rect class="e" width="1.739" height="17.013" transform="translate(70.903 0)"></rect><rect class="e" width="1.739" height="17.013" transform="translate(60.081 0)"></rect><rect class="e" width="1.739" height="17.013" transform="translate(48.637 0)"></rect><rect class="e" width="1.739" height="17.013" transform="translate(31.094 0)"></rect><rect class="e" width="1.739" height="17.013" transform="translate(14.668 0)"></rect><rect class="e" width="1.74" height="17.013" transform="translate(0 0)"></rect><rect class="e" width="1.739" height="17.013" transform="translate(89.454 0)"></rect><rect class="e" width="1.739" height="17.013" transform="translate(93.157 0)"></rect><rect class="e" width="1.74" height="17.013" transform="translate(96.731 0)"></rect><path class="e" d="M6786.673-2267.62v16.894a3.631,3.631,0,0,1-.653.059h-1.086v-17.012h1.086A3.631,3.631,0,0,1,6786.673-2267.62Z" transform="translate(-6685.512 2267.679)"></path><path class="e" d="M6797.17-2265.209v13.742a3.729,3.729,0,0,1-1.737,1.386v-16.513A3.729,3.729,0,0,1,6797.17-2265.209Z" transform="translate(-6693.595 2266.844)"></path></g></g><g transform="translate(0.321 101.088)"><path class="d" d="M6220.436-2337.754v9.608a3.664,3.664,0,0,1-.635,2.067,3.716,3.716,0,0,1-1.737,1.386,3.446,3.446,0,0,1-.677.191c-.071.012-.144.025-.215.032l-.121.012c-.039,0-.08.006-.12.008-.066,0-.132.006-.2.006H6063.7a3.716,3.716,0,0,1-3.7-3.512c0-.064,0-.127,0-.19v-9.608c0-.063,0-.127,0-.19s.007-.1.011-.156a3.722,3.722,0,0,1,2.775-3.242c.037-.01.075-.019.112-.027a3.68,3.68,0,0,1,.8-.088h153.03c.113,0,.223.006.331.015l.148.016h0c.058.008.115.019.173.029a3.463,3.463,0,0,1,.677.191,3.717,3.717,0,0,1,1.737,1.386A3.664,3.664,0,0,1,6220.436-2337.754Z" transform="translate(-6060 2341.458)"></path><path class="e" d="M6145.29-2324.444h-81.984a3.51,3.51,0,0,1-3.3-3.512c0-.064,0-.127,0-.19v-9.608c0-.063,0-.127,0-.19s.007-.1.011-.156a3.6,3.6,0,0,1,2.564-3.264,1.063,1.063,0,0,1,.142-.033,2.91,2.91,0,0,1,.585-.06h71.916c.009.041.019.08.029.121,1.16,4.99,3.837,11.83,10.006,16.865Z" transform="translate(-6060 2341.458)"></path><g transform="translate(56.227)"><rect class="e" width="1.739" height="17.012" transform="translate(83.85 0.001)"></rect><rect class="e" width="1.739" height="17.012" transform="translate(77.962 0.001)"></rect><rect class="e" width="1.74" height="17.012" transform="translate(70.902 0.001)"></rect><rect class="e" width="1.739" height="17.012" transform="translate(60.08 0.001)"></rect><rect class="e" width="1.739" height="17.012" transform="translate(48.637 0.001)"></rect><rect class="e" width="1.739" height="17.012" transform="translate(31.093 0.001)"></rect><rect class="e" width="1.739" height="17.012" transform="translate(14.667 0.001)"></rect><rect class="e" width="1.739" height="17.012" transform="translate(0 0.001)"></rect><rect class="e" width="1.739" height="17.012" transform="translate(89.454 0.001)"></rect><rect class="e" width="1.739" height="17.012" transform="translate(93.156 0.001)"></rect><rect class="e" width="1.739" height="17.012" transform="translate(96.731 0.001)"></rect><path class="e" d="M6737.8-2341.4v16.894a3.56,3.56,0,0,1-.653.06h-1.086v-17.013h1.086A3.625,3.625,0,0,1,6737.8-2341.4Z" transform="translate(-6636.644 2341.459)"></path><path class="e" d="M6748.3-2338.988v13.741a3.728,3.728,0,0,1-1.737,1.386v-16.513A3.728,3.728,0,0,1,6748.3-2338.988Z" transform="translate(-6644.727 2340.624)"></path></g></g><g transform="translate(0 84.197)"><path class="d" d="M6219.04-2411.124v9.608a3.666,3.666,0,0,1-.634,2.067,3.731,3.731,0,0,1-1.738,1.386,3.356,3.356,0,0,1-.528.16h0c-.049.012-.1.022-.146.031a3.63,3.63,0,0,1-.653.06h-153.03a3.375,3.375,0,0,1-.479-.033,1.637,1.637,0,0,1-.182-.029,3.714,3.714,0,0,1-3.038-3.451c0-.063,0-.127,0-.19v-9.608c0-.063,0-.127,0-.19a3.716,3.716,0,0,1,3.7-3.512h153.03c.1,0,.2,0,.293.012l.125.012c.045,0,.092.01.137.019s.065.01.1.016a3.452,3.452,0,0,1,.678.19c.033.013.063.024.1.039s.063.026.094.041c.064.029.125.059.187.09s.135.074.2.115.117.072.174.111.129.092.19.141.1.075.144.117c0,0,.006,0,.008.008.031.027.063.055.094.084a3.262,3.262,0,0,1,.268.277c.027.029.051.057.074.086l.071.09c.047.061.094.125.137.189A3.664,3.664,0,0,1,6219.04-2411.124Z" transform="translate(-6058.604 2414.827)"></path><path class="e" d="M6143.894-2397.814H6061.91c-.065,0-.131,0-.194-.006s-.142-.012-.211-.022a3.569,3.569,0,0,1-2.9-3.484c0-.063,0-.127,0-.19v-9.608c0-.063,0-.127,0-.19a3.508,3.508,0,0,1,3.3-3.512h71.915c.032.139.065.279.1.42a30.383,30.383,0,0,0,9.822,16.472C6143.8-2397.894,6143.845-2397.855,6143.894-2397.814Z" transform="translate(-6058.604 2414.827)"></path><g transform="translate(56.226 0)"><rect class="e" width="1.739" height="17.012" transform="translate(83.85 0.001)"></rect><rect class="e" width="1.739" height="17.012" transform="translate(77.963 0.001)"></rect><rect class="e" width="1.739" height="17.012" transform="translate(70.903 0.001)"></rect><rect class="e" width="1.739" height="17.012" transform="translate(60.081 0.001)"></rect><rect class="e" width="1.739" height="17.012" transform="translate(48.637 0.001)"></rect><rect class="e" width="1.739" height="17.012" transform="translate(31.094 0.001)"></rect><rect class="e" width="1.739" height="17.012" transform="translate(14.668 0.001)"></rect><rect class="e" width="1.739" height="17.012" transform="translate(0 0.001)"></rect><rect class="e" width="1.74" height="17.012" transform="translate(89.454 0.001)"></rect><rect class="e" width="1.739" height="17.012" transform="translate(93.156 0.001)"></rect><rect class="e" width="1.739" height="17.012" transform="translate(96.731 0.001)"></rect><path class="e" d="M6736.407-2414.766v16.894a3.643,3.643,0,0,1-.653.06h-1.087v-17.013h1.087A3.643,3.643,0,0,1,6736.407-2414.766Z" transform="translate(-6635.246 2414.826)"></path><path class="e" d="M6746.9-2412.354v13.741a3.728,3.728,0,0,1-1.738,1.386v-16.513A3.72,3.72,0,0,1,6746.9-2412.354Z" transform="translate(-6643.328 2413.99)"></path></g></g><g transform="translate(7.907 67.604)"><path class="d" d="M6253.384-2483.2v9.607a3.67,3.67,0,0,1-.634,2.067,3.732,3.732,0,0,1-1.737,1.385,3.484,3.484,0,0,1-.678.191,3.625,3.625,0,0,1-.653.059H6096.65a3.664,3.664,0,0,1-1.707-.42,3.719,3.719,0,0,1-1.979-2.927c-.006-.055-.01-.111-.012-.166s0-.126,0-.19v-9.607c0-.063,0-.127,0-.19a3.716,3.716,0,0,1,3.7-3.512h153.031a3.582,3.582,0,0,1,.653.06,3.45,3.45,0,0,1,.678.19,3.73,3.73,0,0,1,1.737,1.385A3.67,3.67,0,0,1,6253.384-2483.2Z" transform="translate(-6092.948 2486.899)"></path><path class="e" d="M6178.237-2469.886h-81.984a2.992,2.992,0,0,1-1.523-.42,3.744,3.744,0,0,1-1.766-2.927c-.006-.055-.01-.111-.012-.166s0-.126,0-.19v-9.607c0-.063,0-.127,0-.19a3.51,3.51,0,0,1,3.3-3.512h71.917a30.679,30.679,0,0,0,9.564,16.593C6177.9-2470.165,6178.068-2470.026,6178.237-2469.886Z" transform="translate(-6092.948 2486.899)"></path><g transform="translate(56.226 0)"><rect class="e" width="1.739" height="17.012" transform="translate(83.85 0.001)"></rect><rect class="e" width="1.739" height="17.012" transform="translate(77.962 0.001)"></rect><rect class="e" width="1.739" height="17.012" transform="translate(70.902 0.001)"></rect><rect class="e" width="1.739" height="17.012" transform="translate(60.08 0.001)"></rect><rect class="e" width="1.739" height="17.012" transform="translate(48.637 0.001)"></rect><rect class="e" width="1.739" height="17.012" transform="translate(31.093 0.001)"></rect><rect class="e" width="1.739" height="17.012" transform="translate(14.668 0.001)"></rect><rect class="e" width="1.739" height="17.012" transform="translate(0 0.001)"></rect><rect class="e" width="1.739" height="17.012" transform="translate(89.454 0.001)"></rect><rect class="e" width="1.739" height="17.012" transform="translate(93.156 0.001)"></rect><rect class="e" width="1.739" height="17.012" transform="translate(96.731 0.001)"></rect><path class="e" d="M6770.751-2486.838v16.894a3.635,3.635,0,0,1-.653.06h-1.087V-2486.9h1.087A3.635,3.635,0,0,1,6770.751-2486.838Z" transform="translate(-6669.59 2486.898)"></path><path class="e" d="M6781.248-2484.427v13.742a3.72,3.72,0,0,1-1.737,1.385v-16.513A3.719,3.719,0,0,1,6781.248-2484.427Z" transform="translate(-6677.673 2486.063)"></path></g></g><g transform="translate(20.413 50.592)"><path class="d" d="M6307.7-2557.092v9.608a3.668,3.668,0,0,1-.634,2.067,3.726,3.726,0,0,1-1.738,1.386,3.434,3.434,0,0,1-.677.19,3.611,3.611,0,0,1-.653.059H6150.97a3.716,3.716,0,0,1-3.7-3.512c0-.063,0-.127,0-.19v-9.608c0-.063,0-.126,0-.19a3.719,3.719,0,0,1,3.261-3.486,3.425,3.425,0,0,1,.438-.027H6304a3.612,3.612,0,0,1,.653.06,3.451,3.451,0,0,1,.677.19,3.726,3.726,0,0,1,1.738,1.386A3.667,3.667,0,0,1,6307.7-2557.092Z" transform="translate(-6147.268 2560.795)"></path><path class="e" d="M6232.558-2543.782h-81.984a3.51,3.51,0,0,1-3.3-3.512c0-.063,0-.127,0-.19v-9.608c0-.063,0-.126,0-.19a3.572,3.572,0,0,1,2.911-3.486,2.717,2.717,0,0,1,.391-.027h71.917c0,.008,0,.019.006.027C6223.648-2555.762,6226.325-2548.852,6232.558-2543.782Z" transform="translate(-6147.268 2560.795)"></path><g transform="translate(56.227)"><rect class="e" width="1.739" height="17.012" transform="translate(83.849 0.001)"></rect><rect class="e" width="1.739" height="17.012" transform="translate(77.962 0.001)"></rect><rect class="e" width="1.739" height="17.012" transform="translate(70.902 0.001)"></rect><rect class="e" width="1.739" height="17.012" transform="translate(60.08 0.001)"></rect><rect class="e" width="1.739" height="17.012" transform="translate(48.637 0.001)"></rect><rect class="e" width="1.739" height="17.012" transform="translate(31.093 0.001)"></rect><rect class="e" width="1.739" height="17.012" transform="translate(14.667 0.001)"></rect><rect class="e" width="1.739" height="17.012" transform="translate(0 0.001)"></rect><rect class="e" width="1.739" height="17.012" transform="translate(89.453 0.001)"></rect><rect class="e" width="1.739" height="17.012" transform="translate(93.156 0.001)"></rect><rect class="e" width="1.739" height="17.012" transform="translate(96.731 0.001)"></rect><path class="e" d="M6825.072-2560.736v16.894a3.625,3.625,0,0,1-.653.06h-1.087v-17.013h1.087A3.625,3.625,0,0,1,6825.072-2560.736Z" transform="translate(-6723.912 2560.795)"></path><path class="e" d="M6835.569-2558.324v13.742a3.731,3.731,0,0,1-1.737,1.386v-16.513A3.728,3.728,0,0,1,6835.569-2558.324Z" transform="translate(-6731.995 2559.96)"></path></g></g><g transform="translate(0.321 33.606)"><path class="d" d="M6220.436-2630.871v9.607a3.666,3.666,0,0,1-.635,2.068,3.723,3.723,0,0,1-1.737,1.385,3.462,3.462,0,0,1-.677.19c-.071.012-.144.025-.215.033s-.115.012-.173.017l-.085.006c-.06,0-.119,0-.181,0H6063.7a3.716,3.716,0,0,1-3.7-3.512c0-.064,0-.127,0-.191v-9.607c0-.063,0-.127,0-.19a3.716,3.716,0,0,1,3.7-3.512h153.03c.065,0,.131,0,.2.006a3.7,3.7,0,0,1,.456.053,3.462,3.462,0,0,1,.677.19,3.188,3.188,0,0,1,.321.143c.066.033.129.065.19.1a.053.053,0,0,1,.021.012c.063.037.125.076.187.117a.172.172,0,0,1,.03.021,1.755,1.755,0,0,1,.166.121,3.247,3.247,0,0,1,.368.321c.037.035.072.072.1.109a.133.133,0,0,1,.019.02c.022.022.043.045.063.07a.136.136,0,0,0,.013.014c.036.043.073.088.108.135.051.066.1.131.146.2A3.665,3.665,0,0,1,6220.436-2630.871Z" transform="translate(-6060 2634.574)"></path><path class="e" d="M6145.29-2617.562h-81.984a3.51,3.51,0,0,1-3.3-3.512c0-.064,0-.127,0-.191v-9.607c0-.063,0-.127,0-.19a3.51,3.51,0,0,1,3.3-3.512h71.916c.029.129.06.26.095.393a30.327,30.327,0,0,0,9.94,16.593Z" transform="translate(-6060 2634.574)"></path><g transform="translate(56.227)"><rect class="e" width="1.739" height="17.013" transform="translate(83.85 0)"></rect><rect class="e" width="1.739" height="17.013" transform="translate(77.962 0)"></rect><rect class="e" width="1.74" height="17.013" transform="translate(70.902 0)"></rect><rect class="e" width="1.739" height="17.013" transform="translate(60.08 0)"></rect><rect class="e" width="1.739" height="17.013" transform="translate(48.637 0)"></rect><rect class="e" width="1.739" height="17.013" transform="translate(31.093 0)"></rect><rect class="e" width="1.739" height="17.013" transform="translate(14.667 0)"></rect><rect class="e" width="1.739" height="17.013" transform="translate(0 0)"></rect><rect class="e" width="1.739" height="17.013" transform="translate(89.454 0)"></rect><rect class="e" width="1.739" height="17.013" transform="translate(93.156 0)"></rect><rect class="e" width="1.739" height="17.013" transform="translate(96.731 0)"></rect><path class="e" d="M6737.8-2634.514v16.894a3.6,3.6,0,0,1-.653.059h-1.086v-17.012h1.086A3.582,3.582,0,0,1,6737.8-2634.514Z" transform="translate(-6636.644 2634.574)"></path><path class="e" d="M6748.3-2632.1v13.742a3.725,3.725,0,0,1-1.737,1.386v-16.513A3.723,3.723,0,0,1,6748.3-2632.1Z" transform="translate(-6644.727 2633.739)"></path></g></g><g transform="translate(11.572 16.986)"><path class="d" d="M6269.305-2703.059v9.607a3.669,3.669,0,0,1-.635,2.067,3.726,3.726,0,0,1-1.737,1.386,3.469,3.469,0,0,1-.678.19,3.63,3.63,0,0,1-.653.059H6112.572a3.655,3.655,0,0,1-1.654-.393,3.717,3.717,0,0,1-2.035-2.968c0-.049-.008-.1-.01-.151s0-.127,0-.19v-9.607c0-.064,0-.127,0-.19a3.716,3.716,0,0,1,3.26-3.486,3.456,3.456,0,0,1,.438-.027H6265.6a3.607,3.607,0,0,1,.653.059,3.5,3.5,0,0,1,.678.19,3.732,3.732,0,0,1,1.737,1.386A3.671,3.671,0,0,1,6269.305-2703.059Z" transform="translate(-6108.869 2706.762)"></path><path class="e" d="M6194.159-2689.75h-81.983a2.978,2.978,0,0,1-1.476-.393,3.738,3.738,0,0,1-1.816-2.968c0-.049-.008-.1-.01-.151s0-.127,0-.19v-9.607c0-.064,0-.127,0-.19a3.571,3.571,0,0,1,2.911-3.486,2.745,2.745,0,0,1,.392-.027h71.916c0,.008,0,.019.006.027a30.65,30.65,0,0,0,9.591,16.593C6193.842-2690.01,6194-2689.878,6194.159-2689.75Z" transform="translate(-6108.869 2706.762)"></path><g transform="translate(56.226)"><rect class="e" width="1.74" height="17.012" transform="translate(83.85 0.001)"></rect><rect class="e" width="1.739" height="17.012" transform="translate(77.963 0.001)"></rect><rect class="e" width="1.739" height="17.012" transform="translate(70.903 0.001)"></rect><rect class="e" width="1.739" height="17.012" transform="translate(60.081 0.001)"></rect><rect class="e" width="1.739" height="17.012" transform="translate(48.637 0.001)"></rect><rect class="e" width="1.739" height="17.012" transform="translate(31.094 0.001)"></rect><rect class="e" width="1.739" height="17.012" transform="translate(14.668 0.001)"></rect><rect class="e" width="1.74" height="17.012" transform="translate(0 0.001)"></rect><rect class="e" width="1.739" height="17.012" transform="translate(89.454 0.001)"></rect><rect class="e" width="1.739" height="17.012" transform="translate(93.157 0.001)"></rect><rect class="e" width="1.74" height="17.012" transform="translate(96.731 0.001)"></rect><path class="e" d="M6786.673-2706.7v16.893a3.587,3.587,0,0,1-.653.06h-1.086v-17.012h1.086A3.587,3.587,0,0,1,6786.673-2706.7Z" transform="translate(-6685.512 2706.764)"></path><path class="e" d="M6797.17-2704.293v13.742a3.724,3.724,0,0,1-1.737,1.385v-16.513A3.724,3.724,0,0,1,6797.17-2704.293Z" transform="translate(-6693.595 2705.929)"></path></g></g><g transform="translate(0.321 0)"><path class="d" d="M6220.436-2776.84v9.607a3.666,3.666,0,0,1-.635,2.067,3.72,3.72,0,0,1-1.737,1.386,3.479,3.479,0,0,1-.677.19c-.071.012-.144.024-.215.033l-.121.012c-.039,0-.08.006-.12.008-.066,0-.132.006-.2.006H6063.7a3.716,3.716,0,0,1-3.7-3.512c0-.063,0-.127,0-.19v-9.607c0-.063,0-.127,0-.19a3.716,3.716,0,0,1,3.7-3.513h153.03a3.643,3.643,0,0,1,.653.06,3.462,3.462,0,0,1,.677.19,3.721,3.721,0,0,1,1.737,1.386A3.664,3.664,0,0,1,6220.436-2776.84Z" transform="translate(-6060 2780.543)"></path><path class="e" d="M6145.29-2763.53h-81.984a3.51,3.51,0,0,1-3.3-3.512c0-.063,0-.127,0-.19v-9.607c0-.063,0-.127,0-.19a3.51,3.51,0,0,1,3.3-3.513h71.916c1.146,5,3.815,11.91,10.035,16.986Z" transform="translate(-6060 2780.543)"></path><g transform="translate(56.227)"><rect class="e" width="1.739" height="17.013" transform="translate(83.85 0.001)"></rect><rect class="e" width="1.739" height="17.013" transform="translate(77.962 0.001)"></rect><rect class="e" width="1.74" height="17.013" transform="translate(70.902 0.001)"></rect><rect class="e" width="1.739" height="17.013" transform="translate(60.08 0.001)"></rect><rect class="e" width="1.739" height="17.013" transform="translate(48.637 0.001)"></rect><rect class="e" width="1.739" height="17.013" transform="translate(31.093 0.001)"></rect><rect class="e" width="1.739" height="17.013" transform="translate(14.667 0.001)"></rect><rect class="e" width="1.74" height="17.013" transform="translate(0 0)"></rect><rect class="e" width="1.739" height="17.013" transform="translate(89.454 0.001)"></rect><rect class="e" width="1.739" height="17.013" transform="translate(93.156 0.001)"></rect><rect class="e" width="1.739" height="17.013" transform="translate(96.731 0.001)"></rect><path class="e" d="M6737.8-2780.485v16.894a3.6,3.6,0,0,1-.653.06h-1.086v-17.013h1.086A3.625,3.625,0,0,1,6737.8-2780.485Z" transform="translate(-6636.644 2780.544)"></path><path class="e" d="M6748.3-2778.073v13.742a3.728,3.728,0,0,1-1.737,1.386v-16.513A3.725,3.725,0,0,1,6748.3-2778.073Z" transform="translate(-6644.727 2779.709)"></path></g></g></g><g transform="translate(5478.461 -3300.072)"><circle class="f" cx="86.608" cy="86.608" r="86.608" transform="translate(7.555 122.482) rotate(-45)"></circle><circle class="d" cx="86.608" cy="86.608" r="86.608" transform="translate(0 122.482) rotate(-45)"></circle><g transform="translate(43.573 44.597)"><path class="e" d="M5849.424-2530.4a78.4,78.4,0,0,1-55.8-23.112,78.394,78.394,0,0,1-23.112-55.8,78.393,78.393,0,0,1,23.112-55.8,78.393,78.393,0,0,1,55.8-23.112,78.391,78.391,0,0,1,55.8,23.112,78.391,78.391,0,0,1,23.112,55.8,78.392,78.392,0,0,1-23.112,55.8A78.392,78.392,0,0,1,5849.424-2530.4Zm0-153.112a73.716,73.716,0,0,0-52.468,21.733,73.716,73.716,0,0,0-21.733,52.469,73.714,73.714,0,0,0,21.733,52.469,73.714,73.714,0,0,0,52.468,21.733,73.715,73.715,0,0,0,52.469-21.733,73.717,73.717,0,0,0,21.734-52.469,73.719,73.719,0,0,0-21.734-52.469A73.716,73.716,0,0,0,5849.424-2683.516Z" transform="translate(-5770.515 2688.223)"></path></g><g transform="translate(87.923 65.23)"><path class="e" d="M6008.574-2517.423a13.023,13.023,0,0,0-.187-4.582,9.524,9.524,0,0,0-1.937-3.8,17.992,17.992,0,0,0-3.875-3.418,47.41,47.41,0,0,0-6-3.362,124.481,124.481,0,0,1-11.087-6.093,39.283,39.283,0,0,1-8.29-6.747,23.1,23.1,0,0,1-4.9-8.223,23.805,23.805,0,0,1-.843-10.516,23.76,23.76,0,0,1,2.95-9.2,21.928,21.928,0,0,1,6.114-6.793,27.362,27.362,0,0,1,8.755-4.169,36.525,36.525,0,0,1,10.932-1.26l1.543-13.006,10.468,1.242-1.564,13.188a32.74,32.74,0,0,1,9.853,4.189,25.424,25.424,0,0,1,7.094,6.758,25.394,25.394,0,0,1,3.934,9.065,32.948,32.948,0,0,1,.432,11.176l-18.909-2.244q.865-7.292-1.943-11.294a11.15,11.15,0,0,0-8.241-4.645,14.169,14.169,0,0,0-5.168.22,9.6,9.6,0,0,0-3.767,1.832,8.958,8.958,0,0,0-2.429,3.133,13.182,13.182,0,0,0-1.152,4.116,12.07,12.07,0,0,0,.172,4.148,8.91,8.91,0,0,0,1.857,3.642,18,18,0,0,0,3.906,3.421,60.82,60.82,0,0,0,6.24,3.607q6.064,3.123,10.971,6.232a39.759,39.759,0,0,1,8.25,6.8,23.449,23.449,0,0,1,4.893,8.253,23.666,23.666,0,0,1,.849,10.456,23.854,23.854,0,0,1-3,9.381,21.663,21.663,0,0,1-6.14,6.729,26.454,26.454,0,0,1-8.8,4.01,39.432,39.432,0,0,1-10.985,1.161l-1.435,12.094-10.4-1.234,1.428-12.033a44.227,44.227,0,0,1-10.22-3.616,28.025,28.025,0,0,1-8.373-6.325,25.062,25.062,0,0,1-5.253-9.406,30.518,30.518,0,0,1-.871-12.8l18.909,2.244a18.8,18.8,0,0,0,.355,7.345,12.171,12.171,0,0,0,2.69,5,11.793,11.793,0,0,0,4.324,2.978,20.209,20.209,0,0,0,5.185,1.323,16.875,16.875,0,0,0,5.491-.149,11.259,11.259,0,0,0,4.152-1.727,8.966,8.966,0,0,0,2.749-3.033A10.939,10.939,0,0,0,6008.574-2517.423Z" transform="translate(-5963.151 2598.601)"></path></g></g><g transform="translate(5406.563 -3530.683)"><path class="g" d="M5717.248-3347.486l-.017,3.1s.846,9.71-11.112,11.128-21.763,1.235-21.438-6.258c1.077-5.8,3.007-14.808,3.086-19.608a33.7,33.7,0,0,0-.425-5.815l23.17-.462,6.824,1.115Z" transform="translate(-5608.714 3415.889)"></path><path class="h" d="M5723.4-3364.282l-.088,16.8a19.6,19.6,0,0,1-8.352,1.843c-10.648,0-17.531-7.809-21.129-13.476a33.751,33.751,0,0,0-.425-5.815l23.169-.462Z" transform="translate(-5614.783 3415.889)"></path><path class="g" d="M5678.994-3458.927c2.688,14.468,21.356,13.993,29.424,13.083,2.27-.252,3.7-.542,3.7-.542,2.56-.684,3.988-4.716,4.652-10,1.317-10.452-.347-25.8-2.113-29.72-2.657-5.905-7.663-12.292-26.462-7.684S5675.544-3477.464,5678.994-3458.927Z" transform="translate(-5602.142 3506.154)"></path><path class="i" d="M5637.6-2010.716h26.453a63.871,63.871,0,0,0-2.109-9.5,27.006,27.006,0,0,0-1.5-3.811c-2.572-5.136-18.915-1.869-18.915-1.869s-1.517,1.3-2.7,6.267A52.606,52.606,0,0,0,5637.6-2010.716Z" transform="translate(-5576.018 2486.292)"></path><path class="i" d="M5899.245-2043.543c.072,3.6.525,7.005,1.831,8.349H5953.4c-.665-1.893-2.548-4.74-7.92-5.613-6.1-.988-15.619-3.926-21.174-9.8a15.761,15.761,0,0,1-4.1-7.423c-2.462-10.961-20.354,3.358-20.354,3.358A88.662,88.662,0,0,0,5899.245-2043.543Z" transform="translate(-5757.73 2510.77)"></path><path class="j" d="M5725.547-2692.471a82.439,82.439,0,0,1,1.313,9.666c1.664,32.445,27.312,106.631,31.9,108.361,7.1,2.679,18.277-3.015,24.125-4.878a5.016,5.016,0,0,0,3.52-5.7c-12.7-58.392-17.37-142.475-19.068-192.255-.858-25.074-5.162-42.394-5.162-42.394s-62.556-16.691-62.927,4.422C5698.918-2796.563,5719.969-2723.292,5725.547-2692.471Z" transform="translate(-5618.834 3041.222)"></path><path class="i" d="M5725.547-2692.471l41.79-84.8c-.858-25.074-5.162-42.394-5.162-42.394s-62.556-16.691-62.927,4.422C5698.918-2796.563,5719.969-2723.292,5725.547-2692.471Z" transform="translate(-5618.834 3041.222)"></path><path class="j" d="M5671.375-2808.046l-33.069,239.678s-14.522,3.5-25.818.7c0,0-9.681-127.472-8.875-158.289s-6.948-82.461,1.77-88.157S5671.375-2808.046,5671.375-2808.046Z" transform="translate(-5550.743 3034.096)"></path><path class="k" d="M5701.8-3524.405a62.188,62.188,0,0,1-18.035-4.88c-7.922-3.444-17.916.349-21.16,2.058a4.828,4.828,0,0,1,.791-1.952,4.354,4.354,0,0,0-1.671,2.476c-.15.111-.217.187-.179.212a5.583,5.583,0,0,0-2.712.175s.742-.106,1.008.371a.443.443,0,0,0,.119.131c-12.357,5.971-13.5,25.5-9.522,30.019,4.784,5.437,10.521,17.681,10.521,17.681a10.5,10.5,0,0,0,1.222-7.677c-.87-4.784,3.262-4.784,8.481-6.959s.87-8.264,5.437-11.961,21.312-1.522,21.094-4.349C5703.415-3511.322,5701.8-3523.769,5701.8-3524.405Z" transform="translate(-5583.521 3530.683)"></path><path class="l" d="M5675.466-3267.031l7.614,163.364s63.546,1.038,61.732-13.342-22.906-145.019-22.906-145.019l-46.44-5Z" transform="translate(-5602.32 3347.573)"></path><path class="m" d="M5573.438-3188.245c3.781,11.341-3.347,49.4-5.888,62.291-.558,2.727-.93,4.338-.93,4.338,8.8,14.317,41.031,14.132,41.031,14.132,6.2-27.4,9.421-71.03,9.421-71.03l-24.73-108.406-31.115,28.76s2.355,17.541,5.269,35.391C5568.79-3208.637,5571.393-3194.257,5573.438-3188.245Z" transform="translate(-5522.98 3361.385)"></path><path class="n" d="M5774.315-3372.224s.6,1.866,5.314,1.185c0,0,3.954-.572,3.661-2.653A12.828,12.828,0,0,0,5774.315-3372.224Z" transform="translate(-5670.972 3421.83)"></path><path class="m" d="M5802.768-3285.836s9.673,50.192,17.783,103.674c3.654,24.1,6.724,70.745,6.724,71.06,0,.99,11.913-3.335,14.555-16.214,1.462-7.127-1.006-23.821-3.2-41.915,2.081.464,5.081-.722,5.081-.722s46.609-32.6,38.242-48.964c-8.218-16.132-50.639-57.319-52.143-58.776-.008-.041-.014-.068-.014-.068S5816.639-3284.395,5802.768-3285.836Zm34.369,103.325c-1.027-10.334-1.645-20.483-1.092-28.975.3-4.579.317-9.5.144-14.51l.019.012.186.188c9.731,6.135,18.719,11.342,18.719,13.7a.379.379,0,0,1-.062.248C5854.145-3209.186,5841.771-3189.745,5837.137-3182.511Z" transform="translate(-5690.733 3360.633)"></path><g transform="translate(71.344 68.695)"><path class="o" d="M5669.569-3296c-.077-1.559,7.308-3.714,7.308-3.714s8.452,11.719,22.377,11.922c0,0-3.968,7.723-8.645,9.723C5690.609-3278.067,5670.029-3286.74,5669.569-3296Z" transform="translate(-5669.569 3301.575)"></path><g transform="translate(28.634 15.939)"><path class="p" d="M5783.91-3145.376a15.418,15.418,0,0,1-4.911,9.967l-4.431,4.083a2.594,2.594,0,0,1-3.8-.305l-5.489-6.97a9.257,9.257,0,0,1-1.939-6.6c.514-5.274,1.47-15.437,2.235-25.245.624-7.947,1.123-15.668,1.161-20.365.121-15-2.854-62.818-2.854-62.818l3.6.188a192.554,192.554,0,0,1,13.6,43.821,167.027,167.027,0,0,1,2.485,19.689S5785.443-3162.623,5783.91-3145.376Z" transform="translate(-5763.302 3253.634)"></path><path class="q" d="M5783.91-3045.324a15.418,15.418,0,0,1-4.911,9.966l-4.431,4.083a2.594,2.594,0,0,1-3.8-.305l-5.489-6.97a9.257,9.257,0,0,1-1.939-6.6c.514-5.274,1.47-15.437,2.235-25.246,9.936-11.162,13.961-26.587,15.506-39.175a167.024,167.024,0,0,1,2.485,19.69S5785.443-3062.571,5783.91-3045.324Z" transform="translate(-5763.302 3153.582)"></path></g><path class="o" d="M5766.744-3282.462s7.377-4.373,7.4-9.114c0,0,4.764-.6,6.845,1.714,0,0,1.75,8.125-.57,12.844C5780.421-3277.018,5769.8-3278.636,5766.744-3282.462Z" transform="translate(-5737.059 3295.972)"></path><path class="q" d="M5749.4-3269.336l10-2.4a1.515,1.515,0,0,1,1.271,1.743c-.036,1.629-2.817,6.39-4.049,6.771S5747.031-3266.04,5749.4-3269.336Z" transform="translate(-5724.72 3282.144)"></path><path class="l" d="M5673.382-3301.039c-.077-1.559,4.921-4.771,4.921-4.771s9.674,11.307,23.6,11.509c0,0-3.968,7.724-8.645,9.723C5693.257-3284.578,5673.842-3291.78,5673.382-3301.039Z" transform="translate(-5672.216 3305.81)"></path><path class="l" d="M5766.744-3287.907s7.461-3.955,7.486-8.7c0,0,4.5,1.982,6.585,4.292,0,0,1.926,5.129-.394,9.849C5780.421-3282.462,5769.8-3284.081,5766.744-3287.907Z" transform="translate(-5737.059 3299.416)"></path></g><path class="g" d="M5914.724-2913.624a6.878,6.878,0,0,0-7.779-6.882,4.255,4.255,0,0,0-2.889,1.6c-2.833,3.771-5.528,14.744-.508,15.256,2.043.209,4.668-1.225,6.69-2.761,2.054-1.561,4.486-4,4.486-6.584Z" transform="translate(-5758.778 3106.957)"></path><path class="i" d="M5579.529-2980.108c9.111-9.483,24.855-28.139,24.3-43.45-.744-21.445-25.35-53.365-25.35-53.365,2.293,14.132,4.9,28.511,6.942,34.524C5589.2-3031.057,5582.07-2993,5579.529-2980.108Z" transform="translate(-5534.958 3215.539)"></path><path class="g" d="M5577.348-2882.109s6.55,3.275,10.526,1.638,8.655-2.868,13.1,2.192,5.38,8.568,4.445,10.439-11.3,1.17-13.018,0-4.439-4.049-6.164-3.547c-4.759,1.384-8.769-2.248-11.012-5.139C5573.871-2878.271,5577.524-2879.116,5577.348-2882.109Z" transform="translate(-5532.492 3080.238)"></path><path class="m" d="M5505.386-3286.919s-26.088,2.888-32.241,14.249-38.145,57.4-37.1,76.536,43.64,40.59,43.64,40.59,9.434-3.986,9.575-8.275-29.446-29.923-27.652-34.706,34.374-42.618,37.517-55.093S5505.386-3286.919,5505.386-3286.919Z" transform="translate(-5436.023 3361.385)"></path><path class="i" d="M5912.138-3116.556s.062.064.186.188c9.73,6.135,18.719,11.342,18.719,13.7,1.3-4.154-11.343-21.509-15.434-25.041C5911.457-3131.306,5912.138-3116.556,5912.138-3116.556Z" transform="translate(-5766.664 3251.205)"></path><path class="i" d="M5663.446-3305.81s19.805,82.951,16.653,114.2c0,0-7.282-33.392-24.805-60.743,0,0,6.4-5.624,6.048-7.7a21.894,21.894,0,0,0-9.353-.46s.509-35.757,3.381-39.534S5663.446-3305.81,5663.446-3305.81Z" transform="translate(-5586.015 3374.505)"></path><path class="i" d="M5791.245-3296.6c-.269.126,19.627,81.058,21.3,106.963,0,0-1.985-46.227-1.79-59.55,0,0-8.226-4.354-8.226-5.883s8.775-5.659,8.775-5.659-5.557-28.468-8.589-31.605S5791.245-3296.6,5791.245-3296.6Z" transform="translate(-5682.728 3368.111)"></path></g></g></svg>