<svg xmlns="http://www.w3.org/2000/svg" xmlns:xlink="http://www.w3.org/1999/xlink" id="Capa_1" x="0px" y="0px" viewBox="0 0 343.4 333.2" style="enable-background:new 0 0 343.4 333.2;" xml:space="preserve">
<style type="text/css">
	.st0{fill:#00D200;}
	.st1{fill:#FFB93E;}
	.st2{fill:#FFA412;}
	.st3{fill:#004691;}
	.st4{fill:#043F75;}
	.st5{fill:#9BFF00;}
	.st6{fill:#E2810E;}
	.st7{fill:#F6BB9B;}
	.st8{fill:#0E6EB7;}
	.st9{fill:#25BAB5;}
	.st10{fill:#0B0B35;}
	.st11{fill:#D3A18C;}
	.st12{fill:#1DA39C;}
	.st13{fill:#C94C43;}
	.st14{fill:#B23B38;}
	.st15{fill:#009FE3;}
</style>
<g transform="translate(-3438.064 722.027)">
	<g transform="translate(3649.363 -472.321)">
		<g transform="translate(0 0)">
			<g transform="translate(20.309 55.444)">
				<path class="st0" d="M3-16.2c0-0.1,0.3-7-3-8.6l0.2-0.2c1.9,0.8,3.4,2.5,3.9,4.6c0.5,1.8,0.1,2.1,0.1,2.2L3-16.2z"></path>
			</g>
			<g transform="translate(0.991 43.343)">
				<path class="st0" d="M0-22.2c0,0,1.2,9,6.6,11.6s13.2-2.1,13.2-2.1s-1.2-9-6.6-11.6S0-22.2,0-22.2z"></path>
				<g transform="translate(21.488)">
					<path class="st0" d="M0.3,9c-0.7-6-0.1-12,1.8-17.7C3.9-14,4.4-19.6,3.4-25.1h2.2c0,6-0.7,11.9-2.1,17.7C1.4,1.6,5.3,9,4.5,9       L0.3,9z"></path>
				</g>
				<g transform="translate(26.04 3.048)">
					<path class="st0" d="M0.3-18.4c0,0,1.1-6.1,3.9-6.8l0,0c-1.6,0.3-3,1.3-3.8,2.8C-0.2-21.1,0-20.8,0-20.7L0.3-18.4z"></path>
				</g>
			</g>
			<path class="st0" d="M36.4,28.7c-4.2-0.9-6.6-6.8-6.6-6.8s4.5-4.6,8.7-3.7s6.6,6.8,6.6,6.8S40.7,29.5,36.4,28.7z"></path>
			<path class="st1" d="M3.6,9.2C-3.1-1-0.3-14.7,10-21.5c10.2-6.7,23.9-3.9,30.7,6.3c6.7,10.2,3.9,23.9-6.3,30.7c0,0,0,0,0,0     C24.1,22.2,10.4,19.4,3.6,9.2z"></path>
			<g transform="translate(2.107 2.182)">
				<path class="st2" d="M31.3,11.9C22,18,9.4,15.4,3.3,6.1c-6.1-9.3-3.6-21.8,5.8-27.9S30.9-25.3,37-16c2.9,4.5,4,9.9,2.9,15.2      C38.8,4.4,35.7,9,31.3,11.9z M9.7-20.8C1-15-1.4-3.3,4.3,5.5c5.8,8.7,17.5,11.2,26.3,5.4C39.3,5.1,41.8-6.6,36-15.4      C30.2-24.1,18.5-26.5,9.7-20.8z"></path>
			</g>
			<g transform="translate(12.651 8.142)">
				<path class="st2" d="M15.2-7.5c-0.2-0.4-0.4-0.7-0.7-1c-0.3-0.2-0.6-0.4-0.9-0.5c-0.4-0.1-0.9-0.2-1.3-0.2c-0.6,0-1.2,0-1.8,0.1      C9.4-9,8.3-8.9,7.2-8.8c-0.9,0-1.8-0.1-2.7-0.3C3.7-9.3,3-9.7,2.3-10.2C1-11.3,0.2-12.9,0-14.7c0-0.8,0.1-1.6,0.4-2.3      c0.3-0.8,0.7-1.5,1.3-2.1c0.6-0.7,1.4-1.3,2.2-1.8l-1.5-3l2.4-1.2l1.5,3c0.9-0.3,1.8-0.5,2.7-0.5c1.7,0,3.4,0.6,4.6,1.8      c0.7,0.7,1.2,1.5,1.7,2.3l-4.4,2.2c-0.4-0.9-1.1-1.7-2-2.1c-0.8-0.3-1.7-0.2-2.4,0.2C6-18,5.6-17.8,5.3-17.4      c-0.2,0.3-0.4,0.6-0.5,0.9c-0.1,0.3-0.1,0.7-0.1,1c0.1,0.4,0.2,0.7,0.3,1c0.2,0.3,0.4,0.6,0.6,0.9c0.3,0.2,0.6,0.4,0.9,0.5      C7-13,7.4-12.9,7.9-12.9c0.6,0,1.2,0,1.8-0.1c1.2-0.1,2.2-0.2,3.2-0.2c0.9,0,1.8,0.1,2.7,0.3c1.7,0.4,3.1,1.6,3.9,3.2      c0.4,0.8,0.6,1.6,0.7,2.4c0,0.8-0.1,1.6-0.4,2.3c-0.3,0.8-0.8,1.5-1.3,2.1c-0.6,0.7-1.4,1.3-2.2,1.8l1.4,2.8l-2.4,1.2l-1.4-2.8      c-0.9,0.3-1.8,0.6-2.7,0.7c-0.9,0.1-1.8,0.1-2.7-0.2C7.7,0.3,6.8-0.1,6.1-0.7c-0.8-0.7-1.5-1.6-2-2.6l4.4-2.2      C8.7-4.9,9.1-4.4,9.6-4c0.4,0.3,0.8,0.6,1.3,0.7c0.4,0.1,0.9,0.1,1.3,0c0.4-0.1,0.9-0.2,1.3-0.4c0.4-0.2,0.8-0.5,1.2-0.8      c0.3-0.3,0.5-0.6,0.6-1c0.1-0.3,0.2-0.7,0.2-1C15.4-6.9,15.3-7.2,15.2-7.5z"></path>
			</g>
		</g>
		<path class="st3" d="M44.9,50.2L44.9,50.2L44.4,57l-1.6,25.2H12.2l-1.8-24.8l-0.5-6.8l0-0.3L44.9,50.2z"></path>
		<path class="st4" d="M44.9,50.2L44.4,57c-5.5-1.8-11.3-2.8-17.1-2.7c-10.6,0-17,3.1-17,3.1l-0.5-6.8L44.9,50.2z"></path>
		<path class="st3" d="M45.9,53.7H8.7l-0.4-4.3h38.1L45.9,53.7z"></path>
		<path class="st4" d="M43.3,83.5H11.5L11.1,82h32.5L43.3,83.5z"></path>
	</g>
	<g transform="translate(3438.064 -722.027)">
		<g transform="translate(0 0)">
			<g transform="translate(123.588 198.177)">
				<path class="st0" d="M9.1,1.6c0-0.2,1-21.2-9.1-26.1l0.7-0.7c4.7,1.6,9.8,6.6,11.9,13.7C14.1-6.1,13-4.9,13-4.7L9.1,1.6z"></path>
			</g>
			<g transform="translate(106.097 161.719)">
				<path class="st0" d="M0.1-3.6c0,0-1.2,10.8,4.5,15.4s16,1.2,16,1.2s1.2-10.8-4.5-15.4S0.1-3.6,0.1-3.6z"></path>
				<g transform="translate(24.029 0)">
					<path class="st0" d="M0.9,77.5C0.7,76.5-3,51.7,6.4,24.1c9-26.5,4-49,4-49.2H17c0.2,1,0.6,23-6.4,53.3       c-6.4,27.2,5.5,49.4,3,49.4H0.9z"></path>
				</g>
				<g transform="translate(37.744 9.184)">
					<path class="st0" d="M1.1-4.8c0-0.1,3.2-18.3,11.7-20.4l0,0c-4.9,0.8-9.1,3.9-11.3,8.3c-2,3.8-1.3,4.8-1.3,5L1.1-4.8z"></path>
				</g>
			</g>
			<path class="st0" d="M110.8,118c0,0-9.2-13-19.6-16.8c0,0,3.9,30.4-1.8,30.8s-1.9-34.2-1.9-34.2S60.4,82.8,49.4,83.2     c0,0,15.6,30.4,10,29.3S36,80.6,36,80.6s-28.3-7-33.9,9.7s1.3,25.6,5.5,26.9s31.4,2.6,30.5,6s-19.6,8.1-29.7,4.3     c0,0,9.7,28.6,24.6,28.1s20.1-9.5,29.3-9.6s15.8,2.7,11.1,4.9s-20.2-0.4-28,5.5s-14,9.4-0.4,13.1s34.2-0.5,44-7     c0,0,8-0.7,14.3,36.2c2.4,14.2,0.6,35.3,0.6,35.3l5.1-0.8c2.8-41.3-12.1-75.7-12.1-75.7S122,138.9,110.8,118z"></path>
			<path class="st0" d="M193.6,172.6c0,0-30.5-12.8-19.6-36.1c0,0,9.2-14.6,20.3-19.3c0,0-2.4,33.2,3.8,33.3s0.1-37.2,0.1-37.2     s28.6-17.9,40.5-18.1c0,0-15.1,33.9-9.1,32.4s23.4-36,23.4-36s30.3-9.2,37.4,8.5s0.1,27.9-4.4,29.5s-33.9,4.6-32.7,8.4     s21.8,7.6,32.5,2.9c0,0-8.8,31.6-25,31.9s-22.3-9.1-32.4-8.7s-17,3.9-11.7,6s21.9-1.6,30.7,4.3s15.8,9.4,1.2,14.1     s-41.5,5.9-48.2-5L193.6,172.6z"></path>
			<g transform="translate(184.382 132.492)">
				<path class="st5" d="M92.4-25.1c0,0-77.3,35.1-83.2,65.2c0,0,1.9,13-4.5,28.8l0.6,5.7c0,0,6.2-20.4,10.5-23.6      C15.9,50.9-5,27.7,92.4-25.1z"></path>
				<path class="st5" d="M4.7,68.8c0,0-10.3,20.2-0.6,42.3l3.1-1.2c0,0-5.9-24.9-0.9-38.3S4.7,68.8,4.7,68.8z"></path>
			</g>
			<path class="st0" d="M77.4,33.8c12.5,13.3,6,39.7,6,39.7S56.6,78.3,44.1,65c-12.5-13.3-6-39.7-6-39.7S64.9,20.5,77.4,33.8z"></path>
			<path class="st5" d="M77.4,33.8c12.5,13.3,6,39.7,6,39.7L38.1,25.3C38.1,25.3,64.9,20.5,77.4,33.8z"></path>
			<path class="st5" d="M238.5,84.4C232,92,217.3,90,217.3,90s-4.2-14.3,2.4-21.8s21.3-5.5,21.3-5.5S245,76.9,238.5,84.4z"></path>
			<path class="st0" d="M161.4,150.9c-4.4,1.2-9.4-3.3-9.4-3.3s2-6.4,6.4-7.7s9.4,3.3,9.4,3.3S165.8,149.7,161.4,150.9z"></path>
			<path class="st5" d="M84.2,9.1c3,7.1-3.5,16.6-3.5,16.6s-11.3-2-14.3-9.1C63.5,9.5,69.9,0,69.9,0S81.2,2,84.2,9.1z"></path>
			<g transform="translate(44.354)">
				<circle class="st6" cx="100.1" cy="69.2" r="66.7"></circle>
				<circle class="st1" cx="94.3" cy="69.9" r="66.7"></circle>
				<g transform="translate(33.637 35.047)">
					<path class="st2" d="M68.3,95.9c-16,2.1-32.1-2.4-44.8-12.3c-12.8-9.9-21.1-24.4-23-40.4c-2.1-16,2.4-32.1,12.3-44.8       c9.9-12.8,24.4-21.1,40.4-23c16-2.1,32.1,2.4,44.8,12.3c12.8,9.9,21.1,24.4,23,40.4c2.1,16-2.4,32.1-12.3,44.8       C98.9,85.7,84.3,94,68.3,95.9z M53.6-21c-31.3,4-53.4,32.5-49.5,63.8c4,31.3,32.5,53.4,63.8,49.5c31.3-4,53.4-32.5,49.5-63.8       C113.5-2.8,84.9-24.9,53.6-21z"></path>
				</g>
				<g transform="translate(69.47 50.848)">
					<path class="st2" d="M35.4,36.3c0-1.2-0.2-2.4-0.6-3.5c-0.4-1-1-2-1.8-2.7c-1-0.9-2.1-1.7-3.3-2.2c-1.6-0.8-3.2-1.4-4.9-2       c-3.1-1-6.1-2.2-9.1-3.6c-2.5-1.1-4.9-2.6-7-4.4c-1.9-1.6-3.4-3.6-4.5-5.8c-1.1-2.5-1.7-5.2-1.7-8C2.5,1.7,3-0.8,3.9-3.2       c0.9-2.2,2.3-4.2,4-5.8c1.8-1.7,4-3.1,6.3-4c2.6-1.1,5.4-1.8,8.2-2l-0.1-10.1l8.1-0.1l0.1,10.2c2.7,0.3,5.4,1.1,7.9,2.3       c2.3,1.1,4.4,2.6,6.1,4.5c1.7,1.9,3,4.1,3.9,6.5c0.9,2.7,1.4,5.6,1.4,8.5L35.2,7c0-3.8-0.9-6.6-2.6-8.4       c-1.7-1.9-4.2-2.9-6.7-2.8c-1.3,0-2.7,0.2-3.9,0.7c-1,0.4-1.9,1-2.7,1.8C18.6-1,18-0.1,17.7,0.8c-0.3,1.1-0.5,2.2-0.5,3.3       c0,1.1,0.2,2.1,0.5,3.2c0.4,1,1,1.9,1.8,2.6c1,0.9,2.1,1.7,3.3,2.2c1.7,0.8,3.4,1.5,5.1,2.2c3.3,1.2,6.3,2.4,9,3.7       c2.5,1.1,4.8,2.6,7,4.4c1.9,1.6,3.4,3.6,4.5,5.8c1.1,2.5,1.7,5.2,1.7,7.9c0.1,2.6-0.4,5.1-1.4,7.5c-0.9,2.2-2.3,4.1-4,5.7       c-1.9,1.7-4,3-6.3,3.9c-2.7,1-5.4,1.7-8.3,1.9l0.1,9.4L22,64.6L22,55.2c-2.8-0.3-5.5-0.9-8.2-1.8c-2.6-0.9-4.9-2.3-7-4       c-2.1-1.8-3.8-4.1-4.9-6.7c-1.3-3.1-2-6.4-1.9-9.7L14.7,33c0,1.9,0.3,3.8,1,5.6c0.6,1.4,1.4,2.6,2.5,3.6c1,0.9,2.3,1.5,3.6,1.9       c1.3,0.4,2.7,0.5,4.1,0.5c1.4,0,2.8-0.2,4.2-0.6c1.1-0.4,2.1-0.9,3-1.7c0.8-0.7,1.4-1.6,1.8-2.6C35.2,38.5,35.4,37.4,35.4,36.3       z"></path>
				</g>
			</g>
		</g>
		<g transform="translate(87.439 255.686)">
			<path class="st3" d="M110.2-22.9L110.2-22.9l-1.3,20.5l-4.9,75.8H11.6L6.2-1.4L4.7-22l-0.1-0.9L110.2-22.9z"></path>
			<path class="st4" d="M110.2-22.8l-1.3,20.4c-16.6-5.5-34-8.3-51.4-8.2c-31.8,0-51.2,9.3-51.2,9.3L4.7-22L110.2-22.8z"></path>
			<path class="st3" d="M113.4-12.1H1.3L0-25.1h114.8L113.4-12.1z"></path>
			<path class="st4" d="M105.3,77.5H9.6L8.5,73h98L105.3,77.5z"></path>
		</g>
	</g>
	<g transform="translate(3605.719 -655.106)">
		<path class="st7" d="M60.6,90.1c0,0-4.7-0.9-5.8,0s-6.2,6.1-5.1,7.9s6.4-1.4,7.5-1.7s4.2-1.5,4.2-1.5L60.6,90.1z"></path>
		<path class="st8" d="M111,257.7l5.1,1.9c0,0,22.1-30.6,24.8-57.6c0.5-4.6,0.3-9.3-0.7-13.8c0,0,0.2-1.2,0.6-3.4    c0.2-1,0.4-2.2,0.6-3.6c0.7-4.1,1.7-9.7,2.8-16.1c2.6-14.7,6-33.6,8.6-47.4l-1.4-0.4l-14.8-4.8l-3.1-9.7l-11-2.9    c0,0-2.5,4.8-4.7,27.6c-0.4,3-0.8,6.3-1.1,9.9c-1,13.3-0.7,26.7,1,39.9c0.5,4,1.2,8,1.9,12.2c0.6,4,0.7,8.1,0.4,12.1    C119.1,223.5,111,257.7,111,257.7z"></path>
		<path class="st3" d="M116.8,137.3l24,47.6c0.2-1,0.4-2.2,0.6-3.6c0.7-4.1,1.7-9.7,2.8-16.1c2.6-14.7,6-33.6,8.6-47.4l-1.4-0.4    l-14.8-4.8l-3.1-9.7l-11-2.9c0,0-2.5,4.8-4.7,27.6C117.4,130.4,117,133.7,116.8,137.3z"></path>
		<path class="st8" d="M127.3,105.9l0.6-4.8c9.3,2.5,34.1-6.9,34.1-6.9s9,7.9,7.8,26.9c-0.6,9.3-1.6,48.6-2.7,60.2    c-0.4,4.2-0.7,7.2-0.9,8.4c0,0,0,0,0,0c0,0.4,0.1,0.7,0.3,1c1.6,2.7,3,5.6,4.1,8.5c10.8,28.8-1.7,64.2-1.7,64.2l-3.2-1.3    c0,0-7.1-39.4-12.9-56.9c-0.7-2.3-1.6-4.5-2.8-6.7c-2.5-4-4.8-10.7-6.9-18.5c-4-14.9-7.2-34.2-9.3-49.1    C133.4,131.2,127.3,105.9,127.3,105.9z"></path>
		<path class="st7" d="M60.6,90.1l0.7,4.7c0,0,0.3,0,0.8,0c1.7-0.1,5.8-0.3,10.5-0.8c7-0.7,15.3-1.9,18.6-4    c5-3.1,13.3-12.5,18.7-21.9c0.1-0.2,0.3-0.5,0.4-0.7c2.8-5,4.8-10,4.9-13.9c0.1-2.1-0.1-4.3-0.7-6.3c-0.6-2.1-1.5-4-2.8-5.7    c-0.1-0.2-0.3-0.5-0.5-0.7c-1-1.3-2.3-2.3-3.7-3.1c-0.9-0.4-1.9,0.1-3,1.2v0c-1.1,1.2-1.9,2.5-2.7,3.9c0,0-0.1,0.1-0.1,0.1    c-0.2,0.3-0.4,0.7-0.6,1.2c-0.1,0.1-0.1,0.2-0.2,0.3c-0.4,0.9-0.8,1.8-1.3,2.8C95.1,57.4,90,73,85.8,77.7    c-1.8,2-10.1,5.9-16.7,8.8C64.5,88.6,60.6,90.1,60.6,90.1z"></path>
		<path class="st7" d="M109.6,48.2c3.4,1.5,7,2.4,10.7,2.5c16,0.9,19.6-13.1,20.3-22.4c-1.8-0.6-3.6-0.8-5.5-0.7    c-1.1,0.1-2.3,0.2-3.3,0.3c-2-1-5.5-6-7.5-14.3l-0.7,0.3L112,19.4c0,0,1.2,3.8,2.1,7.3c0.7,2.8,1.2,5.5,0.8,6.3    c-0.9,0.4-1.5,0.6-1.5,0.6c0,0,0,0,0,0C111.7,38.4,110.4,43.3,109.6,48.2z"></path>
		<path class="st9" d="M105.6,58.7c0.1,0.3,0.3,0.6,0.4,1c4,8.7,11.5,44.8,11.5,44.8c-1.1,6.5,48.8-1.3,48.9-7.2    c1.8-6.3-6.2-16.3-10.7-21.4c-0.6-0.6-1.1-1.3-1.5-2c-1.1-1.8-1.8-3.8-2-6c-0.9-8.4-0.5-16.2-0.6-21l0,0c-0.9-0.7-1.7-1.3-2.5-1.8    c-1.1-0.8-2.1-1.6-3.1-2.5c-0.8-0.8-1.3-1.8-1.5-2.9c0-0.8,0-1.6,0.1-2.4c0-0.4,0.1-0.8,0.1-1.2c0.5-2.7,1.2-5.3,2.3-7.7    c-4.3-1.7-11.9-0.7-11.9-0.7s0,0.4,0,1.1c0,2.8,0,9.9-0.9,11.3c-1.1,1.7-21.5,9.1-22.6,6.8c-1.1-2.2,1.8-12.8,2-13.2c0,0,0,0,0,0    c-6.8,2.7-9.3,4.9-9.3,4.9C108.3,41.2,102.4,50.3,105.6,58.7z"></path>
		<path class="st10" d="M119.3-16.6c0-0.7,0.6-8.2,11.9-8.5c0,0-5.6,0.7-6.6,3.1c0,0,3.8-3,6.9-2.1s4.9,6.4,4.9,8.2s-1.7,7.5-3.7,8    c-0.8,0.2-1.6,0.2-2.4,0c0.6,0.9,1.1,1.8,1.5,2.7c4.5,9.3-0.1,18.4-4,17.4c-2.5-0.6-3.2,3.6-3.2,3.6L100.9-3.5    C100.9-3.5,109.7-21.7,119.3-16.6z"></path>
		<path class="st11" d="M112,19.4c0,0,1.2,3.7,2.1,7.3c6.7-1.9,8.8-9,9.4-12.8L112,19.4z"></path>
		<path class="st7" d="M110.6,23.4c0,0,16.1-3.7,13.6-13.7s-2.1-17.2-12.5-15.3s-11.4,6.3-11.4,9.8S106.4,24.1,110.6,23.4z"></path>
		<path class="st10" d="M99.5-1.5c1.7-3.6,3.8-3.4,5-2.8c4-4.1,10.4-4.6,15-1.3c1.8,4.2,5,7.6,9.1,9.7c0,0-2.5,2.5-9.7,2.5    c-2.3-0.2-4.6-1-6.4-2.4c2.5,2.5,5.3,4.6,8.4,6.3c-9-1.7-15-12.1-15.6-13.2c-0.8,1.1-2.2,3.5-2.3,5.5c-0.2,2.7,0.8,8.1-0.8,8.3    C102.2,11.1,96.9,3.9,99.5-1.5z"></path>
		<path class="st9" d="M104.2,38.5c0,0-3.9,6.8-4.5,8.5c0,0,5-0.2,7.1,3.7C106.8,50.7,107.3,39.5,104.2,38.5z"></path>
		<path class="st12" d="M130.9,92.3c9.8-0.1,18.2-10.3,23.2-18.5c-1.1-1.8-1.8-3.8-2-6c-0.9-8.4-0.5-16.2-0.6-21l0,0    c-0.9-0.7-1.7-1.3-2.5-1.8c-1.1-0.8-2.1-1.6-3.1-2.5C137.8,56.2,117.6,92.5,130.9,92.3z"></path>
		<path class="st7" d="M93.8,97.7l1.3,4.9c0,0,1.7-0.3,4.4-0.8c0.8-0.2,1.3-0.3,1.3-0.3c2.2-0.4,4.7-1,7.5-1.6h0    c4.8-1.2,10.2-2.5,14.7-4.1c2.7-0.9,5.4-2.1,7.8-3.5c0.2-0.1,0.4-0.2,0.5-0.4c4.5-3.3,9.8-12.9,14-23.2c0.6-1.4,1.1-2.8,1.7-4.2    c1.8-4.8,3.3-9.6,4.4-14.6c0.5-2.3,0.9-4.6,1-7c0.1-0.7,0.1-1.3,0-2c-0.1-11.2-5.6-12.7-5.6-12.7c-0.1,0-0.2-0.1-0.4-0.1    c-1-0.2-2,0.5-3,1.8c-1.7,2.2-3,4.7-4.1,7.3c-2.2,5-4.5,11.4-6.7,17.8c-1.2,3.5-2.3,7-3.5,10.2c-0.7,2-1.3,3.8-1.9,5.5    c-0.9,2.6-2,5.1-3.2,7.5c-0.6,1.1-2.4,2.6-4.7,4.3c-4.9,3.4-10,6.6-15.2,9.5c-2.2,1.2-4.2,2.3-5.9,3.3    C95.6,96.7,93.8,97.7,93.8,97.7z"></path>
		<path class="st9" d="M139.5,37.2c7.4-2,13.1,3.7,13.1,3.7c-0.1-11.1-5.6-12.7-5.6-12.7C144.7,27.4,142.1,31.3,139.5,37.2z"></path>
		<path class="st10" d="M150,266.3h25.6c0.3-2.3,0.1-4.7-0.7-6.9c-1.3-2.8-3.3-4.1-2.8-7.6c-2,2.3-5,3.4-8,3.1    c-0.5,0.7-2.9,4.7-4.4,5.8C158,261.8,150.6,261.4,150,266.3z"></path>
		<path class="st10" d="M95.1,266.3h25.6c0,0,1-4.1-0.7-6.9c-1.5-2.5-0.9-3.9,0.2-5.9c-1.4,0.6-2.8,0.9-4.3,0.8    c-1.4-0.2-2.7-0.6-3.8-1.3c-1.1,1.3-5.8,6.6-7.3,7.7C103.1,261.8,95.6,261.4,95.1,266.3z"></path>
		<path class="st13" d="M92.2,120.5l-6.1-14.8c-0.8-1.9-2.9-2.9-4.9-2.4c-1.9-3.6-4.6-6.7-7.9-9c-3.1-2.2-6.9-3.5-10.7-3.5    c-2,0-3.9,0.4-5.7,1.1c-8.6,3.5-12.5,14.5-9.4,25.2l-0.5,0.2c0,0-1.5-0.1-4-0.1c-7.8,0-25.6,1-38.1,9.7c-0.5,0.6-0.8,1.3-0.8,2.1    c0,0.5,0.1,1,0.3,1.4c0,0,20.1-13,38.6,0.4c1.1,0.8,2.2,1.6,3.3,2.3l1.7,4.1c2.8,6.7,10.5,10,17.3,7.2l17-7l3.5-1.4    C91.8,133.4,94.7,126.5,92.2,120.5z M59.3,108.5l-6.9,2.8c-1.9,0.8-2.9,2.8-2.4,4.7l-0.7,0.3c-2.8-9.8,0.6-19.6,8.3-22.8    c1.1-0.4,2.2-0.7,3.3-0.9c3.7-0.4,7.5,0.5,10.6,2.6c3.4,2.2,6.1,5.2,8,8.7l-1,0.4c-1-1.7-3.2-2.5-5-1.7l-6.9,2.8    c-0.5-1.3-1.8-2.1-3.2-2.1c-0.4,0-0.9,0.1-1.3,0.3l-1,0.4C59.4,104.7,58.6,106.7,59.3,108.5L59.3,108.5z"></path>
		<path class="st14" d="M46.4,133c-1.1-0.7-2.2-1.5-3.3-2.3c-18.5-13.3-38.6-0.4-38.6-0.4c-0.2-0.4-0.3-0.9-0.3-1.4    c2.8-1.8,13.3-8,26.4-5.9C45.8,125.5,48.6,127.7,46.4,133z"></path>
		<path class="st14" d="M85.8,135.9l-3.5,1.4c5.3-2.9-1.3-15.1-5.1-23.2s-9.7-4.4-9.7-4.4c-0.8-1.6-2.4-2.6-4.2-2.6    c0-1.4-0.8-2.7-2.1-3.1l1-0.4c0.4-0.2,0.8-0.3,1.3-0.3c1.4,0,2.6,0.8,3.2,2.1l6.9-2.8c1.9-0.8,4,0,5,1.7l1-0.4    c-1.9-3.5-4.6-6.5-8-8.7c-3.1-2.1-6.9-3-10.6-2.6c0.7-0.5,1.2-1.2,1.7-2c3.8,0.1,7.6,1.3,10.7,3.5c3.3,2.3,6.1,5.4,7.9,9    c2-0.5,4.1,0.5,4.9,2.4l6.1,14.8C94.7,126.5,91.8,133.4,85.8,135.9z"></path>
		<path class="st7" d="M77.8,102.5c2.5,1,5.9,4.7,11.5,2.5c3.3-1.2,6.7-2.3,10.2-3.1c0.8-0.2,1.3-0.3,1.3-0.3l-2.2-6.4    c-0.1,0-0.2,0.1-0.3,0.1c-1.4,0.3-8.7,1.8-12,1.1c-3.8-0.9-10.2,3.7-10.2,3.7S75.4,101.5,77.8,102.5z"></path>
		<path class="st15" d="M8.4,141.1c0-2.3-4.2-9.4-4.2-9.4S0,138.8,0,141.1c0,2.3,1.9,4.2,4.2,4.2C6.5,145.3,8.4,143.4,8.4,141.1    L8.4,141.1z"></path>
	</g>
</g>
</svg>