<svg xmlns="http://www.w3.org/2000/svg" xmlns:xlink="http://www.w3.org/1999/xlink" id="Capa_1" x="0px" y="0px" viewBox="0 0 107.3 71" style="enable-background:new 0 0 107.3 71;" xml:space="preserve">
<style type="text/css">
	.st0{fill:#FFFFFF;}
</style>
<g>
	<path class="st0" d="M20.1,39.2c-0.2-0.2-0.4-0.5-0.4-0.8c0-0.5,0.4-0.9,0.9-0.9l0,0c0.2,0,0.4,0.1,0.5,0.2c1.3,1,2.9,1.5,4.5,1.5   c1.7,0,3-0.9,3-2.3v-0.1c0-1.4-1.7-2-3.6-2.5c-2.2-0.6-4.7-1.4-4.7-4v-0.1c0-2.5,2-4.1,4.9-4.1c1.6,0,3.2,0.4,4.5,1.2   c0.3,0.2,0.5,0.5,0.5,0.9c0,0.5-0.4,0.9-0.9,0.9c-0.2,0-0.3,0-0.5-0.1c-1.1-0.7-2.4-1.1-3.7-1.1c-1.7,0-2.8,0.9-2.8,2.1v0.1   c0,1.4,1.8,1.9,3.7,2.5c2.2,0.7,4.6,1.5,4.6,4.1v0.1c0,2.7-2.2,4.3-5.1,4.3C23.6,40.9,21.7,40.3,20.1,39.2z"></path>
	<path class="st0" d="M33.7,33.6L33.7,33.6c0-4.1,3.3-7.5,7.4-7.5c1.9,0,3.8,0.7,5.2,2.1c0.2,0.2,0.3,0.5,0.3,0.7c0,0.6-0.5,1-1,1   l0,0c-0.3,0-0.5-0.1-0.7-0.2c-1-1.1-2.4-1.7-3.9-1.7c-2.9,0.1-5.2,2.5-5.1,5.4v0.1v0.1C35.7,36.5,38,39,41,39.1h0.1   c1.5,0,2.9-0.7,4-1.7c0.2-0.2,0.4-0.3,0.6-0.3c0.5,0,0.9,0.4,1,1c0,0.2-0.1,0.5-0.3,0.7C45,40.2,43,41.1,41,41   C36.9,41,33.7,37.7,33.7,33.6C33.7,33.7,33.7,33.7,33.7,33.6z"></path>
	<path class="st0" d="M49,33.6L49,33.6c0-4.2,3.3-7.5,7.4-7.5s7.4,3.3,7.5,7.4l0,0v0.1c0,4.1-3.3,7.4-7.4,7.4h-0.1   c-4,0-7.3-3.2-7.4-7.2C49,33.8,49,33.7,49,33.6z M61.7,33.6L61.7,33.6c0.1-3-2.2-5.5-5.2-5.6c0,0,0,0-0.1,0c-2.9,0-5.2,2.4-5.2,5.3   c0,0.1,0,0.1,0,0.2v0.1c-0.1,3,2.2,5.4,5.1,5.5h0.1c2.9,0,5.3-2.4,5.2-5.3C61.7,33.8,61.7,33.7,61.7,33.6z"></path>
	<path class="st0" d="M67.7,27.4c0-0.6,0.5-1.1,1-1.1c0.6,0,1.1,0.5,1.1,1l0,0V30c1-2.4,3.1-3.8,4.9-3.8c0.6,0,1,0.4,1,1v0.1   c0,0.5-0.4,1-0.9,1.1c-2.8,0.3-5,2.4-5,6.5v4.9c0,0.6-0.4,1.1-1,1.1s-1.1-0.4-1.1-1c0,0,0,0,0-0.1V27.4z"></path>
	<path class="st0" d="M84.5,41c-3.9,0-7.1-3.1-7.1-7.1c0-0.1,0-0.2,0-0.4v-0.1c0-4.1,2.9-7.4,6.8-7.4c4.2,0,6.6,3.4,6.6,7.2   c0,0.5-0.4,1-1,1l0,0H79.5c0.1,2.7,2.3,4.8,5,4.8c1.5,0,3-0.6,4.1-1.7c0.4-0.3,0.9-0.3,1.3,0c0.2,0.2,0.2,0.4,0.2,0.6   c0,0.3-0.1,0.5-0.3,0.7C88.5,40.3,86.5,41.1,84.5,41z M88.7,32.8c-0.2-2.6-1.7-4.9-4.5-4.9c-2.5,0-4.4,2.1-4.6,4.9H88.7z"></path>
	<path class="st0" d="M38.9,69.2c-0.8-0.5-1.3-1.3-1.3-2.2c0-1.4,1.1-2.5,2.5-2.5l0,0c0.5,0,1,0.2,1.4,0.4c1.2,0.7,2.5,1.1,3.9,1.1   c3,0,4.6-2.3,5-5.6c-1.4,1.1-3.2,1.7-5,1.7c-5.3,0-8.8-2.9-8.8-7.9v-0.1c0-4.9,3.8-8.6,9.4-8.6c3.3,0,5.2,0.8,7.1,2.7   c1.8,1.8,2.9,4.4,2.9,9.3v0.1c0,8-3.8,13.4-10.7,13.4C43.1,71,40.8,70.4,38.9,69.2z M50.6,54L50.6,54c0-2.2-1.6-3.8-4.3-3.8   s-4.2,1.5-4.2,3.7V54c0,2.2,1.6,3.7,4.3,3.7S50.6,56.1,50.6,54L50.6,54z"></path>
	<path class="st0" d="M59.9,58.3L59.9,58.3c0-7.2,4.4-12.8,10.9-12.8S81.7,51,81.7,58.1v0.1c0,7.1-4.4,12.7-10.9,12.7   S59.9,65.5,59.9,58.3z M76.2,58.3L76.2,58.3c0-4.5-2.2-7.9-5.4-7.9s-5.3,3.3-5.3,7.8v0.1c0,4.5,2.1,7.8,5.4,7.8   S76.2,62.8,76.2,58.3z"></path>
	<path class="st0" d="M85.5,58.3L85.5,58.3c0-7.2,4.4-12.8,10.9-12.8s10.9,5.5,10.9,12.6v0.1c0,7.1-4.4,12.7-10.9,12.7   S85.5,65.5,85.5,58.3z M101.8,58.3L101.8,58.3c0-4.5-2.2-7.9-5.4-7.9S91,53.7,91,58.2v0.1c0,4.5,2.1,7.8,5.4,7.8   S101.8,62.8,101.8,58.3z"></path>
	<path class="st0" d="M22,57.4l1-4c0.2-0.8,1-1.3,1.8-1.1l4,1c0.8,0.2,1.3,1,1.1,1.8l-1,4c-0.2,0.8-1,1.3-1.8,1.1l-4-1   C22.3,59,21.8,58.2,22,57.4z"></path>
	<path class="st0" d="M11,49.7l3.5-3.5c0.6-0.6,1.5-0.6,2.1,0l3.5,3.5c0.6,0.6,0.6,1.5,0,2.1l-3.5,3.5c-0.6,0.6-1.5,0.6-2.1,0   L11,51.8C10.4,51.2,10.4,50.3,11,49.7z"></path>
	<path class="st0" d="M2.6,38.9l5.8-3c0.7-0.4,1.6-0.1,2,0.6l3,5.8c0.4,0.7,0.1,1.6-0.6,2l-5.8,3c-0.7,0.4-1.6,0.1-2-0.6l-3-5.8   C1.6,40.2,1.9,39.3,2.6,38.9z"></path>
	<path class="st0" d="M3.9,21.2l7.3,1.7c0.8,0.2,1.3,1,1.1,1.8L10.6,32c-0.2,0.8-1,1.3-1.8,1.1l-7.3-1.7c-0.8-0.2-1.3-1-1.1-1.8   l1.7-7.3C2.3,21.5,3.1,21,3.9,21.2z"></path>
	<path class="st0" d="M18.4,5.8l4.7,8.2c0.4,0.7,0.2,1.6-0.5,2l-8.2,4.7c-0.7,0.4-1.6,0.2-2-0.5L7.7,12c-0.4-0.7-0.2-1.6,0.5-2   l8.2-4.7C17.1,4.9,18,5.1,18.4,5.8z"></path>
	<path class="st0" d="M42.2,1.5V14c0,0.8-0.7,1.5-1.5,1.5H28.1c-0.8,0-1.5-0.7-1.5-1.5V1.5c0-0.8,0.7-1.5,1.5-1.5h12.6   C41.5,0,42.2,0.7,42.2,1.5z"></path>
</g>
</svg>