<svg xmlns="http://www.w3.org/2000/svg" xmlns:xlink="http://www.w3.org/1999/xlink" id="Capa_1" x="0px" y="0px" viewBox="0 0 58.5 60.6" style="enable-background:new 0 0 58.5 60.6;" xml:space="preserve">
<style type="text/css">
	.st0{fill:#72217B;}
</style>
<g transform="translate(-9 0)">
	<path class="st0" d="M53.6,37.9c-4.9,0-8.8,4-8.8,8.8c0,4.9,4,8.8,8.8,8.8c4.9,0,8.8-4,8.8-8.8l0,0C62.4,41.8,58.4,37.9,53.6,37.9z    M53.6,53.8c-3.9,0-7.1-3.2-7.1-7.1s3.2-7.1,7.1-7.1s7.1,3.2,7.1,7.1l0,0C60.6,50.6,57.4,53.8,53.6,53.8z"></path>
	<path class="st0" d="M53.6,32.8c-1.6,0-3.2,0.3-4.7,0.8v-2c0-1.2-0.5-2.3-1.4-3c0.9-0.7,1.4-1.8,1.4-3v-4.3c0-2.2-1.8-3.9-3.9-3.9   h-7.2v-0.1c0.1-1.5-0.3-2.9-1.3-4l0,0L25.7,1.1c-1.1-1.3-3.1-1.5-4.4-0.3l-0.1,0.1l0,0L10.7,11.7c-2.2,2.1-2.3,5.5-0.2,7.7   c1.9,2,5,2.3,7.2,0.7v6c0,0.5,0.4,0.9,0.9,0.9s0.9-0.4,0.9-0.9l0,0v-6.7c0-0.8-0.6-1.4-1.4-1.4c-0.4,0-0.7,0.1-1,0.4   c-1.5,1.4-3.8,1.3-5.2-0.1s-1.3-3.8,0.1-5.2l0,0l0,0l10.3-11c0.6-0.5,1.4-0.5,1.9,0.1l0,0l0,0L35,14.3c1.3,1.5,1.1,3.8-0.4,5.2   s-3.8,1.1-5.2-0.4L29.3,19c0,0,0,0-0.1-0.1L29,18.6c-0.5-0.6-1.4-0.6-2,0c-0.3,0.3-0.4,0.6-0.4,1v17.3c0,0.7-0.6,1.2-1.2,1.2h-4.7   c-0.7,0-1.2-0.6-1.2-1.2v-6.7c0-0.5-0.4-0.9-0.9-0.9s-0.9,0.4-0.9,0.9l0,0v6.7c0,1.7,1.3,3,3,3h1.6c-0.4,0.6-0.6,1.3-0.6,2.1v4.3   c0,1.2,0.6,2.3,1.5,3.1c-0.9,0.7-1.5,1.9-1.5,3.1v4.3c0,2.2,1.8,3.9,3.9,3.9h19.3c1.1,0,2.1-0.5,2.9-1.3c6.7,3.1,14.7,0.4,18.1-6.2   c0.2-0.4,0.1-1-0.4-1.2c-0.4-0.2-1-0.1-1.2,0.4l0,0c-3.1,5.9-10.5,8.2-16.4,5.1C42,54.3,39.7,47,42.8,41.1s10.5-8.2,16.4-5.1   c4,2.1,6.5,6.2,6.5,10.8c0,0.7-0.1,1.4-0.2,2c-0.1,0.5,0.2,0.9,0.7,1s0.9-0.2,1-0.7c1.3-7.6-3.8-14.8-11.4-16.1   C55.1,32.9,54.3,32.8,53.6,32.8L53.6,32.8z M46.1,58.5c-0.4,0.3-0.8,0.4-1.2,0.4H25.6c-1.2,0-2.2-1-2.2-2.2v-4.3   c0-1.2,1-2.2,2.2-2.2h14.5C41,53.6,43.1,56.6,46.1,58.5z M39.6,46.7c0,0.6,0,1.1,0.1,1.7H25.6c-1.2,0-2.2-1-2.2-2.2v-4.3   c0-0.9,0.6-1.8,1.5-2.1h0.4c0.1,0,0.1,0,0.2,0h0.1h15.9C40.3,41.9,39.6,44.3,39.6,46.7z M47.1,34.4c-1.7,0.9-3.1,2.1-4.3,3.6H28.1   c0.1-0.4,0.2-0.7,0.2-1.1v-7.3c0,0,16.9,0,17.1,0c1,0.2,1.6,1.1,1.6,2.1L47.1,34.4L47.1,34.4z M47.1,25.6c0,1-0.7,1.9-1.6,2.1   c-0.2,0-17.1,0-17.1,0v-7.2c2.1,2.2,5.5,2.3,7.7,0.2c0.5-0.4,0.9-1,1.1-1.5h7.7c1.2,0,2.2,1,2.2,2.2V25.6z"></path>
</g>
</svg>