<svg xmlns="http://www.w3.org/2000/svg" xmlns:xlink="http://www.w3.org/1999/xlink" id="Capa_1" x="0px" y="0px" viewBox="0 0 100 100" style="enable-background:new 0 0 100 100;" xml:space="preserve">
<style type="text/css">
	.st0{fill:#72217B;}
</style>
<g transform="translate(0 -73.028)">
	<path class="st0" d="M84.5,111.5h-4.7C79,104.1,74.8,96,67.5,96h-36c-3.6,0-6.9,2.1-9.2,6c-1.7,2.9-2.7,6.2-3.1,9.5h-3.6   c-1.8,0-3.3,1.5-3.3,3.3v3.8c0,1.8,1.5,3.3,3.3,3.3h0.8c-0.7,1.5-1.1,3.2-1.1,4.9v9.4c-0.8,0.5-1.3,1.4-1.3,2.4v2   c0,1.5,1.2,2.8,2.7,2.9v3.2c0,1.8,1.5,3.3,3.3,3.3h9.7c1.8,0,3.3-1.5,3.3-3.3v-3.2h7.6c0.5,0.5,1.2,0.7,1.9,0.7h14   c0.7,0,1.4-0.3,1.9-0.7H66v3.2c0,1.8,1.5,3.3,3.3,3.3H79c1.8,0,3.3-1.5,3.3-3.3v-3.2c1.5-0.1,2.7-1.4,2.7-2.9v-2   c0-1-0.5-1.9-1.3-2.4v-3.7c0-0.6-0.5-1.1-1.1-1.1s-1.1,0.5-1.1,1.1l0,0v3.2h-23c-0.5-0.5-1.2-0.7-1.9-0.7h-14   c-0.7,0-1.4,0.3-1.9,0.7h-23v-8.9c0-5.2,4.2-9.4,9.4-9.4h4.7l4.3,7.1c1.2,2,3.4,3.2,5.7,3.2h15.4c2.3,0,4.5-1.2,5.7-3.2l4.3-7.1   h4.7c5.2,0,9.4,4.2,9.4,9.4v0.5c0,0.6,0.5,1.1,1.1,1.1s1.1-0.5,1.1-1.1c0.1-1.9-0.3-3.7-1.1-5.4h2c1.8,0,3.3-1.5,3.3-3.3v-3.8   C87.8,113,86.3,111.5,84.5,111.5L84.5,111.5z M15.7,119.6c-0.6,0-1.1-0.5-1.1-1.1v-3.8c0-0.6,0.5-1.1,1.1-1.1h3.4   c0,0.3,0,0.5,0,0.8v3.7c-0.5,0.4-0.9,0.9-1.3,1.4L15.7,119.6L15.7,119.6z M30.8,146.6c0,0.6-0.5,1.1-1.1,1.1h-9.6   c-0.6,0-1.1-0.5-1.1-1.1v-3.2h11.8V146.6z M80.1,146.6c0,0.6-0.5,1.1-1.1,1.1h-9.7c-0.6,0-1.1-0.5-1.1-1.1v-3.2h11.9   C80.1,143.4,80.1,146.6,80.1,146.6z M82.1,137.8L82.1,137.8L82.1,137.8c0.4,0.1,0.6,0.3,0.6,0.7v2c0,0.4-0.3,0.7-0.7,0.7H59.4v-3.4   H82.1z M56.5,137.1c0.4,0,0.7,0.3,0.7,0.7v3.4c0,0.4-0.3,0.7-0.7,0.7h-14c-0.4,0-0.7-0.3-0.7-0.7v-3.4c0-0.4,0.3-0.7,0.7-0.7H56.5   L56.5,137.1z M39.7,137.8v3.4H17c-0.4,0-0.7-0.3-0.7-0.7v-2c0-0.3,0.2-0.6,0.5-0.7l0,0h0.1H39.7z M25,115.3v-0.7   c-0.1-3.3,0.7-6.6,2.4-9.5c1.2-2,2.7-3.2,4.2-3.2h16c0.6,0,1.1-0.5,1.1-1.1s-0.5-1.1-1.1-1.1h-16c-2.2,0-4.4,1.5-6.1,4.2   c-1.8,3.2-2.8,6.9-2.7,10.6v1.4c-0.5,0.2-1,0.4-1.5,0.7v-2.1c-0.1-4,0.9-7.9,2.9-11.4c1.9-3.2,4.5-4.9,7.3-4.9h36   c2.8,0,5.4,1.8,7.3,4.9c2,3.5,3,7.4,2.9,11.4v2.1c-0.5-0.3-1-0.5-1.5-0.7v-1.4c0.1-3.7-0.8-7.4-2.7-10.6c-1.7-2.7-3.8-4.2-6.1-4.2   H52.7c-0.6,0-1.1,0.5-1.1,1.1s0.5,1.1,1.1,1.1h14.8c1.4,0,2.9,1.1,4.2,3.2c1.6,2.9,2.4,6.1,2.4,9.5v0.7c-0.6-0.1-1.3-0.2-2-0.2   c-0.1-5.1-4.3-9.2-9.4-9.2c-5.1,0.1-9.1,4.1-9.2,9.2H27C26.4,115.1,25.7,115.2,25,115.3L25,115.3z M61.1,123.2   c-0.8,1.3-2.3,2.2-3.9,2.2H41.8c-1.6,0-3-0.8-3.9-2.2l-3.6-5.9h30.4L61.1,123.2z M59.4,115.1c0-1.9,1.5-3.4,3.4-3.4   s3.4,1.5,3.4,3.4H59.4z M68.4,115.1c0-3.1-2.5-5.6-5.6-5.6s-5.6,2.5-5.6,5.6h-1.5c0-3.9,3.3-7,7.2-7c3.8,0,6.9,3.1,7,7H68.4z    M85.6,118.6c0,0.6-0.5,1.1-1.1,1.1h-3.3c-0.4-0.5-0.8-1-1.3-1.4v-3.7c0-0.3,0-0.5,0-0.8h4.6c0.6,0,1.1,0.5,1.1,1.1   C85.6,114.8,85.6,118.6,85.6,118.6z"></path>
	<path class="st0" d="M40.8,129.5c-0.6,0-1.1,0.5-1.1,1.1s0.5,1.1,1.1,1.1l0,0h17.5c0.6,0,1.1-0.5,1.1-1.1s-0.5-1.1-1.1-1.1H40.8z"></path>
	<path class="st0" d="M73,121.4c-3,0-5.4,2.4-5.4,5.4s2.4,5.4,5.4,5.4s5.4-2.4,5.4-5.4C78.4,123.8,76,121.4,73,121.4z M73,130   c-1.8,0-3.2-1.4-3.2-3.2s1.4-3.2,3.2-3.2c1.8,0,3.2,1.4,3.2,3.2C76.2,128.5,74.8,130,73,130L73,130z"></path>
	<path class="st0" d="M20.6,126.8c0,3,2.4,5.4,5.4,5.4s5.4-2.4,5.4-5.4c0-3-2.4-5.4-5.4-5.4S20.6,123.8,20.6,126.8z M29.2,126.8   c0,1.8-1.4,3.2-3.2,3.2c-1.8,0-3.2-1.4-3.2-3.2s1.4-3.2,3.2-3.2l0,0C27.8,123.6,29.2,125,29.2,126.8L29.2,126.8L29.2,126.8z"></path>
</g>
</svg>