<svg xmlns="http://www.w3.org/2000/svg" xmlns:xlink="http://www.w3.org/1999/xlink" id="Capa_1" x="0px" y="0px" viewBox="0 0 100 100" style="enable-background:new 0 0 100 100;" xml:space="preserve">
<style type="text/css">
	.st0{fill:#FFFFFF;}
</style>
<g>
	<path class="st0" d="M86.9,81h-4.6V63.6c0-0.6-0.5-1.1-1.1-1.1s-1.1,0.5-1.1,1.1V81h-9.8V42.7h9.8v15.7c0,0.6,0.5,1.1,1.1,1.1   s1.1-0.5,1.1-1.1l0,0V41.6c0-0.6-0.5-1.1-1.1-1.1l0,0h-12c-0.6,0-1.1,0.5-1.1,1.1l0,0V81h-2.6V47.6c0-0.6-0.5-1.1-1.1-1.1l0,0h-12   c-0.6,0-1.1,0.5-1.1,1.1l0,0V81h-2.6V56.6c0-0.6-0.5-1.1-1.1-1.1l0,0h-12c-0.6,0-1.1,0.5-1.1,1.1l0,0V81h-2.6V63.8   c0-0.6-0.5-1.1-1.1-1.1l0,0h-12c-0.6,0-1.1,0.5-1.1,1.1V81h-4.6c-0.6,0-1.1,0.5-1.1,1.1l0,0v4.8c0,0.6,0.5,1.1,1.1,1.1l0,0h12   c0.6,0,1.1-0.5,1.1-1.1s-0.5-1.1-1.1-1.1H14.2v-2.6h71.5v2.6H30.3c-0.6,0-1.1,0.5-1.1,1.1s0.5,1.1,1.1,1.1h56.6   c0.6,0,1.1-0.5,1.1-1.1l0,0v-4.8C88,81.5,87.5,81,86.9,81L86.9,81L86.9,81z M53.5,48.7h9.8V81h-9.8V48.7z M36.7,57.7h9.8V81h-9.8   V57.7z M19.9,64.9h9.8V81h-9.8L19.9,64.9z"></path>
	<path class="st0" d="M18.7,52.6h16.9c1,0,1.9-0.4,2.6-1.1L52,36.4h9.4c0.9,0,1.8-0.4,2.5-1L75.4,24v3.5c0,0.6,0.5,1.1,1.1,1.1h4.8   c0.6,0,1.1-0.5,1.1-1.1v-12c0-1.9-1.6-3.5-3.5-3.5h-12c-0.6,0-1.1,0.5-1.1,1.1v4.8c0,0.6,0.5,1.1,1.1,1.1h3.5L60,29.4h-9.5   c-1,0-1.9,0.4-2.6,1.1L34.1,45.6H31c-0.6,0-1.1,0.5-1.1,1.1s0.5,1.1,1.1,1.1l0,0h3.6c0.3,0,0.6-0.1,0.8-0.4L49.6,32   c0.2-0.3,0.6-0.4,0.9-0.4h10c0.3,0,0.6-0.1,0.8-0.3l12.6-12.6c0.4-0.4,0.4-1.1,0-1.6c-0.2-0.2-0.5-0.3-0.8-0.3H68v-2.6h10.9   c0.7,0,1.3,0.6,1.3,1.3v10.9h-2.6v-5.1c0-0.6-0.5-1.1-1.1-1.1c-0.3,0-0.6,0.1-0.8,0.3L62.4,33.8c-0.2,0.2-0.6,0.4-0.9,0.4h-9.9   c-0.3,0-0.6,0.1-0.8,0.4L36.6,50c-0.2,0.3-0.6,0.4-0.9,0.4H19.8v-2.6h6c0.6,0,1.1-0.5,1.1-1.1s-0.5-1.1-1.1-1.1h-7.1   c-0.6,0-1.1,0.5-1.1,1.1v4.8C17.6,52.1,18.1,52.6,18.7,52.6L18.7,52.6z"></path>
</g>
</svg>