<svg xmlns="http://www.w3.org/2000/svg" xmlns:xlink="http://www.w3.org/1999/xlink" id="Capa_1" x="0px" y="0px" viewBox="0 0 58.3 58.3" style="enable-background:new 0 0 58.3 58.3;" xml:space="preserve">
<style type="text/css">
	.st0{fill:#72217B;}
</style>
<g transform="translate(0 0)">
	<g transform="translate(0 21.91)">
		<path class="st0" d="M57.5,34.7H52V0.9C52,0.4,51.6,0,51.1,0l0,0H42c-0.5,0-0.9,0.4-0.9,0.9l0,0v33.8h-6.5V10.9    c0-0.5-0.4-0.9-0.9-0.9l0,0h-9.1c-0.5,0-0.9,0.4-0.9,0.9l0,0v23.8h-6.5V15.5c0-0.5-0.4-0.9-0.9-0.9l0,0H7.2    c-0.5,0-0.9,0.4-0.9,0.9l0,0v19.2H0.9c-0.5,0-0.9,0.4-0.9,0.9s0.4,0.9,0.9,0.9h56.6c0.5,0,0.9-0.4,0.9-0.9S57.9,34.7,57.5,34.7    L57.5,34.7z M15.5,34.7H8.1V16.3h7.4V34.7L15.5,34.7z M32.9,34.7h-7.4V11.8h7.4V34.7z M50.2,34.7h-7.4v-33h7.4V34.7L50.2,34.7z"></path>
	</g>
	<g transform="translate(0.913 0)">
		<path class="st0" d="M54.7,0.7C54.1,0.2,53.4,0,52.6,0l-7.3,0.9c-1.5,0.2-2.5,1.6-2.3,3s1.5,2.5,2.9,2.3l0.6-0.1    c-7.3,8.4-16.7,14.7-27.2,18.5c-5.4,2-11,3.2-16.8,3.7C1.1,28.4,0,29.6,0,31.1c0.1,1.4,1.2,2.6,2.7,2.6h0.1    c6.2-0.5,12.4-1.8,18.2-4c5.7-2,11.1-4.7,16-8.1c0.4-0.3,0.5-0.8,0.2-1.2c-0.3-0.4-0.8-0.5-1.2-0.2l0,0    c-4.9,3.3-10.1,5.9-15.7,7.9C14.8,30.2,8.8,31.5,2.7,32l0,0c-0.5,0-1-0.4-1-1c0-0.5,0.4-0.9,0.9-1c5.9-0.4,11.7-1.7,17.3-3.8    c11.5-4,21.7-11.2,29.3-20.6c0.3-0.4,0.2-0.9-0.2-1.2c-0.2-0.1-0.4-0.2-0.6-0.2l-2.7,0.3c-0.5,0.1-1-0.3-1.1-0.8s0.3-1,0.8-1.1    l7.3-0.9c0.5-0.1,1,0.3,1.1,0.9v0.1V10c0,0.5-0.4,1-1,1c-0.5,0-1-0.4-1-1V7.8c0-0.5-0.4-0.9-0.9-0.9c-0.3,0-0.5,0.1-0.7,0.3    c-3.2,3.9-6.8,7.4-10.8,10.5c-0.4,0.3-0.5,0.8-0.2,1.2c0.3,0.4,0.8,0.5,1.2,0.2l0,0c3.5-2.7,6.7-5.7,9.6-9    c0.1,1.5,1.3,2.6,2.8,2.6c1.4-0.1,2.6-1.2,2.6-2.7V2.7C55.6,1.9,55.2,1.2,54.7,0.7z"></path>
	</g>
</g>
</svg>