<svg xmlns="http://www.w3.org/2000/svg" xmlns:xlink="http://www.w3.org/1999/xlink" id="Capa_1" x="0px" y="0px" viewBox="0 0 100 100" style="enable-background:new 0 0 100 100;" xml:space="preserve">
<style type="text/css">
	.st0{fill:#FFFFFF;}
</style>
<g transform="translate(-14.375)">
	<g transform="translate(14.375)">
		<path class="st0" d="M85.4,24.7c0-2.8-0.5-5.6-1.4-8.3c-0.3-0.9-1.3-1.4-2.3-1.1c-1.3,0.4-3-0.3-4.7-1.2c-1.7-1-3.6-1.5-5.6-1.7    c-1.9,0.1-3.8,0.7-5.6,1.7c-1.8,0.8-3.4,1.6-4.7,1.2c-0.9-0.3-1.9,0.2-2.3,1.1c-1,2.6-1.4,5.4-1.4,8.3c0,0.4,0,0.8,0,1.2    C41.8,19.6,24,27.1,17.7,42.8c-2.9,7.2-3,15.2-0.2,22.4l-2.2,2.2c-0.8,0.8-0.8,2.2,0,3l16.4,16.4c0.8,0.8,2.2,0.8,3,0l3.2-3.2    c5.3,1.5,10.9,1.5,16.2,0l3.2,3.2c0.8,0.8,2.2,0.8,3,0l6.3-6.3c0.4-0.4,0.4-1.1-0.1-1.6c-0.4-0.4-1.1-0.4-1.5,0l-6.3,6.3L53,79.6    l16.4-16.4l5.7,5.7l-6.5,6.5c-0.4,0.4-0.4,1.1,0.1,1.6c0.4,0.4,1.1,0.4,1.5,0l6.5-6.5c0.8-0.8,0.8-2.2,0-3l-2.2-2.2    c2.7-6.9,2.7-14.5,0.1-21.5C81.6,39.3,85.4,32.6,85.4,24.7L85.4,24.7z M33.2,85.3L16.8,68.9l5.7-5.7l16.4,16.4L33.2,85.3z     M44.5,42.5h2.2l2,2c0.8,0.8,0.8,2.1,0,2.9c0,0,0,0-0.1,0.1c-0.9,0.7-2.1,0.7-2.9-0.1l-7.3-7.3c-0.8-0.8-0.8-2.1,0-2.9    c0.3-0.3,0.7-0.5,1.1-0.6c0,0.1,0,0.1,0,0.2v0.7C39.5,40.3,41.8,42.5,44.5,42.5z M41.7,37.5v-0.7c0-0.3,0.3-0.6,0.6-0.6H48    c0.7,0,1.4,0.4,1.8,1l-3.1,3.1h-2.1C43,40.3,41.7,39.1,41.7,37.5z M45.1,49.8c0.8,0.8,0.8,2.1,0,2.9l0,0c-0.8,0.8-2.1,0.8-2.9,0    L34,44.6l0,0c-0.8-0.8-0.8-2.1,0-2.9c0.8-0.8,2.1-0.8,2.9,0L45.1,49.8z M39.1,52.9c0.8,0.8,0.8,2.1,0,2.9l0,0    c-0.8,0.8-2.1,0.8-2.9,0l-5.3-5.3l-1.4-1.4c-0.8-0.8-0.8-2.1,0-2.9c0.8-0.8,2.1-0.8,2.9,0l0,0L39.1,52.9z M29.3,52l3.6,3.6    c0.8,0.8,0.8,2.1,0,2.9l0,0c-0.8,0.8-2.1,0.8-2.9,0l-3.6-3.6c-0.8-0.8-0.8-2.1,0-2.9C27.2,51.2,28.5,51.2,29.3,52z M31.5,61.3    c2,0,3.7-1.3,4.1-3.3c1.6,0.9,3.7,0.7,5.1-0.7c0.6-0.6,1-1.4,1.2-2.2c0.6,0.2,1.2,0.4,1.8,0.4c2.4,0,4.3-1.9,4.3-4.3    c0-0.4,0-0.7-0.1-1.1c0.9-0.1,1.7-0.5,2.4-1.1c1.7-1.6,1.9-4.3,0.3-6l-0.1-0.1l-1.6-1.6l3.5-3.5c0.8-0.8,2.1-0.8,2.9,0    c0.8,0.8,0.8,2.1,0,2.9l0,0c-0.4,0.4-0.4,1.1,0.1,1.6c0.4,0.4,1.1,0.4,1.5,0c0.8-0.8,2.1-0.8,2.9,0c0.8,0.8,0.8,2.1,0,2.9l0,0l0,0    c-0.4,0.4-0.4,1.1,0,1.6c0.4,0.4,1.1,0.4,1.5,0c0.8-0.8,2.1-0.8,2.9,0s0.8,2.1,0,2.9c-0.4,0.4-0.4,1.1,0.1,1.6    c0.4,0.4,1.1,0.4,1.5,0c0.8-0.8,2.1-0.8,2.9,0c0,0,0,0,0,0.1c0.8,0.8,0.7,2.1-0.1,2.9l-7.9,7.9c-0.4,0.4-0.4,1.1,0.1,1.6    c0.4,0.4,1.1,0.4,1.5,0l1.9-1.9l1.8,1.8L54.2,75.3L47.9,69c0.9-0.3,1.9-0.5,2.8-0.4l2.1,0.1c1.8,0.1,3.7-0.4,5.3-1.3    c0.5-0.3,0.7-1,0.3-1.5c-0.3-0.5-0.9-0.6-1.4-0.4c-1.2,0.7-2.7,1.1-4.1,1l-2.1-0.1c-2.7-0.1-5.4,0.9-7.3,2.9l-5.9,5.9L26.3,63.8    l3.1-3.1C30,61.1,30.7,61.3,31.5,61.3L31.5,61.3z M46,82.6c-2.1,0-4.2-0.2-6.3-0.7l0.8-0.8c0.8-0.8,0.8-2.2,0-3l-1.4-1.4l5.9-5.9    c0.3-0.3,0.6-0.5,0.9-0.7l6.8,6.8L51.4,78c-0.8,0.8-0.8,2.2,0,3l0.8,0.8C50.2,82.4,48.1,82.6,46,82.6L46,82.6z M74.3,54.2    c0,3.1-0.5,6.3-1.5,9.2l-1.9-1.9c-0.8-0.8-2.2-0.8-3,0L67.4,62l-1.8-1.8l4.4-4.4c1.6-1.6,1.7-4.3,0.2-6c-0.8-0.8-1.9-1.3-3-1.3    c-0.1,0-0.2,0-0.3,0c0.1-2.3-1.7-4.4-4-4.5c-0.1,0-0.1,0-0.2,0c-0.1,0-0.1,0-0.2,0c0.1-2.3-1.7-4.4-4-4.5c-0.1,0-0.3,0-0.4,0    c0.1-2.3-1.7-4.4-4-4.5c-0.9,0-1.7,0.2-2.4,0.6c-1.1-1-2.3-1.6-3.7-1.6h-5.6c-0.6,0-1.2,0.2-1.6,0.5c-2.3-0.4-4.5,1.1-5,3.4    c-0.1,0.3-0.1,0.7-0.1,1c-0.1,0-0.1,0-0.2,0c-2.4,0-4.3,1.9-4.3,4.3l0,0c0,0.1,0,0.1,0,0.2c-2.4-0.1-4.4,1.7-4.5,4    c0,0.6,0.1,1.3,0.3,1.9c-2.3,0.5-3.8,2.7-3.4,5c0.2,0.8,0.6,1.6,1.2,2.2l2.8,2.8l-3,3L24,61.7c-0.8-0.8-2.2-0.8-3,0l-1.9,1.9    c-5.1-14.8,2.8-30.9,17.6-36c6.9-2.4,14.4-2,21,1c1.2,7.1,5.6,12.9,12.9,16.6c0.5,0.3,1.2,0.3,1.7,0c0.2-0.1,0.3-0.2,0.5-0.2    C73.8,47.9,74.3,51,74.3,54.2L74.3,54.2z M71.4,43c-3.4-1.7-6.3-4.2-8.5-7.3c-2.2-3.2-3.3-7.1-3.3-11c0-2.4,0.4-4.9,1.2-7.2    c2,0.5,4-0.5,6-1.4c1.4-0.8,3-1.3,4.6-1.5c1.6,0.2,3.2,0.7,4.6,1.5c1.9,0.9,4,1.9,6,1.4c0.8,2.3,1.2,4.8,1.2,7.2    c0.1,3.9-1.1,7.8-3.3,11C77.7,38.8,74.8,41.3,71.4,43L71.4,43z"></path>
		<path class="st0" d="M78.6,27.1c0.6-0.2,1-0.9,0.8-1.5c-1.5-4.9-6.7-7.6-11.6-6.1s-7.6,6.7-6.1,11.6s6.7,7.6,11.6,6.1    c2.6-0.8,4.8-2.8,5.8-5.4c0.2-0.6-0.1-1.3-0.7-1.5s-1.3,0.1-1.5,0.6c-1.4,3.5-5.5,5.3-9,3.8c-3.5-1.4-5.3-5.5-3.8-9    c1.4-3.5,5.5-5.3,9-3.8c1.9,0.8,3.4,2.4,4,4.4C77.3,26.9,77.9,27.2,78.6,27.1L78.6,27.1z"></path>
		<path class="st0" d="M73.5,24.6l-3.6,3.6l-2.5-2.5c-0.5-0.5-1.2-0.5-1.7,0s-0.5,1.2,0,1.7l3.4,3.4c0.5,0.5,1.2,0.5,1.7,0l0,0    l4.4-4.4c0.5-0.5,0.5-1.2,0-1.7C74.7,24.2,74,24.2,73.5,24.6L73.5,24.6z"></path>
	</g>
</g>
</svg>