<svg xmlns="http://www.w3.org/2000/svg" xmlns:xlink="http://www.w3.org/1999/xlink" id="Capa_1" x="0px" y="0px" viewBox="0 0 493.9 261.7" style="enable-background:new 0 0 493.9 261.7;" xml:space="preserve">
<style type="text/css">
	.st0{fill:#009FE3;}
	.st1{fill:#FFB92C;}
	.st2{fill:#FFA400;}
	.st3{fill:#67B375;}
	.st4{fill:#94D29D;}
	.st5{opacity:0.5;fill:#67B375;enable-background:new    ;}
	.st6{fill:#FC8100;}
	.st7{fill:#FFA447;}
	.st8{fill:#FFB96F;}
	.st9{fill:#F46700;}
	.st10{fill:#FFB27B;}
	.st11{fill:#F99156;}
	.st12{fill:#0C3563;}
	.st13{fill:#0D458D;}
	.st14{fill:#E5F2FD;}
	.st15{fill:#003E7D;}
	.st16{fill:#FFFFFF;}
	.st17{fill:#D2E9F9;}
	.st18{fill:#E25345;}
	.st19{fill:#D54B41;}
</style>
<g transform="translate(-703.471 -9826)">
	<path class="st0" d="M1197.4,9829.6l-79.8,26.4l16,13.4l0,0l-69.1,72.3l-60.5-52l-241.6,198h2.1h60.2l178.7-146.4l63.8,54.8   l96.8-101.3l0,0l17.3,14.4L1197.4,9829.6z"></path>
	<g transform="translate(927.737 9951.658)">
		<g transform="translate(11.905 122.743)">
			<path class="st1" d="M116.7,2.7v7c0,0.5-0.2,1.1-0.5,1.5c-0.3,0.5-0.8,0.8-1.3,1c-0.2,0.1-0.3,0.1-0.5,0.1s-0.3,0-0.5,0H2.7     c-1.4,0-2.6-1.1-2.7-2.6V9.6v-7V2.5C0.1,1.1,1.3,0,2.7,0H114c0.3,0,0.7,0.1,1,0.2c0.5,0.2,1,0.6,1.3,1     C116.6,1.6,116.7,2.2,116.7,2.7z"></path>
			<path class="st2" d="M62.1,12.4H2.4C1.1,12.3,0,11.2,0,9.8V9.7v-7V2.6C0,1.2,1,0.1,2.4,0h52.3C55.7,4.8,58.3,9.2,62.1,12.4z"></path>
			<g transform="translate(40.911)">
				<rect x="61" y="0" class="st2" width="1.3" height="12.4"></rect>
				<rect x="56.7" y="0" class="st2" width="1.3" height="12.4"></rect>
				<rect x="51.6" y="0" class="st2" width="1.3" height="12.4"></rect>
				<rect x="43.7" y="0" class="st2" width="1.3" height="12.4"></rect>
				<rect x="35.4" y="0" class="st2" width="1.3" height="12.4"></rect>
				<rect x="22.6" y="0" class="st2" width="1.3" height="12.4"></rect>
				<rect x="10.7" y="0" class="st2" width="1.3" height="12.4"></rect>
				<rect x="0" y="0" class="st2" width="1.3" height="12.4"></rect>
				<rect x="65.1" y="0" class="st2" width="1.3" height="12.4"></rect>
				<rect x="67.8" y="0" class="st2" width="1.3" height="12.4"></rect>
				<rect x="70.4" y="0" class="st2" width="1.3" height="12.4"></rect>
				<path class="st2" d="M73.6,0v12.3c-0.2,0-0.3,0-0.5,0h-0.8V0h0.8C73.3,0,73.4,0,73.6,0z"></path>
				<path class="st2" d="M75.4,1.2v10c-0.3,0.5-0.8,0.8-1.3,1v-12C74.6,0.4,75.1,0.7,75.4,1.2z"></path>
			</g>
		</g>
		<g transform="translate(0 110.364)">
			<path class="st1" d="M116.7,2.7v7c0,0.5-0.2,1.1-0.5,1.5c-0.3,0.5-0.7,0.8-1.3,1c-0.2,0.1-0.3,0.1-0.5,0.1s-0.3,0-0.5,0H2.7     c-1.4,0-2.6-1.1-2.7-2.6V9.6v-7V2.5C0.1,1.1,1.3,0,2.7,0H114c0.1,0,0.1,0,0.2,0h0.1h0.1c0,0,0,0,0.1,0c0.2,0,0.3,0.1,0.5,0.1     c0,0,0,0,0.1,0c0,0,0,0,0.1,0c0,0,0.1,0,0.1,0.1h0.1c0,0,0,0,0.1,0l0.1,0.1l0.1,0.1l0.1,0.1l0,0l0.1,0.1c0.1,0.1,0.1,0.1,0.2,0.2     c0,0,0,0,0.1,0.1c0,0,0,0,0.1,0.1l0.1,0.1C116.6,1.6,116.7,2.2,116.7,2.7z"></path>
			<path class="st2" d="M62.1,12.4H2.4C1.1,12.3,0,11.2,0,9.8V9.7v-7V2.6C0,1.2,1,0.1,2.4,0h52.3c0,0.1,0,0.2,0.1,0.3     C55.8,5,58.4,9.3,62.1,12.4z"></path>
			<g transform="translate(40.911)">
				<rect x="61" y="0" class="st2" width="1.3" height="12.4"></rect>
				<rect x="56.7" y="0" class="st2" width="1.3" height="12.4"></rect>
				<rect x="51.6" y="0" class="st2" width="1.3" height="12.4"></rect>
				<rect x="43.7" y="0" class="st2" width="1.3" height="12.4"></rect>
				<rect x="35.4" y="0" class="st2" width="1.3" height="12.4"></rect>
				<rect x="22.6" y="0" class="st2" width="1.3" height="12.4"></rect>
				<rect x="10.7" y="0" class="st2" width="1.3" height="12.4"></rect>
				<rect x="0" y="0" class="st2" width="1.3" height="12.4"></rect>
				<rect x="65.1" y="0" class="st2" width="1.3" height="12.4"></rect>
				<rect x="67.8" y="0" class="st2" width="1.3" height="12.4"></rect>
				<rect x="70.4" y="0" class="st2" width="1.3" height="12.4"></rect>
				<path class="st2" d="M73.6,0v12.3c-0.2,0-0.3,0-0.5,0h-0.8V0h0.8C73.3,0,73.4,0,73.6,0z"></path>
				<path class="st2" d="M75.4,1.2v10c-0.3,0.5-0.8,0.8-1.3,1v-12C74.6,0.4,75.1,0.7,75.4,1.2z"></path>
			</g>
		</g>
		<g transform="translate(5.753 98.291)">
			<path class="st1" d="M116.7,2.7v7c0,0.5-0.2,1.1-0.5,1.5c-0.3,0.5-0.7,0.8-1.3,1c-0.3,0.1-0.6,0.2-1,0.2H2.7     c-1.4,0-2.5-1.1-2.7-2.4V9.9V9.8v-7V2.7C0.1,1.1,1.3,0,2.7,0H114c0.2,0,0.3,0,0.5,0s0.3,0.1,0.5,0.1c0.5,0.2,1,0.6,1.3,1     C116.6,1.6,116.7,2.2,116.7,2.7z"></path>
			<path class="st2" d="M62.1,12.4H2.4c-0.4,0-0.8-0.1-1.1-0.3C0.6,11.6,0.1,10.8,0,9.9V9.8V9.7v-7V2.6C0,1.2,1,0.1,2.4,0h52.3     c1,4.7,3.4,8.9,7,12.1C61.8,12.2,61.9,12.3,62.1,12.4z"></path>
			<g transform="translate(40.911)">
				<rect x="61" y="0" class="st2" width="1.3" height="12.4"></rect>
				<rect x="56.7" y="0" class="st2" width="1.3" height="12.4"></rect>
				<rect x="51.6" y="0" class="st2" width="1.3" height="12.4"></rect>
				<rect x="43.7" y="0" class="st2" width="1.3" height="12.4"></rect>
				<rect x="35.4" y="0" class="st2" width="1.3" height="12.4"></rect>
				<rect x="22.6" y="0" class="st2" width="1.3" height="12.4"></rect>
				<rect x="10.7" y="0" class="st2" width="1.3" height="12.4"></rect>
				<rect x="0" y="0" class="st2" width="1.3" height="12.4"></rect>
				<rect x="65.1" y="0" class="st2" width="1.3" height="12.4"></rect>
				<rect x="67.8" y="0" class="st2" width="1.3" height="12.4"></rect>
				<rect x="70.4" y="0" class="st2" width="1.3" height="12.4"></rect>
				<path class="st2" d="M73.6,0v12.3c-0.2,0-0.3,0-0.5,0h-0.8V0h0.8C73.3,0,73.4,0,73.6,0z"></path>
				<path class="st2" d="M75.4,1.2v10c-0.3,0.5-0.8,0.8-1.3,1v-12C74.6,0.4,75.1,0.7,75.4,1.2z"></path>
			</g>
		</g>
		<g transform="translate(8.42 85.912)">
			<path class="st1" d="M116.7,2.7v7c0,0.5-0.2,1.1-0.5,1.5c-0.3,0.5-0.7,0.8-1.3,1c-0.2,0.1-0.3,0.1-0.5,0.1s-0.3,0-0.5,0H2.7     c-1.4,0-2.6-1.1-2.7-2.6V9.6v-7V2.5C0.1,1.2,1.1,0.2,2.4,0c0.1,0,0.2,0,0.3,0H114c0.2,0,0.3,0,0.5,0s0.3,0.1,0.5,0.1     c0.5,0.2,1,0.6,1.3,1C116.6,1.6,116.7,2.2,116.7,2.7z"></path>
			<path class="st2" d="M62.1,12.4H2.4C1.1,12.3,0,11.2,0,9.8V9.7v-7V2.6C0,1.3,0.9,0.2,2.1,0c0.1,0,0.2,0,0.3,0h52.3l0,0     C55.7,4.8,58.3,9.2,62.1,12.4z"></path>
			<g transform="translate(40.91)">
				<rect x="61" y="0" class="st2" width="1.3" height="12.4"></rect>
				<rect x="56.7" y="0" class="st2" width="1.3" height="12.4"></rect>
				<rect x="51.6" y="0" class="st2" width="1.3" height="12.4"></rect>
				<rect x="43.7" y="0" class="st2" width="1.3" height="12.4"></rect>
				<rect x="35.4" y="0" class="st2" width="1.3" height="12.4"></rect>
				<rect x="22.6" y="0" class="st2" width="1.3" height="12.4"></rect>
				<rect x="10.7" y="0" class="st2" width="1.3" height="12.4"></rect>
				<rect x="0" y="0" class="st2" width="1.3" height="12.4"></rect>
				<rect x="65.1" y="0" class="st2" width="1.3" height="12.4"></rect>
				<rect x="67.8" y="0" class="st2" width="1.3" height="12.4"></rect>
				<rect x="70.4" y="0" class="st2" width="1.3" height="12.4"></rect>
				<path class="st2" d="M73.6,0v12.3c-0.2,0-0.3,0-0.5,0h-0.8V0h0.8C73.3,0,73.4,0,73.6,0z"></path>
				<path class="st2" d="M75.4,1.2v10c-0.3,0.5-0.8,0.8-1.3,1v-12C74.6,0.4,75.1,0.7,75.4,1.2z"></path>
			</g>
		</g>
		<g transform="translate(0.234 73.553)">
			<path class="st1" d="M116.7,2.7v7c0,0.5-0.2,1.1-0.5,1.5c-0.3,0.5-0.8,0.8-1.3,1c-0.2,0.1-0.3,0.1-0.5,0.1c-0.1,0-0.1,0-0.2,0     h-0.1H114h-0.1H2.7c-1.4,0-2.6-1.1-2.7-2.6V9.6v-7V2.5V2.4C0.1,1.3,0.9,0.3,2,0h0.1c0.2,0,0.4,0,0.6,0H114c0.1,0,0.2,0,0.2,0h0.1     l0,0h0.1c0.2,0,0.3,0.1,0.5,0.1c0.5,0.2,1,0.6,1.3,1C116.6,1.6,116.7,2.2,116.7,2.7z"></path>
			<path class="st2" d="M62.1,12.4H2.4C1.1,12.3,0,11.2,0,9.8V9.7v-7V2.6V2.5c0.1-1.1,0.8-2.1,1.9-2.4H2c0.1,0,0.3,0,0.4,0h52.3v0.1     C55.8,4.9,58.3,9.2,62.1,12.4C62,12.4,62.1,12.4,62.1,12.4z"></path>
			<g transform="translate(40.911)">
				<rect x="61" y="0" class="st2" width="1.3" height="12.4"></rect>
				<rect x="56.7" y="0" class="st2" width="1.3" height="12.4"></rect>
				<rect x="51.6" y="0" class="st2" width="1.3" height="12.4"></rect>
				<rect x="43.7" y="0" class="st2" width="1.3" height="12.4"></rect>
				<rect x="35.4" y="0" class="st2" width="1.3" height="12.4"></rect>
				<rect x="22.6" y="0" class="st2" width="1.3" height="12.4"></rect>
				<rect x="10.7" y="0" class="st2" width="1.3" height="12.4"></rect>
				<rect x="0" y="0" class="st2" width="1.3" height="12.4"></rect>
				<rect x="65.1" y="0" class="st2" width="1.3" height="12.4"></rect>
				<rect x="67.8" y="0" class="st2" width="1.3" height="12.4"></rect>
				<rect x="70.4" y="0" class="st2" width="1.3" height="12.4"></rect>
				<path class="st2" d="M73.6,0v12.3c-0.2,0-0.3,0-0.5,0h-0.8V0h0.8C73.3,0,73.4,0,73.6,0z"></path>
				<path class="st2" d="M75.4,1.2v10c-0.3,0.5-0.7,0.8-1.3,1v-12C74.6,0.4,75.1,0.7,75.4,1.2z"></path>
			</g>
		</g>
		<g transform="translate(0 61.263)">
			<path class="st1" d="M116.7,2.7v7c0,0.5-0.2,1.1-0.5,1.5c-0.4,0.6-1,1-1.6,1.1l0,0h-0.1c-0.2,0-0.3,0-0.5,0H2.7     c-0.1,0-0.2,0-0.3,0H2.3C1,12.1,0.1,11.1,0,9.8V9.7v-7V2.6C0.1,1.1,1.3,0,2.7,0H114c0.1,0,0.1,0,0.2,0h0.1h0.1h0.1     c0.2,0,0.3,0.1,0.5,0.1h0.1c0,0,0,0,0.1,0c0,0,0.1,0,0.1,0.1s0.1,0.1,0.1,0.1l0.1,0.1l0.1,0.1l0.1,0.1l0,0l0.1,0.1     c0.1,0.1,0.1,0.1,0.2,0.2c0,0,0,0,0.1,0.1s0,0,0.1,0.1l0.1,0.1C116.6,1.6,116.7,2.2,116.7,2.7z"></path>
			<path class="st2" d="M62.1,12.4H2.4H2.3c0,0-0.1,0-0.2,0C0.9,12.1,0,11.1,0,9.8V9.7v-7V2.6C0,1.2,1,0.1,2.4,0h52.3     c0,0.1,0,0.2,0.1,0.3c1,4.7,3.5,8.9,7.1,12C62,12.3,62,12.3,62.1,12.4z"></path>
			<g transform="translate(40.911 0)">
				<rect x="61" y="0" class="st2" width="1.3" height="12.4"></rect>
				<rect x="56.7" y="0" class="st2" width="1.3" height="12.4"></rect>
				<rect x="51.6" y="0" class="st2" width="1.3" height="12.4"></rect>
				<rect x="43.7" y="0" class="st2" width="1.3" height="12.4"></rect>
				<rect x="35.4" y="0" class="st2" width="1.3" height="12.4"></rect>
				<rect x="22.6" y="0" class="st2" width="1.3" height="12.4"></rect>
				<rect x="10.7" y="0" class="st2" width="1.3" height="12.4"></rect>
				<rect x="0" y="0" class="st2" width="1.3" height="12.4"></rect>
				<rect x="65.1" y="0" class="st2" width="1.3" height="12.4"></rect>
				<rect x="67.8" y="0" class="st2" width="1.3" height="12.4"></rect>
				<rect x="70.4" y="0" class="st2" width="1.3" height="12.4"></rect>
				<path class="st2" d="M73.6,0v12.3c-0.2,0-0.3,0-0.5,0h-0.8V0h0.8C73.3,0,73.4,0,73.6,0z"></path>
				<path class="st2" d="M75.4,1.2v10c-0.3,0.5-0.8,0.8-1.3,1v-12C74.6,0.4,75.1,0.7,75.4,1.2z"></path>
			</g>
		</g>
		<g transform="translate(5.753 49.19)">
			<path class="st1" d="M116.7,2.7v7c0,0.5-0.2,1.1-0.5,1.5c-0.3,0.5-0.7,0.8-1.3,1c-0.3,0.1-0.6,0.2-1,0.2H2.7     c-1.4,0-2.5-1.1-2.7-2.4V9.9V9.8v-7V2.7C0.1,1.1,1.3,0,2.7,0H114c0.3,0,0.7,0.1,1,0.2c0.5,0.2,1,0.6,1.3,1     C116.6,1.6,116.7,2.2,116.7,2.7z"></path>
			<path class="st2" d="M62.1,12.4H2.4c-0.4,0-0.8-0.1-1.1-0.3C0.6,11.6,0.1,10.8,0,9.9V9.8V9.7v-7V2.6C0,1.2,1,0.1,2.4,0h52.3     c1,4.7,3.4,8.9,7,12.1C61.8,12.2,61.9,12.3,62.1,12.4z"></path>
			<g transform="translate(40.911 0)">
				<rect x="61" y="0" class="st2" width="1.3" height="12.4"></rect>
				<rect x="56.7" y="0" class="st2" width="1.3" height="12.4"></rect>
				<rect x="51.6" y="0" class="st2" width="1.3" height="12.4"></rect>
				<rect x="43.7" y="0" class="st2" width="1.3" height="12.4"></rect>
				<rect x="35.4" y="0" class="st2" width="1.3" height="12.4"></rect>
				<rect x="22.6" y="0" class="st2" width="1.3" height="12.4"></rect>
				<rect x="10.7" y="0" class="st2" width="1.3" height="12.4"></rect>
				<rect x="0" y="0" class="st2" width="1.3" height="12.4"></rect>
				<rect x="65.1" y="0" class="st2" width="1.3" height="12.4"></rect>
				<rect x="67.8" y="0" class="st2" width="1.3" height="12.4"></rect>
				<rect x="70.4" y="0" class="st2" width="1.3" height="12.4"></rect>
				<path class="st2" d="M73.6,0v12.3c-0.2,0-0.3,0-0.5,0h-0.8V0h0.8C73.3,0,73.4,0,73.6,0z"></path>
				<path class="st2" d="M75.4,1.2v10c-0.3,0.5-0.7,0.8-1.3,1v-12C74.6,0.4,75.1,0.7,75.4,1.2z"></path>
			</g>
		</g>
		<g transform="translate(14.852 36.811)">
			<path class="st1" d="M116.7,2.7v7c0,1.1-0.7,2.1-1.7,2.5c-0.2,0.1-0.3,0.1-0.5,0.1s-0.3,0-0.5,0H2.7c-1.4,0-2.6-1.1-2.7-2.6V9.6     v-7V2.5C0.1,1.2,1.1,0.2,2.4,0c0.1,0,0.2,0,0.3,0H114c0.2,0,0.3,0,0.5,0s0.3,0.1,0.5,0.1c0.5,0.2,1,0.6,1.3,1     C116.6,1.6,116.7,2.2,116.7,2.7z"></path>
			<path class="st2" d="M62.1,12.4H2.4C1.1,12.3,0,11.2,0,9.8V9.7v-7V2.6C0,1.3,0.9,0.2,2.1,0c0.1,0,0.2,0,0.3,0h52.3l0,0     C55.7,4.8,58.3,9.2,62.1,12.4z"></path>
			<g transform="translate(40.911)">
				<rect x="61" y="0" class="st2" width="1.3" height="12.4"></rect>
				<rect x="56.7" y="0" class="st2" width="1.3" height="12.4"></rect>
				<rect x="51.6" y="0" class="st2" width="1.3" height="12.4"></rect>
				<rect x="43.7" y="0" class="st2" width="1.3" height="12.4"></rect>
				<rect x="35.4" y="0" class="st2" width="1.3" height="12.4"></rect>
				<rect x="22.6" y="0" class="st2" width="1.3" height="12.4"></rect>
				<rect x="10.7" y="0" class="st2" width="1.3" height="12.4"></rect>
				<rect x="0" y="0" class="st2" width="1.3" height="12.4"></rect>
				<rect x="65.1" y="0" class="st2" width="1.3" height="12.4"></rect>
				<rect x="67.8" y="0" class="st2" width="1.3" height="12.4"></rect>
				<rect x="70.4" y="0" class="st2" width="1.3" height="12.4"></rect>
				<path class="st2" d="M73.6,0v12.3c-0.2,0-0.3,0-0.5,0h-0.8V0h0.8C73.3,0,73.4,0,73.6,0z"></path>
				<path class="st2" d="M75.4,1.2v10c-0.3,0.5-0.7,0.8-1.3,1v-12C74.6,0.4,75.1,0.7,75.4,1.2z"></path>
			</g>
		</g>
		<g transform="translate(0.234 24.452)">
			<path class="st1" d="M116.7,2.7v7c0,0.5-0.2,1.1-0.5,1.5c-0.3,0.5-0.8,0.8-1.3,1c-0.2,0.1-0.3,0.1-0.5,0.1c-0.1,0-0.1,0-0.2,0     h-0.1H114H2.7c-1.4,0-2.6-1.1-2.7-2.6V9.6v-7V2.5C0.1,1.1,1.3,0,2.7,0H114h0.1c0.1,0,0.2,0,0.3,0c0.2,0,0.3,0.1,0.5,0.1     c0.1,0,0.2,0.1,0.2,0.1s0.1,0,0.1,0.1l0,0l0.1,0.1l0,0l0.1,0.1c0.1,0.1,0.2,0.1,0.3,0.2l0.1,0.1l0,0l0,0l0,0l0.1,0.1L116,1     C116.6,1.6,116.7,2.2,116.7,2.7z"></path>
			<path class="st2" d="M62.1,12.4H2.4C1.1,12.3,0,11.2,0,9.8V9.7v-7V2.6C0,1.2,1,0.1,2.4,0h52.3c0,0.1,0,0.2,0.1,0.3     C55.8,5,58.4,9.2,62.1,12.4C62,12.4,62.1,12.4,62.1,12.4z"></path>
			<g transform="translate(40.911)">
				<rect x="61" y="0" class="st2" width="1.3" height="12.4"></rect>
				<rect x="56.7" y="0" class="st2" width="1.3" height="12.4"></rect>
				<rect x="51.6" y="0" class="st2" width="1.3" height="12.4"></rect>
				<rect x="43.7" y="0" class="st2" width="1.3" height="12.4"></rect>
				<rect x="35.4" y="0" class="st2" width="1.3" height="12.4"></rect>
				<rect x="22.6" y="0" class="st2" width="1.3" height="12.4"></rect>
				<rect x="10.7" y="0" class="st2" width="1.3" height="12.4"></rect>
				<rect x="0" y="0" class="st2" width="1.3" height="12.4"></rect>
				<rect x="65.1" y="0" class="st2" width="1.3" height="12.4"></rect>
				<rect x="67.8" y="0" class="st2" width="1.3" height="12.4"></rect>
				<rect x="70.4" y="0" class="st2" width="1.3" height="12.4"></rect>
				<path class="st2" d="M73.6,0v12.3c-0.2,0-0.3,0-0.5,0h-0.8V0h0.8C73.3,0,73.4,0,73.6,0z"></path>
				<path class="st2" d="M75.4,1.2v10c-0.3,0.5-0.7,0.8-1.3,1v-12C74.6,0.4,75.1,0.7,75.4,1.2z"></path>
			</g>
		</g>
		<g transform="translate(8.42 12.359)">
			<path class="st1" d="M116.7,2.7v7c0,0.5-0.2,1.1-0.5,1.5c-0.3,0.5-0.8,0.8-1.3,1c-0.2,0.1-0.3,0.1-0.5,0.1s-0.3,0-0.5,0H2.7     c-0.4,0-0.8-0.1-1.2-0.3C0.7,11.7,0.1,10.9,0,9.9V9.8V9.7v-7V2.6C0.1,1.2,1.1,0.2,2.4,0c0.1,0,0.2,0,0.3,0H114c0.2,0,0.3,0,0.5,0     s0.3,0.1,0.5,0.1c0.5,0.2,1,0.6,1.3,1C116.6,1.6,116.7,2.2,116.7,2.7z"></path>
			<path class="st2" d="M62.1,12.4H2.4c-0.4,0-0.7-0.1-1.1-0.3C0.6,11.6,0.1,10.8,0,9.9V9.8V9.7v-7V2.6C0,1.3,0.9,0.2,2.1,0     c0.1,0,0.2,0,0.3,0h52.3l0,0c1,4.7,3.4,8.9,7,12.1C61.8,12.2,61.9,12.3,62.1,12.4z"></path>
			<g transform="translate(40.91)">
				<rect x="61" y="0" class="st2" width="1.3" height="12.4"></rect>
				<rect x="56.7" y="0" class="st2" width="1.3" height="12.4"></rect>
				<rect x="51.6" y="0" class="st2" width="1.3" height="12.4"></rect>
				<rect x="43.7" y="0" class="st2" width="1.3" height="12.4"></rect>
				<rect x="35.4" y="0" class="st2" width="1.3" height="12.4"></rect>
				<rect x="22.6" y="0" class="st2" width="1.3" height="12.4"></rect>
				<rect x="10.7" y="0" class="st2" width="1.3" height="12.4"></rect>
				<rect x="0" y="0" class="st2" width="1.3" height="12.4"></rect>
				<rect x="65.1" y="0" class="st2" width="1.3" height="12.4"></rect>
				<rect x="67.8" y="0" class="st2" width="1.3" height="12.4"></rect>
				<rect x="70.4" y="0" class="st2" width="1.3" height="12.4"></rect>
				<path class="st2" d="M73.6,0v12.3c-0.2,0-0.3,0-0.5,0h-0.8V0h0.8C73.3,0,73.4,0,73.6,0z"></path>
				<path class="st2" d="M75.4,1.2v10c-0.3,0.5-0.8,0.8-1.3,1v-12C74.6,0.4,75.1,0.7,75.4,1.2z"></path>
			</g>
		</g>
		<g transform="translate(0.234 0)">
			<path class="st1" d="M116.7,2.7v7c0,0.5-0.2,1.1-0.5,1.5c-0.3,0.5-0.8,0.8-1.3,1c-0.2,0.1-0.3,0.1-0.5,0.1c-0.1,0-0.1,0-0.2,0     h-0.1H114h-0.1H2.7c-1.4,0-2.6-1.1-2.7-2.6V9.6v-7V2.5C0.1,1.1,1.3,0,2.7,0H114c0.2,0,0.3,0,0.5,0s0.3,0.1,0.5,0.1     c0.5,0.2,1,0.6,1.3,1C116.6,1.6,116.7,2.2,116.7,2.7z"></path>
			<path class="st2" d="M62.1,12.4H2.4C1.1,12.3,0,11.2,0,9.8V9.7v-7V2.6C0,1.2,1,0.1,2.4,0h52.3C55.7,4.8,58.3,9.2,62.1,12.4     L62.1,12.4z"></path>
			<g transform="translate(40.911)">
				<rect x="61" y="0" class="st2" width="1.3" height="12.4"></rect>
				<rect x="56.7" y="0" class="st2" width="1.3" height="12.4"></rect>
				<rect x="51.6" y="0" class="st2" width="1.3" height="12.4"></rect>
				<rect x="43.7" y="0" class="st2" width="1.3" height="12.4"></rect>
				<rect x="35.4" y="0" class="st2" width="1.3" height="12.4"></rect>
				<rect x="22.6" y="0" class="st2" width="1.3" height="12.4"></rect>
				<rect x="10.7" y="0" class="st2" width="1.3" height="12.4"></rect>
				<rect x="0" y="0" class="st2" width="1.3" height="12.4"></rect>
				<rect x="65.1" y="0" class="st2" width="1.3" height="12.4"></rect>
				<rect x="67.8" y="0" class="st2" width="1.3" height="12.4"></rect>
				<rect x="70.4" y="0" class="st2" width="1.3" height="12.4"></rect>
				<path class="st2" d="M73.6,0v12.3c-0.2,0-0.3,0-0.5,0h-0.8V0h0.8C73.3,0,73.4,0,73.6,0z"></path>
				<path class="st2" d="M75.4,1.2v10c-0.3,0.5-0.7,0.8-1.3,1v-12C74.6,0.4,75.1,0.7,75.4,1.2z"></path>
			</g>
		</g>
	</g>
	<g transform="translate(816.341 9900.795)">
		<g transform="translate(0 0)">
			<path class="st3" d="M98.5,138.2l-18.2-1.6c0.5-8.8-0.2-17.6-2.2-26.2c-2.7-13.1-8.2-25.5-16.2-36.3C46.3,53.4,0,41.8,0,41.8     v-2.7L1.7,39c-0.5-0.3-1.1-0.6-1.7-0.8v-6.3c1.8,0,3.5,0.1,5.3,0.5C3.6,32,1.8,31.6,0,31.5v-3.3c67.1,1.8,89,42.3,95.8,73.7     C98.5,113.7,99.4,126,98.5,138.2z"></path>
			<path class="st4" d="M178.1,132.3l-79.7,5.9c-0.4-12.3-3.6-25-6.7-34.6c-1.7-5.5-3.7-10.9-6-16.2C61.8,35.2,0,28.1,0,28.1L68.6,0     c33.1,2.5,56.4,18.4,72.7,38.4C173.1,77.5,178.1,132.3,178.1,132.3z"></path>
		</g>
		<path class="st5" d="M178.1,132.3l-79.7,5.9l-18.2-1.6c0.5-8.8-0.2-17.6-2.2-26.2c4.4-2.6,8.9-4.9,13.6-6.8    c1.4-0.6,2.8-1.2,4.1-1.8c50.7-23.4,46-59.9,45.4-63.4C173.1,77.5,178.1,132.3,178.1,132.3z"></path>
		<g transform="translate(13.642 4.06)">
			<path class="st3" d="M158.2,134.4l-71-1.4l0.3-1.4c2-15.1,0.3-30.4-4.8-44.7c-5-13.8-13.3-26.2-24.2-36.1     c-13.8-12.6-32.3-22-55-27.9L0,22.1L55.4,0h0.2c0.6,0,14.9-0.2,33.2,8.5c11,5.2,20.9,12.4,29.4,21.1     c10.9,11.1,20.2,25.2,27.4,41.7c0.6,1.3,14.1,31.6,13.3,49.7l0,0L158.2,134.4z M90,130.7l66,1.3l0.6-11.1c0.3-7.3-1.9-18-6.3-31     c-3.3-9.9-6.8-17.6-6.8-17.7c-7.1-16.2-16.1-30-26.8-40.9c-8.3-8.5-18-15.5-28.7-20.7c-8.5-4.1-17.7-6.8-27-7.9     c-3-0.3-6.1,0.1-8.9,1.2L13.6,19.2c-1.2,0.5-1.8,1.8-1.3,3c0.3,0.6,0.8,1.1,1.4,1.3c18.7,6,34.2,14.6,46.3,25.7     c11.3,10.1,19.8,22.8,24.9,37c3.6,10.3,5.6,21.1,5.7,32.1C90.7,122.4,90.5,126.6,90,130.7L90,130.7z"></path>
		</g>
		<path class="st3" d="M133.7,56.8c0,11.7-6.9,18.8-18.6,18.8s-23.8-7.1-23.8-18.8s6.5-18.7,18.2-18.7S133.7,45.1,133.7,56.8z"></path>
	</g>
	<g transform="translate(847.774 9934.676)">
		<circle class="st6" cx="94.6" cy="89.1" r="63"></circle>
		<circle class="st1" cx="89.1" cy="89.1" r="63"></circle>
		<g transform="translate(31.704 32.449)">
			<path class="st2" d="M57.4,114.8C25.7,114.8,0,89.1,0,57.4S25.7,0,57.4,0s57.4,25.7,57.4,57.4c0,15.2-6,29.8-16.8,40.6     C87.3,108.8,72.7,114.9,57.4,114.8z M57.4,3.4c-29.8,0-54,24.2-54,54s24.2,54,54,54s54-24.2,54-54c0-14.3-5.7-28.1-15.8-38.2     S71.7,3.4,57.4,3.4L57.4,3.4z"></path>
		</g>
		<g transform="translate(63.973 47.462)">
			<path class="st2" d="M33.1,59.1c0.2-1.1,0.1-2.2-0.1-3.3c-0.3-1-0.7-2-1.4-2.8c-0.8-1-1.8-1.8-2.8-2.5c-1.4-0.9-2.9-1.7-4.4-2.4     c-2.8-1.3-5.5-2.8-8.1-4.4c-2.2-1.4-4.3-3-6-4.9c-1.6-1.7-2.8-3.8-3.6-6c-1.4-4.8-0.8-10,1.5-14.4c1.1-1.9,2.6-3.6,4.4-4.9     c1.9-1.4,4.1-2.4,6.4-3c2.6-0.7,5.3-1,8-0.9L28.1,0l7.6,0.9l-1.1,9.6c2.5,0.6,5,1.6,7.2,3c4.1,2.6,7,6.7,8,11.5     c0.6,2.7,0.7,5.4,0.3,8.1l-13.8-1.6c0.4-3.5-0.1-6.3-1.4-8.2c-1.4-2-3.6-3.2-6-3.4c-1.3-0.2-2.5-0.1-3.8,0.2     c-1,0.2-1.9,0.7-2.7,1.3c-0.8,0.6-1.4,1.4-1.8,2.3s-0.7,2-0.8,3c-0.1,1-0.1,2,0.1,3s0.7,1.9,1.4,2.6c0.8,1,1.8,1.8,2.8,2.5     c1.5,1,3,1.8,4.5,2.6c2.9,1.5,5.6,3,8,4.5c2.2,1.4,4.2,3,6,5c3.4,3.7,5,8.7,4.2,13.6c-0.2,2.4-1,4.7-2.2,6.8     c-1.1,1.9-2.6,3.6-4.5,4.9c-1.9,1.4-4.1,2.3-6.4,2.9c-2.6,0.7-5.3,0.9-8,0.8l-1,8.8L17.2,84l1-8.8c-2.6-0.6-5.1-1.5-7.4-2.6     S6.4,69.9,4.7,68c-1.8-2-3.1-4.3-3.8-6.8c-0.9-3-1.1-6.2-0.6-9.3L14,53.5c-0.3,1.8-0.2,3.6,0.3,5.3c0.4,1.4,1,2.6,2,3.6     c0.9,0.9,1.9,1.7,3.1,2.2s2.5,0.8,3.8,1s2.7,0.1,4-0.1c1.1-0.2,2.1-0.6,3-1.3c0.8-0.6,1.5-1.3,2-2.2     C32.6,61.1,32.9,60.1,33.1,59.1z"></path>
		</g>
	</g>
	<g transform="translate(1061.254 9988.651)">
		<g transform="translate(52.237 39.014)">
			<path class="st3" d="M11.6,16.5c0,0-6.8-8-0.4-13c0,0,4.7-2.8,8.5-2.6c0,0-5.4,9.1-3.7,10s5.3-10.5,5.3-10.5S32-0.6,35.4,1     c0,0-9.1,7.5-7.2,7.9S39.9,2,39.9,2s9.9,1.7,9.4,7.7s-3.9,7.9-5.5,7.8S33.5,14,33.3,15.2s5.1,5.3,8.8,5.4c0,0-7,7.7-11.6,5.5     s-5-5.8-7.9-7.1s-5.4-1.3-4.2,0s6.4,2.7,8.1,5.6s3.1,4.9-1.7,4.2s-12.6-4.2-13-8.3L11.6,16.5z"></path>
			<g transform="translate(0 9.821)">
				<path class="st3" d="M44.5,0c0,0-27-1-32.9,6.7c-1.2,2.9-3,5.5-5.4,7.5L5.6,16c0,0,4.7-4.9,6.3-5.2C11.9,10.7,9.3,1.2,44.5,0z"></path>
				<path class="st3" d="M6.2,14.3c-3.6,3-5.9,7.3-6.2,11.9l1.1,0.1c0,0,1.8-7.9,5.2-11S6.2,14.3,6.2,14.3z"></path>
			</g>
		</g>
		<g transform="translate(0 17.36)">
			<path class="st4" d="M39.9,28.2c0,0,10.9-6.1,5.8-14.4c0,0-4.1-5.1-8.4-6.4c0,0,2.3,12.3,0,12.6S35.7,6.1,35.7,6.1     S24.2,0.6,19.7,1c0,0,7.1,12,4.8,11.7S14.2,0.3,14.2,0.3S2.5-1.9,0.6,5.1S1.8,15.5,3.5,16c1.7,0.4,12.9,0.3,12.6,1.7     s-7.8,3.8-12,2.5c0,0,4.6,11.5,10.7,10.9s8-4.4,11.7-4.6s6.5,0.7,4.6,1.7s-8.3,0.3-11.3,2.9s-5.5,4.2,0.1,5.3s15.8,0.4,17.8-3.9     L39.9,28.2z"></path>
			<g transform="translate(5.96 7.282)">
				<path class="st3" d="M0,0c0,0,30.4,9.9,33.9,20.9c0.1,3.7,1.1,7.3,2.9,10.6v2.2c0,0-3.2-7.4-4.9-8.4C31.9,25.2,38.7,15.7,0,0z"></path>
				<path class="st3" d="M36.8,31.5c2.8,4.8,3.6,10.5,2,15.8L37.6,47c0,0,1.2-9.6-1.3-14.4S36.8,31.5,36.8,31.5z"></path>
			</g>
		</g>
		<g transform="translate(47.767)">
			<path class="st4" d="M9.4,37.1c0,0-14.3-8-7.6-18.9c0,0,5.4-6.7,11.1-8.4c0,0-3.1,16.2,0,16.6S15,8.1,15,8.1s15.1-7.3,21-6.7     c0,0-9.4,15.9-6.3,15.5S43.3,0.4,43.3,0.4s15.5-2.9,18,6.3S59.8,20.5,57.5,21s-17,0.4-16.6,2.3s10.3,5,15.9,3.2     c0,0-6.1,15.1-14.1,14.3S32,35.2,27,34.8s-8.6,1-6.1,2.3s10.9,0.4,14.9,3.9s7.3,5.5-0.2,7s-20.8,0.6-23.5-5.2L9.4,37.1z"></path>
			<g transform="translate(1.853 9.599)">
				<path class="st3" d="M52.3,0c0,0-40.1,13-44.7,27.5c-0.1,4.9-1.4,9.7-3.8,14v2.9c0,0,4.2-9.7,6.5-11.1      C10.2,33.3,1.3,20.6,52.3,0z"></path>
				<path class="st3" d="M3.7,41.5c0,0-6.2,9.4-2.7,20.8l1.6-0.4c0,0-1.5-12.6,1.7-18.9S3.7,41.5,3.7,41.5z"></path>
			</g>
		</g>
		<path class="st7" d="M56.7,96.7c15.5,0,28.1-12.6,28.1-28.1H28.6C28.6,84.2,41.2,96.7,56.7,96.7z"></path>
		<path class="st8" d="M63.6,96.5c-15.4,1.9-29.4-9-31.4-24.4C32.1,71,32,69.8,32,68.7h7C39,82.8,49.6,94.8,63.6,96.5z"></path>
		<path class="st7" d="M85.2,98.2h-57c0-1.9,1.6-3.5,3.5-3.5l0,0h50C83.6,94.7,85.2,96.2,85.2,98.2L85.2,98.2L85.2,98.2z"></path>
		<rect x="27.7" y="68.7" class="st9" width="57.7" height="0.9"></rect>
	</g>
	<g transform="translate(823.446 9826)">
		<path class="st10" d="M47.8,37.5v1.7c0,0-0.5,5.3,6.1,6.1s11.9,0.7,11.8-3.4c-0.6-3.2-1.6-8.1-1.7-10.8c0-1.1,0.1-2.1,0.2-3.2    l-12.7-0.3l-3.7,0.6L47.8,37.5z"></path>
		<path class="st11" d="M47.7,28.3v9.2c1.4,0.7,3,1,4.6,1c5.8,0,9.6-4.3,11.6-7.4c0-1.1,0.1-2.1,0.2-3.2l-12.7-0.3L47.7,28.3z"></path>
		<path class="st10" d="M65.2,25.9c-1.5,7.9-11.7,7.7-16.1,7.2c-1.2-0.1-2-0.3-2-0.3c-1.4-0.4-2.2-2.6-2.6-5.5    c-0.7-5.7,0.2-14.1,1.2-16.3c1.5-3.2,4.2-6.7,14.5-4.2S67,15.7,65.2,25.9z"></path>
		<path class="st12" d="M73.5,260.8H59c0.3-1.8,0.6-3.5,1.2-5.2c0.2-0.7,0.5-1.4,0.8-2.1c1.4-2.8,10.4-1,10.4-1s0.8,0.7,1.5,3.4    C73.2,257.5,73.4,259.1,73.5,260.8z"></path>
		<path class="st12" d="M29.7,256.2c0,2-0.3,3.8-1,4.6H0c0.4-1,1.4-2.6,4.3-3.1c3.3-0.5,8.6-2.2,11.6-5.4c1.1-1.1,1.9-2.5,2.2-4.1    c1.3-6,11.2,1.8,11.2,1.8C29.6,252.1,29.7,254.2,29.7,256.2z"></path>
		<path class="st13" d="M48.8,191.2c-0.3,1.8-0.6,3.5-0.7,5.3c-0.9,17.8-15,58.5-17.5,59.4c-3.9,1.5-10-1.7-13.2-2.7    c-1.3-0.4-2.2-1.7-1.9-3.1c7-32,9.5-78.1,10.5-105.4c0.2-7.8,1.2-15.6,2.8-23.2c0,0,34.3-9.2,34.5,2.4    C63.4,134.2,51.8,174.3,48.8,191.2z"></path>
		<path class="st12" d="M48.8,191.2l-22.9-46.5c0.2-7.8,1.2-15.6,2.8-23.2c0,0,34.3-9.2,34.5,2.4C63.4,134.2,51.8,174.3,48.8,191.2z    "></path>
		<path class="st13" d="M41.1,124l18.1,131.4c0,0,8,1.9,14.2,0.4c0,0,5.3-69.9,4.9-86.8s3.8-45.2-1-48.3S41.1,124,41.1,124z"></path>
		<path class="st12" d="M42.4,3.4c3.4-0.4,6.7-1.3,9.9-2.7c4.3-1.9,9.8,0.2,11.6,1.1c-0.1-0.4-0.2-0.7-0.4-1.1    C64,1,64.3,1.5,64.4,2.1c0.1,0.1,0.1,0.1,0.1,0.1c0.5-0.1,1-0.1,1.5,0.1c0,0-0.4-0.1-0.6,0.2c0,0,0,0.1-0.1,0.1    c6.8,3.3,7.4,14,5.2,16.5c-2.6,3-5.8,9.7-5.8,9.7c-0.8-1.3-1-2.8-0.7-4.2c0.5-2.6-1.8-2.6-4.7-3.8s-0.5-4.5-3-6.6    S44.8,13.4,45,11.9C41.6,10.6,42.4,3.8,42.4,3.4z"></path>
		<path class="st14" d="M67.2,44.2L63,133.7c0,0-34.8,0.6-33.9-7.3s12.6-79.5,12.6-79.5L67.2,44.2L67.2,44.2z"></path>
		<path class="st15" d="M79.6,94.9c-2.1,6.2,1.8,27.1,3.2,34.2c0.3,1.5,0.5,2.4,0.5,2.4c-4.8,7.9-22.5,7.7-22.5,7.7    c-3.4-15-5.2-38.9-5.2-38.9l13.6-59.4l17.1,15.8c0,0-1.3,9.6-2.9,19.4C82.2,83.8,80.8,91.6,79.6,94.9z"></path>
		<path class="st16" d="M50.6,27.2c0,0-0.3,1-2.9,0.6c0,0-2.2-0.3-2-1.5C47.4,26.1,49.1,26.3,50.6,27.2z"></path>
		<path class="st15" d="M31,45.4C31,45.4,31,45.5,31,45.4C30.2,46.3,6.9,68.9,2.4,77.7c-4.6,9,21,26.9,21,26.9    c0.9,0.4,1.8,0.5,2.8,0.4c-1.2,9.9-2.6,19.1-1.8,23c1.4,7.1,8,9.4,8,8.9c0-0.2,1.7-25.8,3.7-39C40.6,68.5,45.9,41,45.9,41    C40.7,41.7,35.7,43.2,31,45.4z M17.2,81.6L17.2,81.6c0-1.4,4.9-4.2,10.3-7.6l0.1-0.1l0,0c-0.1,2.8-0.1,5.4,0.1,8    c0.2,5.3,0,10.6-0.6,15.9C24.5,93.7,17.7,83,17.2,81.6L17.2,81.6z"></path>
		<g transform="translate(40.842 37.669)">
			<path class="st17" d="M27.3,3.1c0-0.9-4-2-4-2S18.7,7.5,11,7.6c0,0,2.2,4.2,4.7,5.3C15.8,12.9,27.1,8.1,27.3,3.1z"></path>
			<g transform="translate(0 8.74)">
				<path class="st18" d="M0.3,59.4c0.2,2.1,1.1,4,2.7,5.5l2.4,2.2c0.6,0.5,1.5,0.5,2-0.1c0,0,0-0.1,0.1-0.1l3-3.8      c0.8-1,1.2-2.3,1.1-3.6c-0.3-2.9-0.8-8.5-1.2-13.8C10,41.3,9.8,37,9.7,34.4C9.7,26.2,11.3,0,11.3,0l-2,0.1      c-3.4,7.7-5.9,15.8-7.5,24c-0.7,3.6-1.1,7.2-1.4,10.8C0.5,34.9-0.5,49.9,0.3,59.4z"></path>
				<path class="st19" d="M0.3,59.4c0.2,2.1,1.1,4,2.7,5.5l2.4,2.2c0.6,0.5,1.5,0.5,2-0.1c0,0,0-0.1,0.1-0.1l3-3.8      c0.8-1,1.2-2.3,1.1-3.6c-0.3-2.9-0.8-8.5-1.2-13.8C4.9,39.5,2.7,31,1.9,24.1c-0.7,3.6-1.1,7.2-1.4,10.8      C0.5,34.9-0.5,49.9,0.3,59.4z"></path>
			</g>
			<path class="st17" d="M11.1,7.4c0,0-4-2.4-4.1-5c0,0-2.6-0.3-3.8,0.9c0,0-1,4.5,0.3,7C3.6,10.4,9.4,9.5,11.1,7.4z"></path>
			<path class="st19" d="M13.8,7L8.3,5.7c-0.4,0.1-0.8,0.5-0.7,1l0,0c0,0.9,1.5,3.5,2.2,3.7S15.1,8.8,13.8,7z"></path>
			<path class="st14" d="M26.7,2.6C26.7,1.8,24,0,24,0s-5.3,6.2-12.9,6.3c0,0,2.2,4.2,4.7,5.3C15.8,11.6,26.4,7.7,26.7,2.6z"></path>
			<path class="st14" d="M11.1,6.3c0,0-4.1-2.2-4.1-4.8C5.6,2.1,4.4,2.9,3.3,3.9C2.7,5.7,2.8,7.6,3.6,9.3C3.6,9.3,9.4,8.4,11.1,6.3z     "></path>
		</g>
		<path class="st10" d="M21.8,106c0-2.1,1.7-3.8,3.7-3.8c0.2,0,0.4,0,0.5,0c0.6,0.1,1.2,0.4,1.6,0.9c1.6,2.1,3,8.1,0.3,8.4    c-1.4-0.1-2.7-0.6-3.7-1.5c-1.1-0.9-2.5-2.2-2.5-3.6L21.8,106z"></path>
		<path class="st12" d="M82.9,129.1c-5-5.2-13.6-15.4-13.3-23.8C69.9,93.5,83.4,76,83.4,76c-1.3,7.8-2.7,15.6-3.8,18.9    C77.6,101.2,81.5,122,82.9,129.1z"></path>
		<path class="st10" d="M82.7,108.6c0,0-3.6,1.8-5.8,0.9s-4.7-1.6-7.2,1.2s-2.9,4.7-2.4,5.7s6.2,0.6,7.1,0s2.4-2.2,3.4-1.9    c2.6,0.8,4.8-1.2,6-2.8C84.6,110.7,82.6,110.3,82.7,108.6z"></path>
		<path class="st15" d="M69.3,40.8c0,0,14.3,1.6,17.7,7.8s20.9,31.5,20.3,42s-23.9,22.3-23.9,22.3s-5.2-2.2-5.2-4.5    s16.1-16.4,15.2-19s-19-23.5-20.7-30.3S69.3,40.8,69.3,40.8z"></path>
		<path class="st12" d="M27.5,73.8l-0.1,0.1c-5.3,3.4-10.3,6.2-10.3,7.5c-0.7-2.3,6.2-11.8,8.5-13.7C27.9,65.7,27.5,73.8,27.5,73.8z    "></path>
		<path class="st12" d="M64.8,37.7c0,0-10.9,45.5-9.1,62.6c0,0,4-18.3,13.6-33.3c0,0-3.5-3.1-3.3-4.2c1.7-0.5,3.4-0.5,5.1-0.3    c0,0-0.3-19.6-1.9-21.7C68.1,39.4,66.5,38.4,64.8,37.7z"></path>
		<path class="st12" d="M47.8,39.2c0.1,0.1-10.8,44.4-11.7,58.7c0,0,1.1-25.3,1-32.7c0,0,4.5-2.4,4.5-3.2s-4.8-3.1-4.8-3.1    s3-15.6,4.7-17.3S47.8,39.2,47.8,39.2z"></path>
	</g>
	<g transform="translate(985.899 9919.37)">
		<path class="st12" d="M11,32.3h29.7c3.9,0,7-3.2,7-7V12.4c0-3.9-3.2-7-7-7L11,5.3c-3.9,0-7,3.2-7,7v12.9C4,29.2,7.1,32.3,11,32.3z    "></path>
		<path class="st13" d="M42.9,8.7L42.9,8.7c-1.1-2-3.2-3.3-5.4-3.5l0,0c-0.2,0-0.5,0-0.7,0h-5.9V2.3c0-1.3-1-2.3-2.3-2.3h-1.5h-6.2    h-1.1c-1.3,0-2.3,1-2.3,2.3v2.8H7.3c-3.9,0-7,3.2-7.1,7.1v13c0,3.9,3.2,7,7.1,7.1H37c0.5,0,1-0.1,1.5-0.2l0,0l0,0    c0.8-0.2,1.5-0.5,2.2-0.9c2.1-1.3,3.3-3.6,3.3-6v-13C43.8,10.9,43.5,9.7,42.9,8.7z M18.7,2.3c0-0.4,0.2-0.7,0.6-0.8    c0.1,0,0.2,0,0.3,0h1.3h4.9h2.7c0.5,0,0.9,0.4,0.9,0.9v2.8H18.8L18.7,2.3z"></path>
	</g>
</g>
</svg>