<svg xmlns="http://www.w3.org/2000/svg" xmlns:xlink="http://www.w3.org/1999/xlink" id="Capa_1" x="0px" y="0px" viewBox="0 0 374.2 320.2" style="enable-background:new 0 0 374.2 320.2;" xml:space="preserve">
<style type="text/css">
	.st0{fill:#3C8F7C;}
	.st1{fill:#96D9C9;}
	.st2{fill:#50BFA5;}
	.st3{fill:#0B0B35;}
	.st4{fill:#E59F39;}
	.st5{fill:#EAB054;}
	.st6{fill:#F7CC7F;}
	.st7{fill:#FFB27D;}
	.st8{fill:#004691;}
	.st9{fill:#72217B;}
	.st10{fill:#454545;}
	.st11{fill:#FFFFFF;}
	.st12{fill:#ED975D;}
	.st13{fill:#E2810E;}
	.st14{fill:#FFB93E;}
	.st15{fill:#FFA412;}
</style>
<g transform="translate(-724.353 -4192.707)">
	<g transform="translate(764.534 4192.707)">
		<g transform="translate(90.31 125.092)">
			<path class="st0" d="M-15.8,78.8C42.1,32.7,90.7-26.9,127.4-96.8L207-32.9c-42.5,80.9-98.7,149.7-165.6,203L-15.8,78.8z"></path>
			<path class="st1" d="M139.9-80.1l49.4,40.3c-3.9,7.3-2.5,17.2,3.3,22.2C155.2,48.5,108.3,106,53.8,152.6     c-4.5-6.7-12.9-8-18.9-3.1l-36-56.7c5.6-4.5,6.4-13.7,1.9-20.4C48.7,31.5,89.9-19,122.7-77C128.5-72.1,136.3-73.4,139.9-80.1z"></path>
			<g transform="translate(43.547 103.51)">
				<path class="st2" d="M29.8-32.5C17.5-48.4,17.6-71.9,29.2-86c11.7-14,31.6-14.7,45.4-0.5s15.1,39.3,2,55.1S42.1-16.5,29.8-32.5z      "></path>
				<path class="st0" d="M34.5-82.6l4.4,4.8c1.7-1.9,3.6-3.7,5.7-5.1c1.6-0.9,3.6-0.4,4.6,1.2c0.1,0.1,0.1,0.2,0.1,0.3l0.1,0.2      c1.2,2,0.7,4.8-1.1,5.9c-2,1.2-3.8,2.8-5.2,4.7c-2.3,2.9-2.9,6-1.1,8.1c1.7,1.9,4.2,1.5,8.3-1.1c6-3.8,11.3-5.2,15.8-0.5      c4.1,4.3,4.8,11.1,1.3,18c1.5,1.6,2.9,3.2,4.4,4.8c-1.4,1.8-2.8,3.6-4.2,5.3c-1.3-1.5-2.7-3-4-4.4c-1.3,1.6-2.9,3-4.5,4.2      c-1.5,1-3.6,0.7-4.6-0.9c-0.1-0.2-0.2-0.4-0.3-0.6l0,0c-1.1-2-0.6-4.5,1.2-5.9c1.6-1.1,3.1-2.5,4.3-4c2.7-3.5,2.3-6,1-7.4      c-1.5-1.7-3.9-0.8-8.9,2c-6.9,4.1-11.4,3.7-15.5-1c-4-4.6-4.8-11.6-1.1-18.4c-1.6-1.7-3.1-3.4-4.7-5.2      C31.9-79.3,33.2-80.9,34.5-82.6z"></path>
				<path class="st2" d="M-15.8,8.6C-2.6-2.7,10.1-14.6,22.3-27.2l6.3,8.1C16.2-6.4,3.3,5.7-10,17.2L-15.8,8.6z"></path>
			</g>
		</g>
		<g transform="translate(102.101 210.449)">
			<path class="st0" d="M-15.8-25.2c72.6-9.2,143.9-33.5,210-71.6l37.7,88.3C155.5,35.6,73.1,63.7-10.9,74.3     C-12.5,41.2-14.1,8-15.8-25.2z"></path>
			<path class="st1" d="M196.8-77.7l23.1,55.4c-7,3.9-10.6,12.5-7.9,19.2C147.3,31.7,78.6,55.1,8.5,66.3C7.9,58.9,1.3,53.9-6.4,54.9     c-1.2-20.7-2.3-41.4-3.5-62c7-1,12.2-7.9,11.6-15.3c61.6-9.8,121.9-30.4,178.7-61c2.1,5.8,8.5,8.8,14.3,6.8     C195.5-76.9,196.2-77.3,196.8-77.7z"></path>
			<g transform="translate(80.544 63.228)">
				<path class="st2" d="M-15.3-52.4c-2.9-18.5,8.7-37.1,25.6-42.7c17-5.6,34.6,3.3,39.7,21c5,17.7-6.1,38.3-25.2,44.7      C5.6-23-12.4-33.9-15.3-52.4z"></path>
				<path class="st0" d="M13.3-90c0.5,1.9,1,3.9,1.5,5.8c2.4-0.8,4.9-1.2,7.4-1.3c1.8-0.1,3.3,1.4,3.4,3.2c0,0.1,0,0.1,0,0.2      s0,0.2,0,0.2c0,2.2-1.6,4-3.8,4.2c-2.3,0-4.6,0.5-6.8,1.3c-3.4,1.2-5.4,3.4-4.9,5.9c0.6,2.3,2.9,3.2,7.7,3.1      c7.1-0.2,12.3,1.2,13.9,7.1c1.5,5.4-1.3,11.1-7.7,14.9c0.5,1.9,1,3.9,1.5,5.8c-2.1,0.8-4.2,1.5-6.2,2.2      c-0.4-1.8-0.9-3.6-1.3-5.4c-1.9,0.6-3.9,1-6,1.2c-1.8,0.2-3.4-1.2-3.6-3c0-0.2,0-0.3,0-0.5l0,0c0.1-2.2,1.8-3.9,3.9-4.1      c1.9-0.1,3.9-0.5,5.7-1.2c4.1-1.5,4.9-3.7,4.5-5.4c-0.5-2-3-2.5-8.7-2.6c-8,0-11.7-2.5-12.9-8.1C-0.3-72,2.5-77.9,9-81.6      c-0.5-2.1-1-4.2-1.5-6.3C9.4-88.6,11.4-89.3,13.3-90z"></path>
			</g>
		</g>
		<path class="st3" d="M119.7,38.7c1.8-0.6,3.5-1.3,5.2-2.1c1.9-1,3.9-1.7,5.9-2.2c3.3-0.5,8.9-0.2,12,3.2    c3.9,4.2,10.7,0.8,9.3,22.6c-1.6,24.7-15.3,22-15.7,21.6S124.1,66,124.1,66s-4.2,9.1-4.2,8.8S98.5,45.8,119.7,38.7z"></path>
		<g transform="translate(78.823 298.387)">
			<path class="st0" d="M26.3-96.8c57.1,22.6,120.2,32.9,185.8,30.4L199,17.4C123.1,20.3,50.2,8.3-15.9-17.8L26.3-96.8z"></path>
			<path class="st1" d="M205.3-50.5l-8.6,52.3c-6.9,0.2-13.4,5.3-14.6,11.6C119,13.9,58.2,3.9,2-16.1c2.8-5.1,0.9-11.5-4.2-14.3     c-0.5-0.2-0.9-0.5-1.4-0.6C5-47.5,13.7-64,22.3-80.5c5.6,2.1,12.5-1.1,15.5-7.1C87.1-70,140.5-61.2,196-61.6     C194.8-55.4,199-50.3,205.3-50.5z"></path>
			<g transform="translate(32.3 38.003)">
				<path class="st2" d="M36.5-73.8c6.4-15.5,23.4-25.1,38.3-22.6c15,2.6,23.7,16.7,19.2,32.5c-4.4,15.8-22,27.2-38.8,24.3      C38.3-42.5,30.2-58.3,36.5-73.8z"></path>
				<path class="st0" d="M74.6-91.2c-0.5,1.7-1.1,3.4-1.6,5.1c2.1,0.4,4.1,1.1,6,2c1.3,0.8,1.8,2.5,1,3.8c0,0.1-0.1,0.1-0.1,0.2      l-0.1,0.2c-0.9,1.7-2.9,2.4-4.7,1.7c-1.7-0.9-3.6-1.5-5.5-1.8c-3.1-0.4-5.5,0.4-6.2,2.6c-0.7,2,0.6,3.6,4.2,5.5      c5.2,2.8,8.4,5.9,6.9,11.2c-1.4,4.8-6,8.1-12.4,8.4l-1.6,5.1c-1.9-0.3-3.7-0.5-5.6-0.8c0.5-1.6,1-3.2,1.5-4.7      c-1.7-0.3-3.3-0.8-4.9-1.5c-1.4-0.7-2-2.3-1.3-3.7c0.1-0.2,0.2-0.3,0.3-0.5l0,0c1-1.6,3-2.3,4.8-1.6c1.5,0.7,3,1.2,4.7,1.4      c3.6,0.5,5.3-0.8,5.7-2.3c0.6-1.8-1-3.2-5.2-5.6c-5.8-3.3-7.4-6.7-5.7-11.5s6.4-8.3,12.8-8.4c0.6-1.8,1.2-3.7,1.8-5.5      C71.2-91.7,72.9-91.4,74.6-91.2z"></path>
				<path class="st2" d="M-11.9-89.6c13.6,4.8,27.5,9,41.6,12.6l-3.3,7.9C12.1-72.8-2-77-15.8-81.9L-11.9-89.6z"></path>
			</g>
		</g>
		<g transform="translate(50.372 384.296)">
			<path class="st4" d="M149.1-90.6v20.5c0,3.3-36.9,6-82.4,6s-82.4-2.7-82.4-6v-20.5H149.1z"></path>
			<g transform="translate(0 6.207)">
				<path class="st5" d="M89.4-70.6v-26.2H149v20.5C149.1-73.6,123.9-71.3,89.4-70.6z"></path>
				<path class="st5" d="M86.7-70.5c-6.4,0.1-13.1,0.2-20,0.2c-10.3,0-20.1-0.1-29.2-0.4v-26.1h49.2V-70.5z"></path>
				<path class="st5" d="M34.2-70.8c-29.4-0.9-49.9-3-49.9-5.5v-20.5h49.9V-70.8z"></path>
			</g>
			<ellipse class="st4" cx="66.7" cy="-90.8" rx="82.4" ry="6"></ellipse>
			<path class="st6" d="M-1.2-90.8c0,2.3,30.4,4.2,67.9,4.2s67.9-1.9,67.9-4.2c0-2.3-30.4-4.2-67.9-4.2S-1.2-93.1-1.2-90.8z"></path>
		</g>
		<g transform="translate(64.474 362.644)">
			<path class="st4" d="M149.1-90.6v20.5c0,3.3-36.9,6-82.4,6s-82.4-2.7-82.4-6v-20.5H149.1z"></path>
			<g transform="translate(0 6.206)">
				<path class="st5" d="M89.4-70.6v-26.2H149v20.5C149.1-73.6,123.9-71.3,89.4-70.6z"></path>
				<path class="st5" d="M86.7-70.5c-6.4,0.1-13.1,0.2-20,0.2c-10.3,0-20.1-0.1-29.2-0.4v-26.1h49.2V-70.5z"></path>
				<path class="st5" d="M34.2-70.8c-29.4-0.9-49.9-3-49.9-5.5v-20.5h49.9V-70.8z"></path>
			</g>
			<ellipse class="st4" cx="66.7" cy="-90.8" rx="82.4" ry="6"></ellipse>
			<path class="st6" d="M-1.2-90.8c0,2.3,30.4,4.2,67.9,4.2s67.9-1.9,67.9-4.2c0-2.3-30.4-4.2-67.9-4.2S-1.2-93.1-1.2-90.8z"></path>
		</g>
		<g transform="translate(55.079 340.417)">
			<path class="st4" d="M149.1-90.6v20.5c0,3.3-36.9,6-82.4,6s-82.4-2.7-82.4-6v-20.5H149.1z"></path>
			<g transform="translate(0 6.207)">
				<path class="st5" d="M89.4-70.6v-26.2H149v20.5C149.1-73.6,123.9-71.3,89.4-70.6z"></path>
				<path class="st5" d="M86.7-70.5c-6.4,0.1-13.1,0.2-20,0.2c-10.3,0-20.1-0.1-29.2-0.4v-26.1h49.2V-70.5z"></path>
				<path class="st5" d="M34.2-70.8c-29.4-0.9-49.9-3-49.9-5.5v-20.5h49.9V-70.8z"></path>
			</g>
			<ellipse class="st4" cx="66.7" cy="-90.8" rx="82.4" ry="6"></ellipse>
			<path class="st6" d="M-1.2-90.8c0,2.3,30.4,4.2,67.9,4.2s67.9-1.9,67.9-4.2c0-2.3-30.4-4.2-67.9-4.2S-1.2-93.1-1.2-90.8z"></path>
		</g>
		<g transform="translate(64.474 318.494)">
			<path class="st4" d="M149.1-90.6v20.5c0,3.3-36.9,6-82.4,6s-82.4-2.7-82.4-6v-20.5H149.1z"></path>
			<g transform="translate(0 6.207)">
				<path class="st5" d="M89.4-70.6v-26.2H149v20.5C149.1-73.6,123.9-71.3,89.4-70.6z"></path>
				<path class="st5" d="M86.7-70.5c-6.4,0.1-13.1,0.2-20,0.2c-10.3,0-20.1-0.1-29.2-0.4v-26.1h49.2V-70.5z"></path>
				<path class="st5" d="M34.2-70.8c-29.4-0.9-49.9-3-49.9-5.5v-20.5h49.9V-70.8z"></path>
			</g>
			<ellipse class="st4" cx="66.7" cy="-90.8" rx="82.4" ry="6"></ellipse>
			<path class="st6" d="M-1.2-90.8c0,2.3,30.4,4.2,67.9,4.2s67.9-1.9,67.9-4.2c0-2.3-30.4-4.2-67.9-4.2S-1.2-93.1-1.2-90.8z"></path>
		</g>
		<path class="st7" d="M63.9,296l-2,10.4c-0.1,1.4-0.1,4.8-0.4,6c-1.1,4.4-19.8-6.4-14.9-7.2c1.7-1.3,3.2-2.9,4.4-4.7    c1-2.2,1.8-4.5,2.5-6.9L63.9,296z"></path>
		<path class="st3" d="M47.6,304.5c2.4,0.6,4.8,1.1,7.3,1.4c2.5,0.2,5.6-3.6,7.4-2.8c1.9,0.8,3,12.9,3,12.9s-30.8,1.4-38.1-0.6    C24.3,314.6,38,308.2,47.6,304.5z"></path>
		<path class="st7" d="M20.9,295.6l-2,10.4c-0.1,1.4-0.1,4.8-0.4,6c-1.1,4.4-19.5-5.6-14.5-6.5c0.4-0.1,3.3-4,4.1-5.4    c1-2.2,1.8-4.5,2.5-6.9L20.9,295.6z"></path>
		<path class="st3" d="M5.1,304.5c2.4,0.6,4.8,1.1,7.3,1.4c2.5,0.2,5.6-3.6,7.4-2.8c1.9,0.8,3,12.9,3,12.9s-30.8,1.4-38.1-0.6    C-18.3,314.6-4.5,308.2,5.1,304.5z"></path>
		<path class="st8" d="M127.9,191.5l-56.1-13c0,0-25.2-6.7-31.2,1.2S8.7,295.2,8.7,295.2s13.3,1.2,14.2,0.6L54,240.5    c3-5.3,4.9-11,5.7-17l2.2-15.8l22.8,6.7c0,0,26.3,5.8,37-0.9S127.9,191.5,127.9,191.5z"></path>
		<path class="st9" d="M106.3,94.8c-0.9,0-3.3,0.8-6.9,7.5c-4.5,8.5-11.2,34.3-11.2,34.3l19.8,7.3l2.5-5.4l4.2-41.5    C114.8,97.1,106.6,94.8,106.3,94.8z"></path>
		<path class="st9" d="M132.5,91c-5.7,0-19.7,1.7-26.2,3.7c0,0-4.8,40.9,4.3,72c2,7-1.7,28.8-1.7,28.8l58.6-0.8    c0,0-6.9-52.9-4.3-61.4s2.7-38.3,2.7-38.3s-0.4-0.1-13.2-2.3C146,91.7,139.3,91.1,132.5,91z"></path>
		<path class="st7" d="M166.5,99.6c-5.5-2-8.2,47.2-8.9,67.4c-9.7,0.9-26.6,0-30.8-0.3c-2-0.1-6.5-1.8-8.5-2.1    c-1.6-0.3-3.2-0.4-4.8-0.2c-0.4,0.1-10.5,4.2-11.3,5.1c-1.1,1.1-4,4-3.5,5.2s5.6-3.4,5.6-3.4l2.5-1.4c-3.1,3-9,7-8.2,8.4    s6.2-2.6,10-5.4c-3.3,2.9-7.3,8.2-6.4,9c0.8,0.7,5.4-5.3,10.4-7.1c1.8-0.6,3.6,1.1,5.1,1.4c1.2,0.3,2.5,0.4,3.7,0.2l4.9-0.5    c1.4,0.1,2.7,0.3,4.1,0.6c2.1,0.5,5.6,0.9,8.3,1.6c15.6,3.8,20.8,5.6,25.6,5.6C178.7,183.7,179.5,104.4,166.5,99.6z"></path>
		<path class="st9" d="M176.9,145.8c1-20.8,0.9-46.3-10.8-50.7c-4.6-1.7-12.7,8.6-11.3,51.1C161.1,146.7,170.3,147.1,176.9,145.8z"></path>
		<path class="st10" d="M46.9,133.1l55.2,3.6c1.5,0.1,2.7,1.1,3.2,2.5l14.3,42.6l30.5,2c0.9,0.1,1.5,0.8,1.4,1.6l0,0    c-0.1,0.9-0.8,1.5-1.6,1.4l-86.7-5.6c-2.4-0.2-4.5-1.7-5.3-3.9L43.3,138c-0.7-1.9,0.3-3.9,2.1-4.6    C45.9,133.2,46.4,133.1,46.9,133.1z"></path>
		<path class="st11" d="M74.5,159.4c0.3,1.7,1.9,2.7,3.6,2.4s2.7-1.9,2.4-3.6c-0.3-1.5-1.6-2.6-3.2-2.5    C75.5,156,74.2,157.7,74.5,159.4z"></path>
		<path class="st8" d="M167.5,193.4l-61.1-10.6c0,0-26.4-4-32.5,3.8s-23.7,109-23.7,109s13.3,1.2,14.2,0.6    c0.7-0.4,16.8-34.2,24-49.4c2.3-4.8,3.9-9.9,4.8-15.2l2.3-13.8l7.7,2.6c13.5,4.7,27.9,6.2,42.1,4.5c5.9-0.7,11.5-2,14.9-4.1    C170.9,214.2,167.5,193.4,167.5,193.4z"></path>
		<path class="st7" d="M130.2,83.6l-1.2,8.8c0,0-2.7,12.7,0.8,15.2c3.4,2.5,14.6-15.5,14.6-15.5l-1.2-22.4L130.2,83.6z"></path>
		<path class="st12" d="M143.5,76.9c-2.8,7.6-9.6,12.3-14.4,14.1l1-7.5l13-13.9L143.5,76.9z"></path>
		<path class="st7" d="M130.9,45.3c-6.4-1-12.5,3.4-13.5,9.9c-0.1,0.7-0.2,1.4-0.1,2c0.1,3.8,0.4,7.6,1,11.3    c1.6,10.2,8.6,19.2,13.2,18.4s16.2-9.6,14.2-24.1C144.3,53.9,138.5,46.6,130.9,45.3z"></path>
		<path class="st7" d="M142.4,64.6c0.4,2.2,2.2,3.8,4,3.5s3-2.4,2.6-4.6c-0.4-2.2-2.2-3.8-4-3.5S142,62.3,142.4,64.6z"></path>
		<path class="st3" d="M145,59.9c0,0-5.6,1.4-7.6-2.2s-9.5-11.3-18.9-8.1s8.3-7.8,9-7.8c0.8,0,9.8-0.1,9.8-0.1s7,5.7,7.2,6.3    s2.3,7.5,2.3,7.5L145,59.9z"></path>
		<g transform="translate(66.118 154.23)">
			<path class="st0" d="M-12.5-95.1c-1.1-0.4-2.2-0.7-3.3-0.9l0.1-0.9c1.2,0.2,2.4,0.5,3.5,0.9L-12.5-95.1z"></path>
			<g transform="translate(8.723 4.455)">
				<path class="st0" d="M-1.8-28.1C-3.5-29.6-5-31.3-6.3-33l0.7-0.5c1.3,1.7,2.8,3.3,4.4,4.8L-1.8-28.1z M-9.7-38.8      c-0.4-0.9-0.8-1.9-1.2-2.9c-0.4-1.1-0.8-2.3-1.1-3.4l0.8-0.2c0.3,1.1,0.6,2.3,1,3.3c0.3,1,0.7,1.9,1.2,2.8L-9.7-38.8z       M-12.3-51.7l-0.9,0.1c-0.2-2.2-0.3-4.4-0.2-6.7h0.9C-12.5-56.1-12.5-53.9-12.3-51.7L-12.3-51.7z M-12.1-64.8l-0.9-0.1      c0.2-1.9,0.5-4,0.8-6.6l0.9,0.1C-11.6-68.9-11.9-66.8-12.1-64.8z M-10.3-77.9l-0.9-0.1v-0.1c0.3-2.1,0.4-4.3,0.3-6.5l0.9-0.1      C-9.8-82.4-9.9-80.2-10.3-77.9L-10.3-77.9z M-12.2-90.9c-0.8-2-2-3.8-3.6-5.3l0.6-0.6c1.7,1.6,2.9,3.5,3.8,5.6L-12.2-90.9z"></path>
			</g>
		</g>
	</g>
	<g transform="translate(724.353 4273.783)">
		<circle class="st13" cx="41.4" cy="-43" r="38.1"></circle>
		<circle class="st14" cx="38.1" cy="-43" r="38.1"></circle>
		<g transform="translate(19.144 19.593)">
			<path class="st15" d="M18.9-27.5c-19.1,0-34.7-15.5-34.7-34.7c0-19.1,15.6-34.6,34.7-34.6s34.7,15.5,34.7,34.7     c0,9.2-3.7,18-10.2,24.5S28.1-27.4,18.9-27.5z M18.9-94.7c-18,0-32.6,14.6-32.6,32.6S0.9-29.5,18.9-29.5s32.6-14.6,32.6-32.6     S36.9-94.7,18.9-94.7z"></path>
		</g>
		<g transform="translate(38.628 28.658)">
			<path class="st15" d="M4.2-61.1c0.1-0.7,0.1-1.4-0.1-2c-0.1-0.7-0.4-1.2-0.8-1.7c-0.5-0.6-1.1-1.1-1.7-1.5     c-0.8-0.6-1.7-1-2.6-1.5c-1.7-0.8-3.3-1.7-4.9-2.7c-1.3-0.8-2.6-1.8-3.6-3c-1-1-1.7-2.3-2.2-3.6c-0.8-2.9-0.5-6,0.9-8.7     c0.7-1.2,1.6-2.2,2.7-3c1.1-0.7,2.4-1.3,3.8-1.7c1.6-0.4,3.2-0.6,4.8-0.6l0.7-5.7l4.6,0.5l-0.7,5.8c1.5,0.4,3,1,4.3,1.8     c2.5,1.6,4.2,4.1,4.8,7c0.3,1.6,0.4,3.3,0.2,4.9l-8.3-1c0.3-1.7,0-3.5-0.9-5c-0.8-1.2-2.2-1.9-3.6-2c-0.7,0-1.4,0-2.2,0.2     c-0.6,0.1-1.2,0.4-1.7,0.8s-0.8,0.8-1.1,1.4s-0.4,1.2-0.5,1.8s-0.1,1.2,0.1,1.8c0.1,0.6,0.4,1.1,0.8,1.6c0.5,0.6,1.1,1.1,1.7,1.5     c0.9,0.6,1.8,1.1,2.7,1.6c1.8,0.9,3.4,1.8,4.8,2.7c1.3,0.8,2.6,1.8,3.6,3c2.1,2.2,3,5.2,2.5,8.2c-0.1,1.5-0.6,2.9-1.3,4.1     c-0.7,1.2-1.6,2.2-2.7,3c-1.2,0.8-2.5,1.4-3.9,1.8c-1.4,0.3-3,0.5-4.6,0.5l-0.6,5.3L-5.4-46l0.6-5.3c-1.6-0.3-3.1-0.9-4.5-1.6     c-1.4-0.7-2.6-1.6-3.7-2.8s-1.8-2.6-2.3-4.1c-0.5-1.8-0.7-3.7-0.4-5.6l8.3,1c-0.2,1.1-0.1,2.2,0.2,3.2C-7-60.4-6.6-59.6-6-59     c0.5,0.6,1.2,1,1.9,1.3s1.5,0.5,2.3,0.6s1.6,0.1,2.4-0.1c0.7-0.1,1.3-0.4,1.8-0.8c0.5-0.3,0.9-0.8,1.2-1.3     C3.9-59.9,4.1-60.5,4.2-61.1z"></path>
		</g>
	</g>
</g>
</svg>